<?xml version="1.0" standalone="no"?>
<!DOCTYPE svg PUBLIC "-//W3C//DTD SVG 1.1//EN" "http://www.w3.org/Graphics/SVG/1.1/DTD/svg11.dtd" >
<svg xmlns="http://www.w3.org/2000/svg" xmlns:xlink="http://www.w3.org/1999/xlink" version="1.1">
<metadata>
Created by FontForge 20170731 at Thu Aug 27 14:56:37 2015
 By Aleksey,,,
Blacklist (c)junkohanhero 2015. All Rights Reserved
</metadata>
<defs>
<font id="Blacklist" horiz-adv-x="80" >
  <font-face 
    font-family="Blacklist"
    font-weight="400"
    font-stretch="normal"
    units-per-em="2048"
    panose-1="2 0 0 0 0 0 0 0 0 0"
    ascent="1638"
    descent="-410"
    x-height="1500"
    cap-height="1495"
    bbox="-560 -394 1478 1887"
    underline-thickness="150"
    underline-position="-442"
    unicode-range="U+0020-F005"
  />
<missing-glyph 
 />
    <glyph glyph-name=".notdef" 
 />
    <glyph glyph-name=".null" 
 />
    <glyph glyph-name="nonmarkingreturn" 
 />
    <glyph glyph-name="space" unicode=" " horiz-adv-x="608" 
 />
    <glyph glyph-name="space" unicode="&#xa0;" horiz-adv-x="608" 
 />
    <glyph glyph-name="exclam" unicode="!" horiz-adv-x="540" 
d="M373 1492q52 0 52 -45l-7 -104l7 -130l-7 -110l13 -58l-13 -143l7 -175l-7 -84l7 -45l-7 -59l7 -45q-13 -29 -26 -32h-247q-14 0 -32 45l6 45v130l-6 32l6 39v143l-6 32l6 39v259l-6 52l6 52v104q0 39 39 52l123 -7q85 0 85 13zM379 326q46 0 46 -78l6 -123v-78
q0 -52 -52 -52h-91l-51 6l-52 -6h-26q-29 0 -33 91l7 97l-7 91q20 45 59 45h168z" />
    <glyph glyph-name="quotedbl" unicode="&#x22;" horiz-adv-x="666" 
d="M1459 1257q15 -5 19 -19l-5 -4h-28v9l-4 5l4 4zM806 1108q37 -5 37 -14q-32 0 -32 -14l-10 -24l-18 10q0 37 23 37v5zM1296 1070h14l33 -14l-5 -4v-5l-14 9l-23 -4h-14v9zM227 1480q57 0 57 -82v-32l-6 -285l-19 -13h-165q-44 0 -44 83v158l13 120l-7 19l19 26h64z
M557 1480q38 0 50 -76l-12 -38l6 -203q0 -101 -51 -101h-139q-44 0 -44 76l-7 19l7 25l-7 222q0 70 70 70zM645 1448h13v-12l6 -140l-6 -6h-13l-6 25l6 51l-25 51q13 28 25 31zM652 1176h6q17 0 25 -44q-5 -89 -25 -89h-6q-16 0 -19 25l12 38v13l-12 44z" />
    <glyph glyph-name="numbersign" unicode="#" horiz-adv-x="851" 
d="M437 1523q19 -3 32 -39l-58 -468q0 -26 39 -26v-6l6 6h65q28 0 78 449q0 65 98 65h26q45 0 45 -33q0 -83 -52 -468q26 -19 85 -26l13 -26q-10 -149 -65 -149q-72 0 -72 -52l-6 -78q0 -33 65 -33q26 -19 26 -39q-15 -149 -78 -149q-59 0 -59 -130q-44 -319 -65 -319
l-45 -6h-33q-65 0 -65 39l46 383q0 39 -59 39h-19q-72 0 -72 -188q-30 -254 -71 -254l-33 -6q-97 0 -97 45l39 358q0 31 -46 32q-39 10 -39 52h-6q15 137 58 137q78 0 78 84l7 46q0 31 -91 45l-7 26q15 150 52 150q78 0 78 45l65 455l26 33h20zM359 672q0 -33 110 -33
q39 0 39 150l-19 13h-72q-58 0 -58 -130z" />
    <glyph glyph-name="dollar" unicode="$" horiz-adv-x="754" 
d="M399 1652q24 0 39 -71l-7 -38v-26q0 -28 103 -32q142 -46 142 -187l-19 -77q19 -95 19 -181q0 -167 -64 -167q0 -20 -13 -20l-52 13q-38 0 -38 -45v-6q0 -97 38 -97q0 -45 71 -77q5 -32 19 -32h7v13l-13 38l6 7h7q0 -31 45 -58q0 -16 -45 -39l-7 -32l13 -65l-6 -135v-141
q0 -187 -206 -187q-52 0 -52 -90q0 -39 -38 -39q-45 0 -45 123q-194 36 -194 109q-19 0 -19 135l6 103l-6 110v19q8 26 58 26h142q45 0 45 -65l-7 -122q0 -60 32 -77q33 4 33 38v193q0 60 -194 161l-45 46v12q39 44 39 65q0 32 -58 77q-19 82 -19 148v168q8 296 58 296
q30 32 161 64l13 20v51q0 71 51 71zM354 1253v-110q0 -45 45 -45q39 0 39 45v110q0 45 -45 45q-39 0 -39 -45zM373 937v-19q63 -65 97 -65q32 33 90 33l13 13l-32 6l-32 -6q-91 19 -91 51h-32zM245 847l-7 -6v-7q0 -39 39 -39l13 13v13q-10 26 -45 26zM631 776h6l-6 -26
l-13 13z" />
    <glyph glyph-name="percent" unicode="%" horiz-adv-x="1070" 
d="M191 1563h13q34 -33 58 -33l26 33h20q47 -60 123 -78l39 -85l13 -13v-6l-13 -65l7 -39l-7 -78l20 -130h6q21 0 72 416q27 32 39 32q66 0 84 -45l-97 -761v-39l13 -13l91 182q50 -39 71 -39q7 33 26 46q18 0 52 -52q117 -30 117 -104q20 -15 20 -46l-13 -52l13 -254
q-11 -338 -72 -338q-24 -13 -78 -13q-172 0 -221 104h-19v13l19 26v20l-19 58l32 91q-32 49 -32 85l26 45l-7 39l13 52v20l-26 26h-6q-28 0 -33 -176q-39 -169 -58 -370q-15 -46 -52 -46h-26q-36 0 -46 33q0 86 91 741v20h-6q-69 -59 -124 -59q-138 0 -234 78q-26 13 -26 39
q26 11 26 46l-13 52v13l33 84q-33 46 -33 91l26 46l-6 39l13 39v6q-26 77 -26 130q13 0 52 104l-7 7v26zM295 1238l-7 -7v-19l13 -13l7 6v20zM295 1062l-13 -45l6 -59l-6 -32q9 -26 19 -26q13 0 13 32h7l-7 7v6l7 91l-20 26h-6zM477 932l-7 -32v-13l13 -13l20 19v20l-20 19
h-6zM802 503l-7 -7v-45l13 -13l7 6v46zM802 262l-7 -32v-26l13 -13l7 32v26z" />
    <glyph glyph-name="ampersand" unicode="&#x26;" horiz-adv-x="817" 
d="M364 553q11 -34 1 -63l-17 -171q7 -58 26 -58h42l7 32q40 222 -8 257q-31 1 -51 3zM285 840l-7 -7v-6q0 -39 39 -39l13 13v13q-10 26 -45 26zM364 1195v-79q-10 -115 35 -115q49 40 49 115v79q0 45 -45 45q-39 0 -39 -45zM681 389l42 -34q122 -50 122 -94l-60 -103
q-30 -77 -73 -37q-78 60 -78 40q-26 -33 -21 -81l-16 -32h5q-38 -45 -150 -45q-19 -21 -19 -9h-84q0 22 -97 22q-102 28 -102 199v19q-34 383 40 412v7q17 50 55 62q-12 21 -12 34q0 33 -58 78q-19 80 -19 161v154q-20 299 63 299q7 19 39 19v7h-116v6l58 20l97 -7l39 13
l35 -3l58 7l147 -20v-6h-32v-7q112 -29 112 -186l-9 -71l2 -294q-22 -88 -106 -153q-20 6 -20 5l29 -19q76 -27 63 -116q28 85 67 87l85 -47q79 -26 41 -71q-36 -88 -127 -216z" />
    <glyph glyph-name="quotesingle" unicode="'" horiz-adv-x="490" 
d="M221 1451l6 -7h7l59 7h6q66 0 66 -78v-14l-7 -222l7 -26q0 -118 -40 -118h-170l-65 20v13l20 98v33l-7 78q8 128 20 144l-7 59l7 6h39zM502 -104h7v-7q0 -29 -72 -79h-7q-26 12 -26 46z" />
    <glyph glyph-name="parenleft" unicode="(" horiz-adv-x="553" 
d="M315 1797l72 -7l85 7q26 0 26 -248q0 -71 -20 -71l-39 13q-47 0 -59 -79l7 -423l-7 -78l13 -85l-6 -150l6 -124l-6 -137q5 -130 13 -130l-7 -33v-72l7 -39l-13 -84q16 -56 52 -72h6q28 0 53 33l6 -33v-143l20 -98q-13 -78 -92 -78q-31 -20 -84 -20h-13q-83 0 -157 111
q-32 72 -58 228l6 98l-13 91l7 137l-7 143l7 111l-13 254l6 33l-6 72l6 71l-6 52l6 98l-6 176l-7 7v6q36 372 65 372q54 91 150 91z" />
    <glyph glyph-name="parenright" unicode=")" horiz-adv-x="540" 
d="M233 1838q137 -46 137 -104q42 -41 65 -260l-7 -72l13 -71l-6 -267v-188l-7 -150l7 -130v-33l-7 -71l20 -46l-7 -84l7 -202q-20 -370 -59 -370q-21 -58 -117 -97q-45 -10 -45 -40h-13q-23 27 -46 27h-6l-85 -13q-19 24 -19 45l6 299l59 -13q45 0 52 117l-7 32l7 26
l-7 156v156l-6 7l13 78l-13 104l6 228l-6 19l6 39v111q0 130 -13 130l7 32v33l-7 78l7 78q0 55 -46 78h-6q-26 0 -52 -33h-7v78q0 134 -19 202q23 78 104 78q0 11 97 13zM71 934l32 -39q-8 -26 -32 -39h-13v65zM-105 850h20v-33l-13 -13h-7l-6 26zM71 726q26 -21 39 -91
l-33 -52v-20l7 -6v-7l6 7h7q26 -10 26 -20q-3 -19 -46 -19v-85l-6 -45h-7q-14 0 -19 58l13 72q0 16 -72 52l-6 19q71 49 71 85q7 52 20 52zM-560 693h13v-26h-13v26zM51 316h7q21 0 26 -84v-7l-7 -32h-19l-7 78v45z" />
    <glyph glyph-name="asterisk" unicode="*" horiz-adv-x="1089" 
d="M963 1286l15 -13q35 -99 18 -119l-279 -52l-22 -16l-3 -4q-20 -23 177 -223v-9q25 -22 12 -46l-96 -71l-20 17l-160 243l-10 8l-18 -1l-198 -278q-31 2 -57 25l-25 21q-37 33 -26 58l205 227l-6 22q-52 22 -310 71l-9 8q-1 90 36 133l313 -107l17 9q17 19 -5 342l13 15
q38 9 110 -2l5 -4q26 -23 8 -101l-17 -228l19 -17q38 2 290 94z" />
    <glyph glyph-name="plus" unicode="+" horiz-adv-x="840" 
d="M358 1089h7q23 -39 144 -39h26q19 0 33 -144v-7l-7 -26q8 -52 46 -52q79 5 79 13q32 -8 32 -20v-13q18 -36 18 -154q-13 -35 -175 -36l-7 -45q10 -76 -3 -124h-7q-21 0 -45 -10q-87 -19 -161 16q-13 51 -13 85l14 39q-12 59 -40 59q-157 0 -157 33l-6 39l6 39l-6 66v6
l19 20h144q33 13 33 72q0 68 -33 144q23 39 59 39zM110 1037q32 -20 91 -27l7 -45v-13q0 -35 -20 -40h-13q-24 40 -65 40l-20 26v39zM267 533l13 -13l-26 -26l-7 6v13zM365 258h6l20 -85q-18 -44 -39 -52h-13l-14 13q14 124 40 124z" />
    <glyph glyph-name="comma" unicode="," horiz-adv-x="590" 
d="M1328 -38h26q13 0 19 -52h7l51 13l7 -6v-26q-7 -26 -65 -26q-64 14 -64 32v45zM1179 -64l7 -6v-39l-20 -20l-51 13h-20l-32 -6q0 35 32 52h39zM301 328l116 -7h20l19 -12l6 -207v-110l-19 -77v-6l6 -59q0 -50 -64 -77l-7 6h-58l-26 -6q-25 6 -25 32l32 155q-13 29 -26 32
h-58q-91 0 -91 39l-6 239q0 45 65 45l38 -6zM501 -124h26l6 -45v-6q0 -72 -19 -72h-13l-6 20z" />
    <glyph glyph-name="hyphen" unicode="-" horiz-adv-x="687" 
d="M213 804l143 -13l117 6l137 -6q20 -25 20 -59q0 -188 -46 -188q-31 19 -338 19l-111 -6q-65 0 -65 136h7l-7 7v52q0 45 46 45h6l26 -6z" />
    <glyph glyph-name="hyphen" unicode="&#xad;" horiz-adv-x="687" 
d="M213 804l143 -13l117 6l137 -6q20 -25 20 -59q0 -188 -46 -188q-31 19 -338 19l-111 -6q-65 0 -65 136h7l-7 7v52q0 45 46 45h6l26 -6z" />
    <glyph glyph-name="period" unicode="." horiz-adv-x="590" 
d="M233 8q-103 0 -103 71v174q0 84 32 84l167 -7h46q54 0 77 -19l-7 -122l7 -39q-13 -39 -13 -116q0 -26 -19 -26h-187zM565 426q-15 9 -17 17v38l7 34l20 -21h6q40 21 59 21l13 -4q-18 -26 -55 -26v-8l6 -9l23 5q0 -13 30 -13l3 -4v-4q-11 -14 -39 -22l-27 9zM709 464
q-13 0 -33 34l-13 13v4l27 4l29 -29h7l6 8l-3 17l13 8l26 -4l14 4l6 -16q0 -26 -79 -43zM739 549q-20 4 -20 12l3 5h37l16 -5q0 -12 -36 -12z" />
    <glyph glyph-name="slash" unicode="/" horiz-adv-x="353" 
d="M338 1500h7l13 -13l-20 -78l13 -65q0 -98 -104 -886q-52 -449 -98 -449l-78 -7h-45q-35 0 -46 26q26 280 124 984q26 236 65 436q0 36 32 45l79 -6zM0 -127h19l20 -20l-7 -7h-52v7z" />
    <glyph glyph-name="zero" unicode="0" horiz-adv-x="813" 
d="M354 1521l45 -6h109q161 0 185 -97q26 -62 26 -237l-6 -44l19 -103l-7 -64l7 -276l-7 -282l7 -51l-7 -128l7 -71q0 -152 -186 -179l-83 7h-13l-32 -7q-269 19 -269 77q-39 85 -39 378l-6 45l6 90l-6 153l6 129l-6 83l6 64l-6 205v70q0 154 96 206zM854 1374h6l13 -13v-13
h-7l-12 13v13zM360 1175v-26l7 -32l-7 -38v-58l13 -90l-6 -32l12 -70l-6 -19l6 -410v-129q8 -57 58 -57q27 9 38 32v115l-6 32l6 39v25l-12 180l12 121l-12 161l6 198v84q0 49 -38 70h-32q-32 0 -39 -96zM-24 496v-20l-13 -12h-13v25zM-18 291h6l20 -20v-32h-26l-13 13v26z
" />
    <glyph glyph-name="one" unicode="1" horiz-adv-x="686" 
d="M454 1489q33 -11 32 -47l-4 -162l-8 -26l10 -98l-7 -52l11 -72l-8 -26l9 -176l-9 -78l8 -417l-14 -58l6 -33l-1 -13q-3 -135 14 -196q-1 -45 -235 -39q-59 8 -58 47l5 410l9 111q0 280 -10 312l6 26l-1 157l3 143q1 36 -24 47l-72 2q-26 9 -25 59l4 137q1 39 34 38z" />
    <glyph glyph-name="two" unicode="2" horiz-adv-x="737" 
d="M202 1709l39 -39h13q24 0 58 32h7q30 -45 97 -58l7 -7v-6l-13 -13h-39l-7 6l-6 -6h-72l-78 6l-78 -6h-6q-78 0 -78 26q73 52 97 52zM455 1533q143 -27 143 -65q33 0 46 -201q0 -250 -169 -709l-85 -279q10 -33 46 -33h58l33 7l39 -7h32l7 7q45 0 45 -195q0 -52 -91 -52
l-156 -7l-58 7l-182 -7l-78 26l-176 -13l-39 7v26l169 19h78q20 0 20 39h6l-6 7v13q0 187 136 559q112 327 150 546q-13 65 -59 65q-39 0 -39 -143l-26 -20h-6l-130 -6q-72 0 -72 91v19l13 150l-6 45q66 98 247 98zM-97 493h26v-13l-13 -13l-13 13v13zM-45 214h13l19 -20v-6
l-6 -33h-20l-26 26v13z" />
    <glyph glyph-name="three" unicode="3" horiz-adv-x="770" 
d="M585 1512q17 0 26 -59q33 0 59 -221v-46l-6 -85l6 -91v-19q0 -105 -72 -183v-19q85 -82 85 -307q0 -436 -65 -436q0 -30 -104 -52h-13l-170 -7q-150 28 -150 59q-84 93 -84 110l-7 242l7 156l6 7h7q0 -14 39 -27l182 13q39 -9 39 -78l13 -208h33q1 26 13 26l-7 176v111
q0 65 -52 91h-65q-85 0 -85 58l-13 150q7 52 39 52l85 27l39 -7h7q45 31 45 78l-6 78l6 92q0 26 -32 39q-33 -12 -33 -59q0 -46 13 -46q0 -45 -91 -45h-117q-52 0 -52 52v39q0 280 71 280q0 44 300 52l46 -13z" />
    <glyph glyph-name="four" unicode="4" horiz-adv-x="720" 
d="M476 1542q84 0 84 -58l7 -72v-130l-7 -156l7 -45l-7 -266v-46q0 -117 39 -117q65 0 65 -52l7 -45v-46q0 -110 -72 -110q-39 0 -39 -130l7 -110q0 -137 -58 -137h-117q-33 0 -33 143l7 156q-13 98 -65 98l-91 -7h-33l-6 -6h-7q0 25 -52 32l13 19v20q0 24 -78 32l-13 20v6
q12 124 46 124l52 -20q45 7 45 20v6l-78 33l-6 6v13q52 125 65 189q19 14 19 45v39l-13 19q0 10 52 39q65 171 65 208l-6 20q11 0 32 39l-13 26q41 0 78 149q29 52 104 52zM216 652v-6l13 -13q130 0 130 65l7 91l-7 149h-13q-29 0 -97 -273zM-18 373q46 -2 46 -13
q0 -16 -59 -65v13zM-50 185h6q20 0 20 -26l-7 -20q-19 7 -19 39v7z" />
    <glyph glyph-name="five" unicode="5" horiz-adv-x="823" 
d="M163 1491l248 -13l44 7l83 -7h64q51 0 51 -51v-159q0 -51 -83 -51h-13l-127 7q-57 0 -70 -45q11 -44 25 -44q10 27 32 38h13l13 -13q-77 -59 -77 -89v-25l19 -19q207 0 242 -32q57 -108 70 -108l19 12h7l6 -32v-38q0 -27 -45 -76v-26q45 0 45 -44l-6 -38l12 -70l-12 -509
h6l-6 -19l6 -77l-13 -57h-12l-51 51q0 27 44 64l7 101l-26 19q-11 0 -38 -76q-53 -56 -178 -89q-344 16 -344 115l-13 76l13 165l-6 32l6 108q0 38 217 38q19 -25 19 -70l-7 -31q7 -134 32 -134h6q20 6 20 38l6 147l-6 63q12 57 19 236q0 30 -58 38q-17 0 -57 -64h-172
q-57 0 -57 32l13 197l-7 102l19 255l-6 108q0 57 64 57zM754 1446q13 0 13 -19l-13 -159l7 -127q-5 -134 -32 -134l-13 90q13 17 26 299q12 0 12 50z" />
    <glyph glyph-name="six" unicode="6" horiz-adv-x="743" 
d="M63 1647l39 -2q51 -2 55 -73l-20 -25l-26 1q-39 1 -37 53l-19 7l-39 -11l-6 7v6q2 39 53 37zM288 1632l52 -9l52 5l6 -7q-17 -58 -106 -54q-25 7 -24 40zM477 1495q143 -5 178 -71l28 -104l-11 -110l8 -148q-7 -45 -34 -44l-103 17l-7 -6h-6q-84 3 -82 61q8 187 -25 188
l-32 1q-24 1 -36 -89l4 -71l-21 -38l28 -123l13 -1v-6l56 -26l58 -12q89 -4 140 -57l-1 -26l-32 -5q2 0 -14 2q31 -32 44 -60q19 -125 24 -375l-9 -52l3 -96q-7 -200 -73 -236q-53 -24 -227 -30l-7 -6l-83 16l-58 -4q-88 59 -85 132q-29 77 -24 207l-2 155l-8 110
q12 146 26 173l-10 78l8 58l-22 78l14 -1l1 13q12 37 17 161l16 70l-12 39q7 178 106 229q58 2 58 10l7 -6l32 -2zM326 591q-14 -373 24 -375h13q45 -2 47 43l1 19q14 361 -31 363l-20 1q-16 0 -34 -51z" />
    <glyph glyph-name="seven" unicode="7" horiz-adv-x="743" 
d="M655 1513q20 0 20 -84h6l-6 -33v-39q0 -130 -78 -630q-26 -330 -104 -663q0 -19 -46 -71q-39 32 -58 32h-46l-39 -6q-78 8 -78 39l163 1169q0 33 -39 33h-195q-50 0 -59 26v52l-6 123q0 52 442 52h123zM870 701l6 -7v-6l-13 -13l-6 6v7z" />
    <glyph glyph-name="eight" unicode="8" horiz-adv-x="770" 
d="M301 1490h111q86 0 209 -46q32 -73 52 -221l-7 -65l7 -26l-7 -39l7 -111q0 -107 -72 -189v-26q78 -91 78 -287v-299q-27 -222 -221 -222l-26 7l-59 -7h-26q-202 18 -202 111q-13 0 -13 33q-45 14 -45 52l-7 71v144l33 137q0 179 71 260v26q-57 0 -65 111q-13 32 -13 117
v176l7 137l-13 32h6q104 124 195 124zM367 1203l-7 -32v-13l13 -52l-13 -52v-13q0 -98 39 -98q20 23 20 78l-13 46l6 97q-6 39 -19 39h-26zM367 585v-189l6 -39l-6 -33v-39l13 -46h26q9 0 19 27l-6 234v85q0 34 -20 39h-13q-19 -7 -19 -39z" />
    <glyph glyph-name="nine" unicode="9" horiz-adv-x="747" 
d="M373 1499q220 0 220 -69q63 -32 63 -434v-45l-6 -251l6 -32l-6 -75v-25l50 -51v-6h-6l-63 6l-6 -6v-6q19 -37 25 -252q-19 -208 -75 -208q0 -38 -246 -50q-162 0 -201 75q-38 77 -38 347q8 44 31 44q196 0 196 -38q6 -208 37 -208h25q26 8 26 57v157q0 107 -26 107
l-113 -6q-138 23 -138 56v19q38 5 38 13l138 -13q-80 71 -170 95q-25 55 -38 220l7 19l-7 195v126q0 195 82 195q0 19 195 44zM323 1197q17 -353 31 -353l7 -6h25q25 11 25 44v32l-6 308q0 19 -38 38q-44 -10 -44 -63zM650 -37h25q13 0 19 -49h6l51 12l6 -6v-25
q-6 -26 -63 -26q-63 15 -63 32v44zM505 -61l7 -7v-37l-19 -19l-51 12h-18l-32 -6q0 35 32 50h37z" />
    <glyph glyph-name="colon" unicode=":" horiz-adv-x="587" 
d="M309 922l59 -7h46q26 -8 26 -58v-236l-13 -13l-255 -13q-39 0 -39 46l-6 202q0 66 91 66q56 0 91 13zM349 314h45q66 0 66 -46l-7 -58l7 -170q-28 -39 -177 -39h-104q-52 0 -52 65v104l-7 72q0 59 91 59zM506 20h6l13 -13v-97l-13 -14h-20v111z" />
    <glyph glyph-name="semicolon" unicode=";" horiz-adv-x="590" 
d="M195 932h226q26 -10 26 -46v-110l7 -135q0 -33 -182 -33l-116 -6l-20 32l-6 97l6 45l-6 110q0 46 65 46zM311 343l117 -7h19l19 -13l7 -207v-110l-19 -77v-6l6 -58q0 -51 -65 -78l-6 6h-58l-26 -6q-26 6 -26 32l32 156q-13 28 -26 31h-58q-91 0 -91 39l-6 240q0 45 65 45
l39 -7zM512 -110h26l6 -45v-6q0 -72 -19 -72h-13l-7 20z" />
    <glyph glyph-name="semicolon" unicode="&#x37e;" horiz-adv-x="590" 
d="M195 932h226q26 -10 26 -46v-110l7 -135q0 -33 -182 -33l-116 -6l-20 32l-6 97l6 45l-6 110q0 46 65 46zM311 343l117 -7h19l19 -13l7 -207v-110l-19 -77v-6l6 -58q0 -51 -65 -78l-6 6h-58l-26 -6q-26 6 -26 32l32 156q-13 28 -26 31h-58q-91 0 -91 39l-6 240q0 45 65 45
l39 -7zM512 -110h26l6 -45v-6q0 -72 -19 -72h-13l-7 20z" />
    <glyph glyph-name="less" unicode="&#x3c;" horiz-adv-x="1083" 
d="M942 1022h20q18 0 26 -46l-7 -162q0 -32 -233 -32q-272 -13 -272 -39v-6q65 -20 149 -20h45q75 -26 188 -26l33 7q97 -8 97 -33l6 -149q-6 -58 -26 -58q-782 110 -836 129l-32 91v13q19 20 26 110l-13 52q0 84 110 84h71q81 26 266 39q0 10 58 13v7l46 -7h19z" />
    <glyph glyph-name="equal" unicode="=" horiz-adv-x="777" 
d="M142 995h487q52 0 52 -91v-52q0 -34 -26 -45h-71l-214 6l-65 -6q-189 0 -189 39l-6 58v20q10 71 32 71zM155 710l33 -7l104 7l357 -20l19 -19l-6 -143l-33 -20l-396 13l-52 -6q-58 0 -58 91l-7 39q12 65 39 65z" />
    <glyph glyph-name="greater" unicode="&#x3e;" horiz-adv-x="1090" 
d="M139 1029l823 -117q21 -18 45 -105l-13 -58v-98q0 -98 -65 -98q-377 -46 -444 -66l-65 7l-281 -39q-32 14 -32 65v91q0 85 58 85q395 0 451 46q-74 33 -222 33q0 11 -46 13h-170q-71 0 -71 72v45l-7 7l7 6v52q0 59 32 59z" />
    <glyph glyph-name="question" unicode="?" horiz-adv-x="710" 
d="M348 1511q246 -10 246 -65q33 0 59 -194l-13 -207l13 -84q0 -112 -78 -195q-58 -51 -116 -51q-39 -52 -39 -78v-33q0 -155 -26 -155l-26 -6l-168 6l-39 19l6 143l-6 84q26 181 64 181q0 31 143 52q23 25 32 65l-19 110l13 97q-7 26 -39 26q-39 0 -39 -32l19 -91
q-12 -39 -71 -39h-142q-44 0 -52 58l19 149l-19 65q36 130 71 130h13l39 -39h7q29 13 45 71h52zM206 307l58 -7l143 7q14 0 26 -156l-7 -52v-51q0 -52 -91 -52h-103q-50 0 -65 32v246q13 25 39 33z" />
    <glyph glyph-name="at" unicode="@" horiz-adv-x="1137" 
d="M909 1775q21 -6 26 -26l-7 -6h-39v13l-6 6l6 7zM2 1568q52 -7 52 -20q-45 0 -45 -19l-13 -32l-26 13q0 51 32 51v7zM682 1516h20l45 -19l-6 -7v-6l-20 13l-32 -7h-20v13zM1129 1464h13l13 -13l-6 -6h-20v19zM572 1380q209 0 330 -110q195 -130 195 -479q0 -138 -91 -305
q-162 -168 -252 -168h-39q-29 0 -104 58h-13q-66 -58 -116 -58h-52q-71 0 -149 97q-41 41 -65 240q11 179 84 324q122 168 214 168q73 0 155 -65q51 39 72 39h77q20 0 20 -26l-78 -615l19 -13h7q79 0 175 188l13 58q0 259 -39 337q-123 194 -317 194h-52q-127 -6 -220 -71
q-195 -172 -195 -447v-32q0 -337 233 -467l149 -45q253 0 402 130l6 6h7q55 0 84 -84q-110 -99 -233 -149q-101 -32 -201 -45q-150 0 -337 116q-239 219 -239 531v7q0 461 369 647q89 39 181 39zM410 622v-6q10 -97 72 -97h6q86 0 117 330q-23 91 -65 91q-130 0 -130 -318z
" />
    <glyph glyph-name="A" unicode="A" horiz-adv-x="830" 
d="M217 1499h13q27 0 65 -32h19l20 26l6 6h59q156 0 156 -26q26 -266 71 -507q18 -162 52 -162q26 -3 26 -19l-52 -33q28 0 104 -584q18 0 32 -111q0 -51 -156 -51l-26 -7q-110 0 -110 45q0 247 -71 247h-65q-36 0 -52 -260q0 -33 -65 -38h-150q-48 0 -58 32l6 6v7
q52 662 91 779q39 676 59 676zM360 1012l-13 -182q0 -32 32 -32q20 5 26 26q-16 188 -39 188h-6zM347 551q14 -33 65 -33h6q28 0 39 26q-44 111 -65 111h-13q-26 -8 -32 -104z" />
    <glyph glyph-name="B" unicode="B" horiz-adv-x="873" 
d="M544 1513h13q26 -33 138 -50q101 -67 101 -190v-50l13 -51l-13 -50v-57q0 -189 -88 -253v-18q88 -111 88 -234v-252q0 -193 -75 -259q-70 -44 -196 -44v6l-6 -6h-38l-82 -13l-44 19l-7 -6h-139q-63 0 -63 50l7 126l-7 95l7 133l-7 176l7 32l-13 189l6 89l-6 63l13 75
l-13 133l13 101l-13 63l6 38v19l-6 57q0 25 32 37l37 -6q299 19 335 38zM437 1191v-12q0 -35 31 -51h13q16 0 25 51v6q0 38 -38 50q-31 -9 -31 -44zM430 1071q3 -120 38 -120q32 10 32 44v76l-32 32h-19q-14 0 -19 -32zM788 530h12l4 -56q0 -160 -24 -160h-4l-12 36l16 168
q8 0 8 12zM437 604l-7 -183l13 -63l-6 -38v-19q0 -38 31 -38q38 13 38 51v63l-13 221l7 25q-8 38 -19 38h-19q-25 -8 -25 -57zM932 -14v-20q19 -19 28 -48l12 -4l20 4h32l24 28l48 -32l72 4l4 -4v-16q-8 -16 -24 -16l-60 4l-20 -4l-28 4l-36 -4l-52 4l-60 -28h-8
q-16 0 -32 20q-9 8 -76 12q-12 15 -12 36l8 8q21 -16 36 -16h12q6 0 20 36l12 4q14 0 24 -36l4 -4h20q5 68 28 68h4zM216 -102v-12l-20 -4l-8 12l4 4h24z" />
    <glyph glyph-name="C" unicode="C" horiz-adv-x="833" 
d="M307 1498l90 -6h187q91 0 135 -129q19 -105 19 -258v-64q0 -26 -122 -32l-7 -7h-6l-58 7l-71 -32q-16 0 -19 25q0 232 -26 232h-19q-32 0 -32 -161l13 -270v-45l45 -129l-33 -45l13 -90l-6 -123q11 -103 39 -103q38 13 38 52v13l-6 225q0 64 96 64h129q58 0 58 -57l6 -71
q-12 -52 -12 -129l6 -180q-31 -187 -155 -187l-77 6h-148q-219 0 -219 78q-27 0 -38 225v84l13 71q-52 101 -52 167l13 296l-13 58l6 51l-6 219q0 158 90 213q27 19 129 32zM12 826h12v-8h-12v8zM822 1144l13 -13v-13l-13 13v13zM24 510h12l4 -56q0 -160 -24 -160h-4l-12 36
l16 168q8 0 8 12zM168 -34v-20q19 -19 28 -48l12 -4l20 4h32l24 28l48 -32l72 4l4 -4v-16q-8 -16 -24 -16l-60 4l-20 -4l-28 4l-36 -4l-52 4l-60 -28h-8q-16 0 -32 20q-9 8 -76 12q-12 15 -12 36l8 8q21 -16 36 -16h12q6 0 20 36l12 4q14 0 24 -36l4 -4h20q5 68 28 68h4z
" />
    <glyph glyph-name="D" unicode="D" horiz-adv-x="982" 
d="M556 1492q228 -7 260 -78q60 -125 58 -194l10 -281l-15 -64l11 -89l-1 -25l-8 -39l28 -128l-1 -39l-39 -37v-6l18 -20l19 -1l40 25h19l18 -20v-13q-83 3 -85 -42q-10 -346 -75 -387q-59 -56 -200 -52l-89 9l-90 -10l-159 11l-38 1q-64 2 -61 79l-6 64l17 121l-1 166
q-7 45 -43 46v19q38 -1 39 44l1 32l-6 408l9 77l-18 282l4 115q1 32 231 25zM484 1245l12 -671q-1 -29 -47 -88q44 -11 42 -77l5 -84l-2 -45q-1 -38 37 -39t43 165l2 63q-12 26 -37 27v13q33 32 34 56q0 690 -18 691l-38 14h-6zM1035 870v-6l3 -96l-6 -6l-6 1l-18 19l13 58
l-5 25l6 6zM53 557l12 -1l-1 -16l-12 13zM67 364l15 -12v-4q0 -6 -16 -12q-16 5 -16 21zM207 -40l3 -4v-8q-46 2 -54 -62h-8l-15 17l1 24q1 32 17 31l27 -5zM442 -59h4q24 -3 24 -13l-13 -11h-12l-11 13v4zM353 -88h12q36 -22 35 -49l4 -1q9 0 17 36h4q52 -6 51 -26
q-24 1 -32 -7l3 -20v-8h-4l-44 6q0 -9 -20 -12q-67 2 -76 22l-8 1q0 -12 -8 -12q-52 1 -51 37l-20 9l1 8l12 12h4q0 -17 47 -34h16zM196 -115h4q8 -1 15 -41l-4 -4h-4l-12 13zM147 -170h16q-1 -21 30 -49q0 -8 -12 -8q-10 0 -35 33z" />
    <glyph glyph-name="E" unicode="E" horiz-adv-x="713" 
d="M305 1492l179 -19l90 13q57 0 57 -103l19 -108v-7l-12 -12l-128 19q-32 -10 -32 -45v-147l-6 -90q12 -28 25 -31h32l90 12q16 0 38 -38l-7 -64v-70q0 -47 -19 -51h-153l-6 -32v-109l12 -51l-32 -281v-26q0 -30 147 -38l13 -26l-6 -179l-32 -19l-83 13h-19l-26 -6l-45 12
l-64 -6l-83 19l-89 -6q-16 0 -19 25l6 51l-6 83l25 339l-51 64l45 32l6 26q0 27 -32 76q39 16 39 71v19l-7 191l7 71l-7 102l13 217l-6 83l19 13h25q55 0 83 13zM428 642h8v-8l-8 -8v16z" />
    <glyph glyph-name="F" unicode="F" horiz-adv-x="647" 
d="M196 1492l77 -9l51 13q143 0 143 -45q-19 -7 -19 -49v-6q0 -21 43 -45l68 -58q-17 -21 -145 -32l-6 -38l12 -84l-12 -141q0 -70 64 -70h83l19 -19v-186q0 -50 -25 -58h-20l-77 19q-44 0 -44 -77l-7 -45l13 -154l-6 -38v-77l-13 -109l6 -51l-6 -64l6 -65l-6 -6l-64 6
l-58 -6l-90 6h-32q-13 0 -45 71l-6 -6h-26l-32 6v6q0 13 19 13l45 -13q19 34 19 154v39l7 38l-13 58l32 96l-6 90l12 231l-12 64l6 70l-6 32l6 45l-13 84l19 365l-6 7v6q10 32 45 32zM498 1486h18q61 0 66 -33l-6 -121h-6l-97 68v9q0 66 25 77zM311 1306v-13h32v26h-19z
M29 1203l13 -12l-13 -13l-19 19l6 6h13zM715 716h13l7 -26q-10 -25 -20 -25l-13 19v19zM42 601l19 -20v-25h-25l-7 32z" />
    <glyph glyph-name="G" unicode="G" horiz-adv-x="883" 
d="M425 1489q246 0 302 -58q71 -47 71 -296q0 -142 -51 -142l-187 13q-13 15 -13 45h-6l12 129q0 43 -51 77h-7q-102 0 -102 -109l6 -39l-19 -206l6 -128l-13 -142v-64l7 -20l-7 -32v-187q0 -103 77 -103q55 0 65 161h6l-6 33v83q0 52 -71 52q-19 29 -19 58q0 154 45 154
l148 -6l64 13q97 0 97 -78l-7 -77l7 -116l-7 -135l7 -26q-41 -247 -90 -302q-31 -45 -129 -64l-45 -7h-26q-222 0 -264 45q-93 0 -135 264l13 187l-13 90l6 103l-6 64l6 109l-6 194q31 0 51 347q71 116 284 116z" />
    <glyph glyph-name="H" unicode="H" horiz-adv-x="923" 
d="M208 1511h6l103 -13h70q51 0 51 -108v-448l26 -25h19q25 11 25 44v473q0 42 26 58l45 -7h51l38 7q122 -11 122 -58l6 -96l-13 -76l7 -103v-19l-7 -140l7 -52l-13 -89l6 -51l-13 -64l7 -96v-6l-13 -58q13 0 26 -45l-7 -96l7 -44l-7 -64q13 -34 19 -166q13 0 13 -71l-6 -38
l6 -6v-7q0 -25 -32 -38l-115 13l-102 -7q-38 0 -38 58v19l6 57l-26 179l7 58l-7 153q0 45 13 45q0 34 -64 38q-57 -12 -57 -32q32 0 38 -95v-128l-6 -154q17 -33 32 -172v-19q-10 -26 -45 -26l-173 19l-64 -12q-19 0 -32 325l-6 7l6 70v38l-6 103q29 64 102 64l19 25v32
l-25 26h-26l-57 -51v6l6 6l-13 77l13 70l-13 58l7 313v275q0 64 51 64zM132 856l4 -4v-12l-12 -12h-8v24zM108 728h4l8 -8q-4 -32 -12 -32t-8 12zM492 364l4 -12h12l16 16l-4 4h-20zM712 -36l4 -4v-12l-48 -12h-4v4q0 13 48 24zM232 -172h12v-4l-8 -8h-4v12z" />
    <glyph glyph-name="I" unicode="I" horiz-adv-x="610" 
d="M357 1495q83 0 83 -147l13 -281l-7 -57l13 -160q0 -40 -19 -76l6 -262l-19 -102l19 -236q0 -173 -38 -173l-128 -19l-63 7l-7 -7h-6q-30 0 -45 77l7 19l-26 664l32 44v205l-19 204v166l-7 57q0 71 71 71z" />
    <glyph glyph-name="J" unicode="J" horiz-adv-x="813" 
d="M302 996q17 -5 24 -20l-4 -4h-16l-20 4v8q0 10 16 12zM130 992l8 -8l-4 -4h-12v4zM178 988h16l12 -12l-12 -8h-8l-8 8v12zM54 940l4 -4v-8h-12v4zM401 1485l211 -6q20 -36 20 -71l-7 -109l26 -409l-7 -115v-276l7 -64q-13 -363 -90 -384q-13 -27 -134 -76l-7 -7l-44 20
h-39q-219 0 -269 134q-38 129 -38 320q0 160 64 160h96q96 0 96 -45l-6 -45l12 -115l-6 -71v-38q0 -54 38 -77h13q39 18 39 154q-4 83 -13 83l6 109v736l-6 38q13 154 38 154zM234 -72l44 -16v-8q-1 -11 -36 -28q-8 -36 -40 -36l-12 12q6 22 40 56zM50 -92h8q54 0 72 -32
v-12l-24 -4q-72 3 -72 20v12z" />
    <glyph glyph-name="K" unicode="K" horiz-adv-x="932" 
d="M420 994h8v-4q-2 -8 -20 -16v4q6 16 12 16zM408 974v-8q-8 -84 -24 -84l-8 28q0 64 32 64zM214 1503h6q28 0 49 -25l-12 -55v-6h12q0 26 31 49l-12 12q0 10 24 19l142 -6l12 -19v-12l-12 -74q0 -60 25 -92q-17 -20 -31 -160q12 -56 25 -56q24 25 98 320q17 87 62 87
l203 -7q37 -6 37 -18v-6q-17 -68 -68 -185l-62 -216v-24h25l-37 -68l6 -37l-37 -129q25 -129 37 -148l-6 -55q0 -31 12 -31l-18 -37q0 -65 43 -228v-6l-6 -74q23 0 62 -216l-7 -5l-18 -6v-7l-6 7h-19l-86 6l-55 -6q-99 0 -99 61q-25 81 -49 326q-11 0 -19 99l-24 30h-6
l-13 -67v-50l6 -24l-6 -25v-43l13 -49q-16 -22 -31 -111l6 -68v-43l-19 -18h-36q-124 3 -124 30l19 25l-43 6l6 -31q-26 -24 -49 -24h-7q-13 0 -18 31l6 86l-6 74l25 301q0 50 -25 124v18l12 12l25 -24v37l18 117v117l-6 67l13 25h-7l-37 -31l-6 6v25q31 68 31 111l6 74
l-6 49l6 25l-6 61l12 117l-6 6v7q8 55 25 55zM284 858v-40h4l4 20l-4 20h-4zM616 822v-4l-8 -20h-4v8zM580 170h4l8 -28q-12 4 -12 24v4zM360 78h4l8 -80l-4 -12q-20 0 -24 16l4 24l-4 32q8 18 16 20zM372 -34h8l12 -12v-8h-8l-12 12v8z" />
    <glyph glyph-name="L" unicode="L" horiz-adv-x="730" 
d="M442 1501q22 0 32 -128v-12l-13 -166l6 -160l-6 -32q13 -57 13 -153v-108q0 -44 83 -64v-26q0 -13 -64 -32q-32 -38 -32 -57l6 -147q0 -40 -31 -134q12 -57 63 -57l154 12l19 -19l6 -185v-19q0 -27 -211 -32l-191 7h-96q-38 0 -38 38v121l-6 57l12 58l-6 32l-6 255l6 38
q0 26 -32 39l38 95v192l-6 57l6 39l-6 76l6 58l-6 274v6l-6 7q0 51 57 51v6l77 -6h108z" />
    <glyph glyph-name="M" unicode="M" horiz-adv-x="1167" 
d="M962 1498q51 0 51 -89l6 -726l-13 -166l7 -89l-7 -172v-204q0 -70 -102 -70h-12q-141 0 -141 45l-6 63v58l6 121l-12 38l12 57l-19 26h-6l-13 -13v-13l7 -57q-19 -53 -39 -274l-12 -32l-32 -12l-64 6h-51q-51 0 -51 121q-20 344 -44 344l-13 -89l6 -287h7
q-12 -95 -32 -95l-140 -7q-109 0 -109 45l-6 31q13 58 13 153v242l-7 535l7 172l-7 7v6l7 38v160q0 114 32 114h159l38 7l32 -7h38l26 7q70 0 70 -160q12 -242 38 -350q21 0 51 478q19 32 64 32h191z" />
    <glyph glyph-name="N" unicode="N" horiz-adv-x="960" 
d="M380 1523l6 -6l-12 -26l83 -19l51 -288l13 -12q38 12 38 25v26q0 255 32 255l102 -6l83 13q21 0 38 -20v-12h-6l13 -352l-13 -108l6 -83l-6 -166v-20l19 -64l-19 -38v-77l6 -51l-12 -95l12 -365q-8 -32 -19 -32h-108l-90 -6q-51 0 -51 134q-32 31 -96 352l-25 32l-13 -52
l6 -249l-6 -198l-19 -13h-51l-32 -6l-39 6h-44l-26 -6q-32 0 -32 58v38l-6 6l13 51q-20 59 -20 109v121l7 192l-7 115l7 153l-13 90l6 57v71l13 159l-13 160q0 128 58 128l45 13h19q33 -32 57 -32q26 0 26 32zM521 1108l12 -77h20l6 45v13l-6 31h-20zM1191 807l7 -6v-26
l6 -89l-13 -141q13 -31 39 -31v-32q-16 -32 -51 -32h-20l-19 83l13 38l6 166l-6 7v6q16 49 38 57z" />
    <glyph glyph-name="O" unicode="O" horiz-adv-x="933" 
d="M146 1640h24q12 0 47 -60l-6 -18h-12l-53 72v6zM570 1568h6l12 -12q0 -15 -48 -23l-6 5v6zM241 1509q47 -32 104 -32l161 32q175 -5 175 -51q58 0 109 -91l-6 -45l26 -194l-7 -58v-19l7 -91l-20 -38q0 -18 33 -33l-7 -58l20 -400l-7 -84l7 -84q-25 -207 -71 -207
q0 -21 -78 -45l-232 -7v7l-65 -13q-142 13 -194 52q-63 42 -84 155l-6 45v45l-7 162l7 129l-7 51l7 84v13q0 141 -20 188l7 161l-7 123l7 97l-13 51q32 49 32 71l-6 33q21 0 123 51h12zM384 1135l12 -97l-6 -39v-6q0 -50 84 -65q32 11 32 39q0 290 -45 290h-19
q-58 0 -58 -122zM396 844l20 -316l-7 -110l13 -65l-6 -71q0 -34 45 -64h19q26 0 52 90l-13 517l7 51l-7 7h-32q-71 0 -91 -39z" />
    <glyph glyph-name="P" unicode="P" horiz-adv-x="873" 
d="M281 1502h13v-6l141 6h109q179 0 211 -83q32 -90 32 -161l-6 -89l13 -225l-7 -51l7 -6l-52 -282q-68 -116 -166 -116h-13q-32 0 -112 173l80 33l6 6l-6 6v7q0 46 64 83v19h-32l-26 -19h-6q-19 5 -19 51v193l6 89l-6 52l6 19q0 64 -70 64q-29 -13 -32 -26v-32l6 -19
l-6 -32v-199l-7 -128q0 -102 51 -102l32 6l7 -6v-7l-39 -122l66 -100q0 -13 -110 -15l-7 -32l-6 -179l13 -218q-8 -51 -45 -51l-135 6l-64 -13q-26 7 -26 38v26l-6 115l6 71l-6 83h6l-6 7v57l6 141l-6 58l6 45l-6 128v109l6 6l-6 7v13l6 77l-6 44l13 167l-13 51l19 154
l-13 71q0 32 32 32l26 -7zM780 516h12v-8q0 -216 -24 -216h-8l-8 40l12 64l-4 12q0 69 20 108zM464 -96l52 -4v-4l-8 -8h-40l-40 4l-32 -4q0 12 68 16z" />
    <glyph glyph-name="Q" unicode="Q" horiz-adv-x="807" 
d="M425 1534q20 -19 201 -52q91 -63 91 -207l-13 -116l6 -149v-78l-6 -97l6 -32l-6 -110l13 -233l-7 -7l7 -64v-123q0 -148 -52 -266v-6q1 -9 83 -64q148 -140 214 -140h13q59 8 59 88l-13 39q19 45 58 45h6q46 -29 46 -65v-19q0 -89 -136 -143h-7q-118 0 -252 98
q-123 77 -214 77l-155 -39q-26 10 -39 33v6q20 24 20 46q0 12 -149 25q-91 47 -91 181l-6 7v6l13 259l-20 298v45l13 175v6l-6 104l6 103l-6 123q0 144 103 207q96 39 220 39zM374 1139v-123l6 -71q-13 -45 -13 -129q0 -25 65 -39l19 19l-13 84l7 195l-7 122l-26 13
q-38 -13 -38 -71zM-15 822h20v-13q0 -349 -39 -349h-13l-13 64l19 104l-6 19q0 112 32 175zM425 770q-38 -21 -38 -90l-7 -291l-6 -7v-6q13 -104 32 -104q40 0 52 65l-7 45v39q5 65 39 65v6q-45 39 -45 97l6 143q-14 38 -26 38z" />
    <glyph glyph-name="R" unicode="R" horiz-adv-x="963" 
d="M547 1505q208 -16 208 -39q91 -45 91 -207l6 -104l-6 -58l12 -52v-85l-12 -123l38 -52v-6q-81 -54 -103 -84v-13q95 -86 103 -182l7 -26l-13 -91v-6q0 -57 26 -143l-26 -168l6 -7v-6q0 -39 -51 -45l-201 -7q-46 9 -46 45v162l7 137q-12 14 -20 175q-22 32 -52 32
q-39 -13 -39 -26v-168l7 -7l-7 -6l13 -312q-3 -32 -38 -32h-247q-32 0 -32 97v208l-7 58l7 7v6q-12 370 -26 370l-52 19v13l6 6q46 21 46 33v97l-7 123l13 39l-13 52l7 32l-13 162v137q0 26 136 39l136 -7zM444 1246l13 -85l-7 -201q0 -37 45 -45q65 8 65 58q0 312 -52 312
h-19q-45 -10 -45 -39z" />
    <glyph glyph-name="S" unicode="S" horiz-adv-x="783" 
d="M434 1496q215 -21 215 -51q57 -38 57 -145v-108l6 -113q0 -89 -50 -89h-184l-25 25v64l-6 19l6 31v82q0 38 -38 51q-31 0 -38 -70l7 -183q37 -62 208 -152q37 -20 51 -44v-6q-44 -45 -44 -70v-6q0 -43 63 -70q19 -33 19 -151q0 -456 -51 -456q-43 -63 -164 -63
q-324 0 -354 89q-13 12 -26 120l19 82l-19 76v101l-6 88q9 38 32 38l221 -6l13 -50v-140q0 -158 25 -158h25q25 0 25 253q0 120 -50 120l-6 19l6 26q0 12 -57 50q0 27 -126 108q-70 74 -70 227l-6 102l6 56l-6 7l6 31v64q32 177 95 177q133 25 221 25z" />
    <glyph glyph-name="T" unicode="T" horiz-adv-x="749" 
d="M681 1503q21 0 32 -50l-7 -82l7 -82q-10 -32 -63 -32h-82q-13 -3 -26 -31l7 -57l-7 -50q26 -210 26 -498l-19 -385l6 -37q0 -202 -38 -202h-12l-278 6q-25 26 -25 76l13 107l-7 44l13 328l-6 57l12 25q-19 598 -31 598l-19 7l-76 -7q-69 0 -69 70v138q0 38 38 38l309 13
l56 -7z" />
    <glyph glyph-name="U" unicode="U" horiz-adv-x="1030" 
d="M822 1498q51 0 51 -51l13 -204l-6 -96l25 -230l-13 -127l7 -134q0 -52 -58 -52l-6 -6v-19q64 -140 64 -345q0 -242 -313 -242l-172 -13q-197 0 -230 89q-43 45 -64 645q13 43 45 83l-13 242l6 7v6l-6 26v13l-19 268v51q0 27 25 44l7 -6h6q67 32 185 32l51 6q51 0 51 -153
l13 -459l-6 -77l12 -57l-31 -135q25 -357 44 -357q7 -19 38 -19q39 13 39 70l-19 383q25 11 25 45v13l-6 159l13 89q0 50 -20 122l7 19l-13 293q8 71 57 71h122zM165 1390v-7q6 -19 38 -19l13 13v6l-19 19h-20zM171 1153v-6q0 -42 45 -64h6q32 0 32 32q0 13 51 19v7
q0 24 -45 44q-89 -14 -89 -32z" />
    <glyph glyph-name="V" unicode="V" horiz-adv-x="657" 
d="M516 1507l6 -6h45q57 0 57 -39l-32 -267v-32l-19 -76v-58q-19 -300 -38 -375v-64q0 -72 -19 -159l6 -64q-16 0 -32 -312q-19 -57 -70 -57q-113 0 -153 -12l-76 12l-19 -6v-32l-13 -13h-13l-12 13v7l32 37v7q0 46 -39 178l-31 357v101l-39 287l13 76l-25 179l6 76
q-19 73 -26 197q10 32 64 32q178 0 178 -32l7 -25q19 -694 32 -694l-13 -57l25 -70q16 0 26 70v6l-13 51l19 204l-6 57q21 115 44 115q43 0 64 38v19l-13 13h-6q-21 0 -45 -19h-6v12q45 51 45 83v13q-45 0 -45 19l6 51l-12 89v13q0 35 25 44l57 -6zM446 1297h6q35 0 45 25
v19l-13 13h-6q-32 -16 -32 -57zM0 -14h38q38 -3 38 -19l-38 -13q-25 0 -38 25v7z" />
    <glyph glyph-name="W" unicode="W" horiz-adv-x="900" 
d="M837 1495q25 -6 25 -26l-89 -963q-11 0 -13 -45v-44l-38 -371v-25l-19 -25l-77 6h-32l-70 -6q-29 12 -32 25v57q-22 205 -32 205l-19 19q-38 0 -51 -287q-21 -26 -38 -26l-121 7l-26 -7q-57 0 -57 153q-20 255 -45 421l-51 530l-19 153l6 70l-19 77v76q6 20 38 20h39
l57 -7l32 7q45 -61 45 -422l-7 -70q19 -30 38 -293l7 -26l6 -6h7l19 83v13l-7 70l13 236l-6 6v7l44 376q32 19 83 19h58q64 0 64 -76l38 -396q-13 -29 -13 -83l26 -121h6q16 0 32 121l-6 89q38 224 38 351l-6 77q0 45 76 45z" />
    <glyph glyph-name="X" unicode="X" horiz-adv-x="828" 
d="M248 1512q63 -2 63 -13l-6 -44q44 -204 76 -431l19 -19h13q12 37 50 475l26 -6l82 6l196 -6l-63 -336l6 -69q-25 -52 -50 -165l6 -6l-25 -139q19 -114 76 -114l170 25l13 -38l-25 -196h-13v6l6 57l-25 51q13 3 25 31q-9 38 -50 38h-89l-31 -6q1 -32 12 -32l-19 -50
l45 -171q0 -121 75 -121q38 0 38 -19q0 -190 -50 -190h-13l-228 -12q-63 0 -63 120q-43 282 -70 323h-6q-33 -27 -57 -260q-25 -183 -57 -183l-133 -13l-32 6l-82 -6l-19 6q127 657 127 741l-146 716q14 38 44 38l57 -19l45 19l44 -7zM875 1461h12q21 0 26 -76l-19 -259h-7
l-6 44l6 25l-12 184l6 51zM894 1050l6 -7v-44h-13l-6 44l6 7h7z" />
    <glyph glyph-name="Y" unicode="Y" horiz-adv-x="693" 
d="M42 1503l101 -6h57q82 0 82 -108q30 -93 38 -215l26 -38q20 0 56 240q8 0 19 89q23 25 184 25q57 -3 57 -19v-6l-51 -285l7 -50q-51 -76 -51 -216q-14 0 -25 -126l-51 -114l6 -121l-6 -152l6 -44q-4 -335 -31 -335q-29 -13 -82 -13h-19q-165 0 -165 38l-6 114l6 127
l-6 139l12 152v50q0 133 -57 133q-38 43 -38 70h7q41 0 44 19v6l-152 621q3 17 32 25z" />
    <glyph glyph-name="Z" unicode="Z" horiz-adv-x="753" 
d="M156 1013h16l-8 -8zM188 1009q20 0 24 -16l-4 -4h-4l-16 16v4zM146 1501l75 -13l82 13q119 -16 119 -25q26 12 100 12h50q65 0 100 -56l-7 -144l7 -37q0 -61 -150 -444l-7 -38l7 -44q-46 0 -88 -156q-94 -206 -119 -313v-6q5 -19 50 -19l50 19l57 -12h106q69 0 69 -69
q0 -16 25 -44v-19q0 -48 -63 -106h-6l-50 13h-232l-25 -7q-31 13 -112 13h-50l-75 -19q-19 22 -19 75v138q0 79 131 394l200 512l13 57q-13 37 -50 37h-63q-143 0 -143 32v6l-13 219q0 17 31 31zM-16 185l8 -8v-4q-16 -68 -28 -68h-8q-10 0 -16 36q7 0 44 44zM-8 -51h40v-8
q-11 0 -40 -28q-9 0 -12 20q6 16 12 16zM108 -51l192 -4l4 -4v-8q0 -21 -12 -24h-8q-15 12 -28 12l-24 -32h-8q-55 28 -128 52q0 8 12 8zM180 -139h8l8 -8l-8 -8l-8 8v8z" />
    <glyph glyph-name="bracketleft" unicode="[" horiz-adv-x="613" 
d="M445 1750l71 -19l33 6q21 -6 26 -26l-13 -180l6 -7v-6l-6 -20h-39l-110 7q-32 -34 -32 -58l19 -97l-6 -58q10 -26 19 -26l-6 -129v-19l6 -7q-11 -22 -19 -167l13 -104l-7 -38v-13l7 -84l-7 -26l7 -84l-7 -77q0 -44 78 -78v-19q-71 -53 -71 -84l-20 -297q0 -44 46 -44h122
l13 -13v-20l7 -122q0 -78 -46 -78l-84 -13l-154 7l-123 -7q-32 0 -32 59v141l6 90q-13 28 -13 104v77l7 135l-26 39q32 79 45 155q-13 29 -13 84v239l7 122l-13 26l6 39l-13 264l7 84v194l-7 38q0 104 52 104h39l84 -7l45 7l51 -7q45 5 45 13z" />
    <glyph glyph-name="backslash" unicode="\" horiz-adv-x="337" 
d="M39 1520h52q32 0 84 -397l169 -1099q-9 -33 -65 -33h-32q-65 0 -65 156q-163 981 -202 1347q8 26 59 26z" />
    <glyph glyph-name="bracketright" unicode="]" horiz-adv-x="613" 
d="M191 1755l103 -13l142 7h13l26 -26l-6 -65l6 -45l-6 -97l6 -219l-6 -90l6 -116l-13 -110l7 -71v-174l6 -39q-8 0 -13 -168l20 -109l-26 -32q13 -26 19 -123l-6 -239l6 -44l-13 -65l13 -109q0 -52 -45 -52h-77l-175 -7q-148 0 -148 46l6 206l20 6l135 -6q33 29 33 64
q-20 56 -20 129v626l7 161l-20 161l33 290q0 71 -71 71h-110l-13 123l6 52v45q0 29 155 32z" />
    <glyph glyph-name="asciicircum" unicode="^" horiz-adv-x="690" 
d="M287 1485q215 0 215 -52l65 -581l20 -59v-20l-33 -6h-104q-59 0 -59 46v58q-13 255 -39 255l-26 -157l-26 -72l26 -71q0 -66 -72 -66q-124 0 -124 33l91 653q17 26 66 39z" />
    <glyph glyph-name="underscore" unicode="_" horiz-adv-x="357" 
d="M84 -7h320q16 0 29 -45q-13 -90 -44 -90l-131 -7l-116 7l-94 -7q-88 8 -88 52q0 84 65 84zM229 -201h14v-13l-14 -13h-14v13z" />
    <glyph glyph-name="grave" unicode="`" horiz-adv-x="487" 
d="M153 1493q29 0 130 -208q65 -88 65 -124q0 -26 -169 -78h-7q-67 80 -182 319v13q119 78 163 78z" />
    <glyph glyph-name="a" unicode="a" horiz-adv-x="728" 
d="M172 1510l7 -6l58 6l91 -13h59l104 13h45q28 0 39 -149l-6 -59q104 -1064 104 -1286q-21 -19 -65 -19l-189 -7q-24 0 -32 279q-16 20 -39 20q-33 0 -33 -39v-124l7 -26q-15 -110 -39 -110h-221l-26 26l104 1410v26q0 48 32 58zM348 867l-7 -46v-6l7 -26q-20 -60 -20 -137
v-26l20 -19h6l20 19v72l-20 169h-6z" />
    <glyph glyph-name="b" unicode="b" horiz-adv-x="869" 
d="M528 1705q24 0 38 -70q51 -30 51 -51l-6 -76q27 -26 102 -45q70 -110 70 -254l6 -19l-13 -58v-12q0 -268 -57 -268l-32 -44q89 -121 89 -236l-6 -127l6 -6v-7l-6 -25l6 -96l-6 -38l6 -6v-6q0 -172 -102 -229q-35 -26 -95 -26h-64l-133 6l-96 -6q-127 0 -127 19l-6 19
l-7 643v210l-6 57l6 51l-6 146l6 102l-6 223l32 25h121q102 0 102 51l6 7h13q14 0 25 -45l32 -6h6l32 6v13l-38 44v19q0 18 57 26l7 6v7l-32 44v13q0 16 25 19zM172 1559h6l7 -19l-7 -7h-6l-13 13zM293 1559l12 -13v-6l-12 -13l-13 13v6zM674 1559h7l13 -13l-7 -6h-6l-7 6
v13zM802 1559h6l13 -13l-13 -13h-6l-13 13zM923 1559l6 -7v-12h-19v6zM560 1520v-6h19v19h-6zM426 1202v-12q0 -27 32 -64q32 10 32 45v31q0 35 -32 45q-32 -10 -32 -45zM420 1069q8 -105 32 -108h19q25 0 25 95q0 30 -38 57h-13q-12 0 -25 -44zM420 585l13 -64l-13 -89
q8 -159 32 -159h19q19 7 19 38v198l-13 57l7 70l-7 25h-32q-17 0 -25 -76zM255 -197v-19l-20 -7l-25 20l6 6h39z" />
    <glyph glyph-name="c" unicode="c" horiz-adv-x="777" 
d="M377 1527l26 -6h51l26 6q201 -31 201 -175l20 -143l-7 -71v-91l-32 -32l-91 7l-78 -7q-51 0 -51 201l-26 26h-7q-32 -18 -32 -52l13 -421l-7 -58l13 -324l-6 -98q5 -32 19 -32q36 0 52 272q24 20 45 20l156 6l45 -19q-6 -183 -19 -247l6 -6v-7q4 -168 -51 -256
q0 -37 -363 -61q-120 28 -138 136h-13l-20 -97q-30 -120 -22 -120l126 4q241 15 241 4v-7q0 -13 -33 -13v-6l-6 6h-7l-38 -6l-52 6q-202 -44 -202 -56l-20 -90h-13v51q0 65 -77 65l-33 -6q-95 18 -123 32v7l19 64v13l-6 7q13 39 26 39h39q39 -3 39 -20v-6l-13 -52
q0 -29 52 -52q27 0 38 104q52 5 52 51v7l-32 97l32 32l30 78l-13 52q21 27 3 233v33l-20 51v39l-4 149v7l-7 39l13 32l-6 123l6 240l-6 39q26 201 64 201q0 40 221 58zM33 -355h7v-39h-13v7z" />
    <glyph glyph-name="d" unicode="d" horiz-adv-x="877" 
d="M221 1482h39l272 -6l58 6q125 0 156 -156l19 -123v-45l-6 -65l13 -104l-7 -103l7 -72l-7 -90l7 -364l6 -45q-21 -292 -71 -292l-91 -58l-52 13h-13l-129 -13l-136 26l-72 -13q-18 5 -32 32v59l-13 136l6 123l-6 156q-39 8 -39 19q45 21 45 39l-6 110l13 84l-13 72
q13 29 13 84l-13 52l13 58l-20 292l13 65l-13 84q0 39 59 39zM428 1223l7 -104l-7 -123l13 -182l-6 -45l6 -370v-90l7 -39l-7 -39q7 -26 33 -26q32 10 32 45v195l6 181l-12 78l6 91v97l-6 259l6 52q-11 36 -45 46z" />
    <glyph glyph-name="e" unicode="e" horiz-adv-x="733" 
d="M625 1501q31 0 31 -57v-101l6 -38q0 -37 -56 -37h-89q-36 0 -44 -38l7 -51l-7 -170q0 -38 51 -38l25 6l57 -6h31q32 -9 32 -82v-88q0 -57 -44 -57h-63q-34 0 -45 -25l19 -51l-44 -50l6 -51l-6 -100l6 -7l-6 -44v-151q0 -38 38 -38h126q19 0 19 -164v-6q0 -63 -50 -63h-13
l-360 6l-56 -6q-32 9 -32 18v108l6 138l-6 32l6 177v119q0 29 -50 70v6q6 19 38 19h50l19 19v6q0 32 -57 63l-12 38v25l6 101l-19 492q0 63 82 63zM196 -94l38 -7l44 7q44 -11 44 -26v-6l-107 -13l-32 13v25h13v7z" />
    <glyph glyph-name="f" unicode="f" horiz-adv-x="697" 
d="M596 1498l32 -19l-7 -69l7 -126q-16 -18 -151 -18q-11 0 -25 -38l6 -44l-13 -151q4 -56 51 -56l31 6l38 -6h44q31 -18 31 -51l-6 -94l6 -44q-1 -14 -38 -44l-31 7h-69q-38 -4 -38 -19v-19l157 12l25 -6q26 0 38 57l6 6h7l6 -31v-7q0 -25 -50 -29q-32 11 -94 11
q-77 -15 -132 -15q-19 0 -19 -124h-7l7 -6l-7 -94v-239l7 -25l-19 -44l6 -119v-19l-12 -19l-157 6h-44l-7 -6q-31 5 -31 31h-6l6 7v6l-19 132l13 82l-13 62l6 132l-6 19q13 31 13 113q0 17 -38 69v13q88 28 88 56q-38 49 -38 69v26l13 119q-13 33 -19 289l6 44l-12 138
q0 50 62 50q95 0 95 13l19 -7l238 7z" />
    <glyph glyph-name="g" unicode="g" horiz-adv-x="887" 
d="M-164 1070l48 -4l28 4q37 0 208 -28v-16l-116 -32l-64 4h-12l-28 -16l-12 4v48q0 10 -16 12q-18 0 -32 -32l4 -24q0 -12 -44 -12q-16 6 -16 12l4 36l-8 24v4q0 16 56 16zM473 1504q286 -25 286 -102q45 -62 45 -197q0 -198 -38 -198h-19q-191 0 -191 26l-7 38v121
q0 70 -57 70h-13q-68 0 -76 -89v-19q0 -125 -19 -268v-76l6 -51l-6 -51l6 -147l-13 -210q0 -102 83 -102q57 0 57 153v115q0 51 -70 51l-19 31l7 32v64q0 83 44 83h7l121 -7l89 13q83 0 83 -76l6 -45l-6 -44v-45l-7 -217l7 -6v-6q-32 -220 -90 -293q-79 -64 -184 -64l-90 7
l-108 -7q-114 37 -146 102q-51 83 -51 172v76l-7 26l7 25v7l-13 133l6 141l-6 89l13 70l-13 165q38 63 38 262v51q11 87 64 133q46 58 242 58z" />
    <glyph glyph-name="h" unicode="h" horiz-adv-x="853" 
d="M710 1506q19 -24 19 -44v-330l6 -292l-12 -51l12 -70q-8 -50 -38 -50l-38 12h-6q-26 -9 -26 -44v-6l13 -13l38 13q57 -42 57 -95v-32l-6 -159h6l-6 -6v-6l-6 -216l6 -6v-7q-10 -114 -38 -114l-45 7h-114q-89 0 -89 56l32 184q-3 57 -12 57l6 96v184q0 38 -32 38
q-25 0 -44 -70l6 -89l-6 -57l6 -70l-13 -158v-89q0 -70 -82 -70l-32 6l-76 -6q-76 17 -76 63l19 140l-6 70l19 70l-13 69l13 45l-13 82l19 171l-19 280l6 6v6l-6 127l6 121l-12 69q0 153 50 153l197 12q19 -23 19 -44v-197l6 -57l-6 -19l6 -146l-6 -95l19 -25h32q13 3 25 31
l-6 70l6 114l-6 280q0 95 44 95h7z" />
    <glyph glyph-name="i" unicode="i" horiz-adv-x="590" 
d="M183 1492l57 -13l82 13l70 -6h25q26 -10 26 -45l6 -215l-6 -272l12 -316l-12 -57q12 0 25 -190v-70l-19 -189l6 -76q-9 -70 -31 -70h-225q-51 4 -51 51l13 379v70l29 114l-38 63l12 38l-11 82l6 57l-6 76l6 89l-6 44l12 70l-19 101v101l-6 89q17 82 43 82z" />
    <glyph glyph-name="j" unicode="j" horiz-adv-x="843" 
d="M118 1028l32 -4l24 4l8 -12v-4q0 -12 -16 -12v-4l-4 4h-24l-32 -8l-4 4v4q6 28 16 28zM230 1024l32 -16v-8l-28 -4h-8l-12 12v4q0 10 16 12zM354 1024h8q22 0 40 -28l-72 -4l-28 4q35 28 52 28zM102 984v-20l-12 -12l-12 4v4q0 24 24 24zM182 968l4 -4v-4q0 -8 -24 -16v4
l-4 -4h-4l-8 8v4zM655 1496q13 0 19 -38l-6 -345l19 -229l-13 -173l13 -64l-13 -133l7 -90v-153q0 -287 -268 -287h-115q-211 13 -242 121q-20 139 -26 421q16 64 57 64h20l165 6q29 -12 32 -25v-64l7 -51l-7 -51q0 -172 39 -172h19q19 0 38 83q-6 162 -25 255l6 64l-6 57
l12 121l-12 115l6 147v128q0 97 -19 172l13 44l-7 45q0 32 179 32h108zM482 -16q56 -44 72 -44h4q19 0 48 28h12l8 -8v-28l-16 -16h-52l-4 4l-4 -4l-68 4h-88l-20 4v12q0 13 88 20q15 13 20 28zM322 -52l12 -4v-20q-20 -20 -20 -36v-32q-5 -13 -36 -24q-6 -36 -36 -36h-4
l-8 8q0 24 40 56q0 58 36 76l4 4l12 4v4zM86 -72h16q54 0 68 -36l-24 -8q-72 0 -72 28v4z" />
    <glyph glyph-name="k" unicode="k" horiz-adv-x="898" 
d="M717 1504h57q33 0 39 -26l-103 -604q26 -237 58 -237v-77h-6q0 19 -45 58v-7l51 -244q0 -45 77 -334v-26q0 -9 -26 -19l-45 7l-89 -7q-135 0 -135 45q-26 98 -52 308q-38 244 -58 244l-6 7h-6l-13 -26l19 -193l-6 -90l6 -44q-26 -36 -26 -193l7 -7v-6l-7 -19l-64 6
l-58 -13q-147 0 -147 39l-7 26l26 462q0 61 -52 122l-6 19q5 84 19 84l39 -84q14 0 19 32l-6 45l6 84l-19 58h-19q0 -20 -13 -20l-20 78l7 64l-7 51l7 7h6l20 -26v-13l-13 -58l19 -70q11 0 32 45l-26 89q15 31 20 155l-20 77q0 58 45 58v70q18 90 90 90h103q51 0 51 -51v-26
l-12 -71q12 -46 19 -218l6 -32h7q29 29 77 372l26 26l57 -6q52 19 97 19zM762 881l6 -7v-6l-6 -6h-13v6zM119 868h7v-26h-13v7zM704 643l6 -19h7v19h-13zM852 418h6l19 -115l-19 6l-6 103v6zM1044 406h13l7 -33v-6l-20 -6l-13 19v13zM473 174q19 -6 19 -38v-7h-7
q0 20 -19 20l-6 6v6zM492 129h6v-64h-6v64zM884 84h6l13 -12v-7h-19v19z" />
    <glyph glyph-name="l" unicode="l" horiz-adv-x="737" 
d="M454 1511q16 0 26 -122l-13 -167l13 -482q0 -24 77 -52l7 -6v-13q0 -19 -84 -32q-13 -63 -13 -174v-13l7 -25l-26 -103q0 -56 71 -64l128 12q39 0 39 -38v-206q0 -32 -180 -32l-135 6l-122 -6q-103 0 -103 51l6 33l-6 199v83l-7 97l7 71q0 78 -26 109v6q0 24 39 110v19
l-13 160l6 39v45l-6 32l6 39v70l-6 123l6 38l-6 142v12q3 13 32 26l90 7h71z" />
    <glyph glyph-name="m" unicode="m" horiz-adv-x="1120" 
d="M166 1504l6 -6h32l58 6l64 -6h38l7 6q115 -14 115 -26l45 -429l6 -6h13l45 423q0 20 166 32q192 0 192 -58v-634l-6 -371l6 -39l-6 -89l13 -109l-7 -90v-77q0 -44 -57 -44l-71 -7q-128 0 -128 58l-6 96l12 185l-6 103l-6 6h-7q-38 -254 -38 -397q0 -11 -32 -38l-7 7h-57
l-39 -7q-64 8 -64 57v32q-19 205 -32 237h-12l-13 -44l6 -26l-6 -167v-25q0 -77 -128 -77h-13q-103 0 -103 90v128l-6 83l6 64l-6 70l6 96l-6 122l6 77l-6 6l6 32v39l-6 32l6 32l-6 192l6 64l-6 173v166q0 42 26 58zM684 505v-32h13v32h-13z" />
    <glyph glyph-name="n" unicode="n" horiz-adv-x="957" 
d="M383 1536l7 -6l-13 -26l84 -20l52 -292l13 -13q39 13 39 26v26q0 260 32 260l104 -7l85 13q21 0 38 -19v-13h-6l13 -357l-13 -110l6 -85l-6 -168v-20l19 -65l-19 -38v-78l6 -52l-12 -97l12 -370q-8 -33 -19 -33h-110l-91 -6q-52 0 -52 136q-32 31 -97 357l-26 32l-13 -52
l6 -252l-6 -202l-20 -13h-51l-33 -6l-39 6h-45l-26 -6q-33 0 -33 58v39l-6 7l13 52q-20 60 -20 110v123l7 195l-7 116l7 156l-13 91l6 58v72l13 162l-13 162q0 130 59 130l45 13h20q34 -33 58 -33q26 0 26 33zM526 1114l13 -77h20l6 45v13l-6 32h-20z" />
    <glyph glyph-name="o" unicode="o" horiz-adv-x="877" 
d="M345 1520l64 -13l64 13l64 -6l51 6q140 -26 140 -115q11 0 26 -70l-7 -51l7 -147q0 -89 -13 -89q13 -40 13 -121l-7 -70l19 -39l-19 -63l7 -71l-7 -82l19 -71l-6 -57q26 -96 26 -172v-7q-21 -236 -52 -236q-46 -63 -114 -63h-64l-26 -19q-27 31 -76 31h-26
q-47 -8 -51 -25v-19q0 -20 70 -32q53 4 90 39q76 -34 76 -45l-38 -13h-108l-90 7l-63 -20q-160 10 -160 39v13l13 12h13l6 -6l51 19l51 -38h13l25 25v19q0 19 -76 19q-102 42 -102 147q-11 0 -13 64v89l6 6q-12 37 -12 102q0 50 63 58l7 6l-13 19l-45 -6q-44 60 -44 242
l12 77l-6 70l6 57l-12 160q12 62 12 172v89q21 140 128 140zM403 1195v-7q0 -127 -13 -127l6 -64v-153l51 -45q-38 -44 -38 -89v-6l13 -71v-184l-6 -58q0 -96 44 -96q39 13 39 51l-7 134l7 64l-7 58l7 95l-20 109l13 25q-19 16 -25 166l6 57q0 185 -38 185q-32 -9 -32 -44z
M1 838l6 -7v-25l7 -90l-13 -140q13 -32 38 -32v-32q-16 -32 -51 -32h-19l-19 83l13 39l6 165l-6 7v6q16 50 38 58zM664 -68h51v-19h-32l-31 7z" />
    <glyph glyph-name="p" unicode="p" horiz-adv-x="863" 
d="M558 1509q140 0 186 -96q18 -49 32 -185l-7 -103l7 -281q-26 -88 -38 -218q-63 -140 -173 -140h-13l-26 25v45h-6l-45 -19q0 -37 -64 -64l-6 -6v-7l-6 -243l6 -153q0 -67 -83 -77l-96 13l-51 -13q-39 13 -39 70v237l-6 115l19 224l-13 70l13 275l-13 135l7 70v109l6 159
h-6q0 37 38 52zM411 1221v-121l7 -83l-13 -160q5 -128 32 -128h77q0 25 38 89h-6l-20 -25q-31 0 -31 96l12 128l-6 96l6 89q-14 64 -64 64q-32 -10 -32 -45zM475 665l-6 -19v-7h6l7 19v7h-7zM438 -78q44 0 44 -12q-2 -12 -32 -12h-24l-84 8v8z" />
    <glyph glyph-name="q" unicode="q" horiz-adv-x="833" 
d="M295 1518q383 -18 383 -45q65 -57 65 -208v-130l-13 -97l13 -78l-7 -26l20 -169l-20 -422l7 -97q0 -178 -52 -233v-26q0 -13 117 -52q120 -123 201 -123q41 0 65 52q-10 52 -20 52q17 39 59 39q47 0 65 -117l19 -26v-7h-19q-23 0 -98 -58q-32 -20 -64 -20
q-108 0 -267 111q-113 65 -188 65h-19q-102 -39 -149 -39q-28 16 -33 32l20 52q-30 16 -150 33q-104 61 -104 207l13 460l-6 26l6 117v33l-19 350q18 338 149 338zM393 1129v-7l6 -91q0 -22 -52 -58l46 -46v-77l6 -26l-6 -26v-33l13 -65l-13 -39l13 -45v-91l6 -26l-13 -71
q0 -169 39 -169q32 13 32 52v331q0 23 -39 58q26 30 26 46l7 207l-7 65l13 98q-9 84 -26 84h-19q-23 0 -32 -71zM879 1012h13l13 -52q-21 -318 -52 -318h-6l-7 6v7l13 234v58q8 65 26 65zM860 136h19v-7l-13 -13l-6 7v13z" />
    <glyph glyph-name="r" unicode="r" horiz-adv-x="967" 
d="M515 1506l224 -32q103 -53 103 -218l13 -97l-13 -51q10 -58 20 -58l-13 -238q29 -13 32 -25v-20q-44 0 -103 -77l51 -58q29 -46 58 -134l-6 -77v-90l19 -84l-19 -141v-45q0 -45 -77 -45l-187 -7q-32 10 -32 84v276l-6 39l6 32v6q0 103 -64 103h-13q-25 -10 -25 -45v-13h6
l-6 -19l12 -411q0 -58 -90 -58l-25 6l-154 -6q-45 0 -45 122l6 122q-21 501 -32 501q-45 10 -45 26v13q27 0 45 38l-6 64v251q0 75 -13 103l13 64l-7 160l135 26l148 -6zM450 1209l13 -148l-13 -147q13 -39 26 -39h32q40 0 52 51l-7 45v148q0 116 -51 116h-13q-32 0 -39 -26
z" />
    <glyph glyph-name="s" unicode="s" horiz-adv-x="810" 
d="M419 1518h20q195 0 254 -85q26 -57 26 -130l-7 -46l7 -65v-26l13 -26q-11 -137 -39 -137h-33l-104 7l-52 -13h-20q-11 0 -45 71v7l19 98v58q0 36 -26 46h-26q-26 -10 -26 -46v-143q0 -124 137 -169q137 -88 137 -105v-6l-46 -46v-26q0 -42 85 -71q19 -28 19 -163l-6 -170
l6 -97q0 -214 -110 -241q-39 -19 -124 -19h-117q-261 0 -261 214l20 65q-20 98 -20 170v136l20 20h45l91 6q111 0 111 -39l7 -19l-7 -91v-13l7 -26l-7 -27v-19q0 -130 39 -130t39 130v176q0 50 -52 84q0 66 -52 66q-26 19 -46 65q-115 44 -149 130q-39 54 -39 209v58l6 130
l-6 46q0 122 104 182zM901 1003l20 -19q-3 -20 -52 -20h-7v13zM1001 842l-2 -5h-27l2 7q-31 4 -73 -20l2 6q32 18 65 63l8 4l13 -3q22 -19 12 -52zM517 684q13 -39 52 -39l13 13v13q-10 26 -46 26h-6zM927 183l79 -33v-7q0 -13 -20 -13q-78 4 -78 26v7zM821 633l-66 55l2 7
q4 13 23 7q74 -28 67 -49l-2 -6z" />
    <glyph glyph-name="t" unicode="t" horiz-adv-x="732" 
d="M307 1322h4v-24h-8v4zM291 1503l38 -6l26 6l313 -13l13 -19l6 -115l-6 -115l-13 -13l-121 13q-32 -5 -32 -32h-7l7 -109v-198l-7 -102l13 -51l-13 -154l7 -141l-13 -96l13 -140l-20 -122l32 -76l-6 -20h-198l-39 7l-44 -13q-26 4 -26 51v45l6 70l-6 19l6 39l-6 64l6 115
l-6 102l6 198v77l-6 166l6 115l-6 147q-21 26 -160 26q-19 26 -19 70l6 186l20 13h159z" />
    <glyph glyph-name="u" unicode="u" horiz-adv-x="933" 
d="M307 1500q122 -27 122 -58v-64l-6 -322l6 -77l-12 -173l12 -33l-12 -205l6 -110l-6 -122l51 -77l-6 -26l6 -6h19q16 0 32 83v13q0 21 -19 45q13 0 26 470l-7 51l13 212l-6 45l19 187l-13 58q13 96 32 96h20l122 -6l71 6q17 0 32 -32l-7 -19l7 -65l-7 -102l7 -322
q0 -178 -20 -277l13 -64l-13 -71l7 -32q0 -361 -32 -418q-52 -109 -212 -109h-39q-296 14 -296 45q-69 10 -77 186v13h6l-6 45v58l13 116l-13 84l6 115l-6 135l13 90l-7 155l20 167l-13 51l38 251q39 13 116 13zM256 1416l13 -12l12 12v13h-12z" />
    <glyph glyph-name="v" unicode="v" horiz-adv-x="680" 
d="M210 1707l21 -14l-16 -14l27 -24h36l26 -5v-38l-26 -4l-52 14l-42 -14l-26 19l37 37q5 43 15 43zM642 1688h16v-76l-21 -19h-5l-16 15l16 38l-5 28zM549 1664l10 -9q0 -34 -16 -38h-5v38zM514 1522q131 0 131 -40l-7 -19q-19 -273 -39 -372q5 -52 13 -52l-39 -176
l-13 -183v-13l13 -65q-20 0 -39 -131l6 -59l-19 -85l13 -78q-12 -55 -59 -91v-7l20 -32q-22 -150 -46 -150l-59 13q-176 -26 -176 -39q15 -39 118 -39l32 -20h20l32 33h13q25 -20 59 -20h65l20 -19v-13q0 -33 -26 -40l-98 20h-26l-33 -6v6l-6 -6l-39 6l-157 -6h-46l-78 19
l-46 -6q-78 4 -78 19v13q0 13 59 13q21 13 26 66h39l65 -27q46 17 46 98l-20 52v26l26 39q0 20 -19 20l-26 52l6 65q-32 243 -45 490l-26 176l6 98q-20 228 -52 300l19 91l-6 39v7q0 20 39 20v6l78 -6h79q52 0 52 -85l6 -59l-6 -20l13 -137l-7 -84q13 -261 26 -261h14v-7
q29 0 39 59l-7 130q18 105 65 105q22 0 40 32v13l-13 13h-7l-52 -13v13q45 46 45 72q0 15 -45 26l-13 33l6 46v78q0 59 124 59zM318 810v-6l7 -46h7q19 7 19 39l-19 26zM338 667l-13 -20v-19l13 -13l13 19v20zM260 158v-7l13 -13l13 13v7h-26zM194 151v-6q0 -13 20 -13l20 6
l-13 13h-27z" />
    <glyph glyph-name="w" unicode="w" horiz-adv-x="940" 
d="M864 1503q39 -10 39 -39q-59 -495 -84 -857l6 -58q-31 0 -71 -552q0 -17 -104 -26l-59 7h-52q-27 0 -39 253q-17 52 -32 52h-13q-26 -52 -45 -292l-7 -7l-19 -13l-104 7l-59 -7q-52 0 -52 136l-32 338q-13 123 -52 123l-13 26l32 78q0 136 -26 136l7 78v20q0 58 -39 156
v51l-26 33l32 78l-26 234q13 39 52 39h130q36 0 46 -338v-13h6l-6 -7v-116l19 -130h26v6l-6 52l26 33q22 506 65 506l64 7h33q97 0 97 -72q20 -295 39 -415l-6 -46l6 -19h33l32 220v20l-6 58q14 0 26 234q0 18 162 26zM390 -100v-20h-19l-13 13l6 7h26z" />
    <glyph glyph-name="x" unicode="x" horiz-adv-x="723" 
d="M758 1509q54 -18 54 -30v-12q-119 -18 -119 -119v-41l30 -36q-42 -61 -42 -101l6 -185l-6 -42h-6q-18 0 -36 78l6 24l-12 12q-36 -29 -53 -251q-24 -35 -24 -107l95 -619q5 -30 18 -30l6 6l6 -29v-30l-18 -24l-191 6h-47q0 11 36 24v6q-29 0 -72 59q-30 0 -30 12
q36 12 36 42l-18 303l-12 30h-18q-17 -38 -35 -232q-32 -208 -54 -208l-30 -6l-107 18l-53 -12q-24 6 -24 29l113 655v36q-24 69 -137 744l24 18h107l131 -12q0 -10 -36 -24v-6q48 0 60 -71q34 -314 65 -351q30 0 72 381q18 24 35 24l18 -6l42 6l101 -12l18 6v17
q-12 24 -30 24v6l125 30h6zM318 1491h71l12 -12l-6 -6h-36l-41 6v12zM443 1485h24l29 -6v-6l-29 -6q-24 9 -24 18zM520 1479h30v-6h-30v6z" />
    <glyph glyph-name="y" unicode="y" horiz-adv-x="707" 
d="M497 1512l6 -6h58l110 6l6 -6v-7q0 -92 -154 -625q4 -38 19 -38h39v-7q0 -55 -71 -77q-16 -18 -33 -123l13 -315l-6 -103l6 -181l-19 -26h-52l-6 7l-6 -7h-7l-161 -6q-39 0 -39 142l7 38l-13 490q-60 116 -84 374l-38 96v52l-52 290l26 19l77 -6h103q52 0 52 -103
q11 -8 51 -232l20 -20q22 52 51 258l7 6q0 110 90 110z" />
    <glyph glyph-name="z" unicode="z" horiz-adv-x="720" 
d="M108 1511l26 -6l96 6l58 -13l58 7l162 -7l103 7q34 0 38 -65v-193l-83 -226l-84 -174l-7 -45l7 -58q-42 0 -97 -226q-77 -170 -77 -244q27 -26 103 -26h203q42 0 42 -91l-7 -116q-8 -31 -20 -31h-32l-76 6l-78 -13h-51l-58 13q-75 -6 -97 -19l-52 13h-32l-77 -20h-13
l-7 51q5 78 13 78l-6 6v129q0 82 155 451q103 271 103 310l-7 19q58 26 58 103l32 110q0 39 -83 19l-78 13l-64 -19q-123 0 -123 38l-6 129q0 84 58 84zM218 -100l38 -13l90 7h39l13 -13v-13l-13 -13l-39 32l-96 -51q-23 0 -97 45v6zM218 -229l12 -13v-13h-12l-13 13z" />
    <glyph glyph-name="braceleft" unicode="{" horiz-adv-x="527" 
d="M457 1585q46 -7 46 -20v-6l-13 -13h-66q-55 0 -78 -91l13 -418q-28 -76 -104 -117q-209 -65 -209 -131v-39q41 -65 157 -117q130 -80 130 -157v-13q0 -140 -39 -391q0 -102 137 -123l6 -7v-6l-13 -14q-189 0 -247 72q-111 125 -111 228q26 205 32 372l-71 156l-7 33v6
q0 26 85 150l6 46v143l-13 157q0 165 176 287l33 6z" />
    <glyph glyph-name="bar" unicode="|" horiz-adv-x="493" 
d="M281 1680q39 0 39 -59v-26l-13 -118l6 -46l-13 -79q27 0 27 -453v-52q0 -23 26 -46v-13q-33 -36 -33 -59l7 -27l-7 -72v-39l13 -125l-6 -144l6 -112l-13 -92v-202q0 -60 -46 -60q-100 9 -105 33l20 131l-7 85l7 151l-13 92q6 195 19 243l-32 249v118l6 131l-6 40l6 105
l-6 111l19 145q-26 42 -26 98q0 79 46 79zM230 -211q21 0 40 -32q15 -12 28 -12q16 0 44 28q16 -4 16 -28l16 -20v-12h-28l-28 -4l-152 12v-4l-16 12v8q0 12 72 20l4 4h4v28z" />
    <glyph glyph-name="braceright" unicode="}" horiz-adv-x="473" 
d="M55 1583q195 0 260 -104q84 -104 84 -202l-32 -286v-32q0 -78 78 -222v-19q0 -31 -78 -137l-13 -65l6 -338q0 -84 -136 -227l-91 -33q-163 7 -163 27v13q150 0 150 103l6 26l-13 117v117l-6 137q0 79 143 143q175 58 175 130q0 57 -195 163q-104 74 -104 130l39 422
q0 91 -123 104q-20 0 -20 13q0 12 33 20z" />
    <glyph glyph-name="asciitilde" unicode="~" horiz-adv-x="917" 
d="M218 914q257 40 343 -161q37 -52 119 -52q21 6 21 39q0 18 -26 52v13q0 35 32 58h58q65 0 65 -65v-13l-6 -26l6 -26v-13q-10 -73 -74 -142q-63 -26 -95 -26q-56 0 -200 32l-43 -6h-26l26 39v19q-26 94 -95 136h-21q-31 -3 -31 -19v-7l1 -84v-13l-10 -65h-16l-33 -19
l-90 6l6 7v13q0 45 -32 45l5 7l-5 26q0 163 73 220q27 11 27 39l-6 -21h6zM51 610v-13l-71 -39v7q32 45 71 45zM1082 46h26q13 0 19 -52h7l52 13l6 -6v-26q-6 -26 -65 -26q-64 15 -64 32v46zM933 20l6 -6v-39l-19 -19l-52 12h-19l-33 -6q0 36 33 52h39z" />
    <glyph glyph-name="exclamdown" unicode="&#xa1;" 
 />
    <glyph glyph-name="cent" unicode="&#xa2;" 
 />
    <glyph glyph-name="sterling" unicode="&#xa3;" horiz-adv-x="919" 
d="M377 1499q41 -3 41 -14v-1q0 -22 -22 -22l-4 -10v-20l4 -90l-2 -15l2 -5l-2 -18v-2l-2 -1l2 -2v-70l2 -36q-3 -5 -6 -43q-6 -18 -25 -18l-66 -5q-13 0 -30 10q-8 0 -8 3t-5 3v5q0 32 -6 50l2 7l-2 10l2 7l-4 165l8 63q0 6 -26 12l-8 8q6 0 6 3l-2 15l4 5l24 -1l70 1
q13 5 53 6zM827 1499l45 -3h12l17 2q9 -3 10 -6v-8l-2 -6l2 -5v-6q0 -8 -10 -8v3q-11 0 -15 -7l2 -82q0 -32 -14 -39q0 -9 -23 -14l-4 -8q0 -3 31 -24l4 -16v-30l-4 -59v-2q0 -11 31 -13l2 -2v-9l4 -27l-10 -4q0 3 -15 4l-49 -1l-23 1v-3h-2q-4 0 -4 5l-90 -7q-16 3 -16 11
h4v5l-2 13q0 11 20 11l6 5v18l2 2l-2 1v36l4 17l-4 144l4 32l-2 1l2 10v6q0 20 -24 20q-13 3 -13 6v4l1 4l-1 7v10q0 4 15 5h24l72 -2q11 8 15 8zM86 1496l29 -1h72q16 0 16 -14v-17q0 -11 -23 -14l-4 -12q0 -88 -4 -121l2 -22l-2 -114q0 -47 -32 -47l-15 -4l-8 2l-66 -2
q-14 0 -30 15q6 2 10 10l-4 11l2 11l-2 45v8q0 10 -25 14l2 5l-2 6l2 1v2l-4 8q4 11 12 11l39 -3h39q10 0 13 -7q0 -25 -13 -25q-11 0 -14 -5l2 -54l2 -7h-2l6 -6l2 2v1l-2 2h4v-3h2q27 0 27 11v1l-2 54l2 21l-2 10l4 58q-3 6 -6 6l2 11l2 62l-4 43l-6 3h-17l-10 1l-2 -1
l-8 8l4 3v7l-2 12q2 6 14 14zM663 1496q10 -2 10 -9v-6l-6 -21l-2 2h-2q-13 0 -13 -28l8 -78l-8 -23l8 -107l-6 -54l11 -4l10 1l6 -6v-6q0 -27 -23 -27q-34 -3 -37 -7q0 6 -20 9h-6l-2 -2l-6 2l-5 -2l-10 10l4 8l-16 89l2 15l-4 17l2 4q-8 59 -21 100h4v3h-4v-3l-6 3l-2 -5
h-2v6h10v3l-2 1l2 2v2l-4 6l2 7h-4l2 7v2h-4l4 5v1h-4l2 1v16h-4v-10l-2 -15l2 -2l-4 -32h4v-45l-2 -6l2 -1l-2 -83v-46l-2 -20q6 -11 18 -11l1 -1v-18q0 -7 -9 -10l-6 3l-2 -1h-39l-18 -2q-16 0 -23 9l4 9l-4 7q7 7 16 7q19 4 19 7v15q-6 25 -6 70v16l2 9l-2 1l6 39l-2 9
l-2 89l6 29q-4 7 -8 7h-19q-8 8 -8 29v5l6 6h105q12 -3 12 -25v-1l-2 -5l17 -66l-2 -1v-1q9 -39 16 -39h2q5 0 10 11l-2 8v6h4v5h-4l-2 21v46q0 10 -14 10l-2 -2q-6 6 -11 25q2 6 9 8h20l37 -2zM326 1491l-6 -24l6 -1l2 1v1h-2l4 16l-2 7h-2zM810 1488v-20h4l4 3l-2 17h-6z
M96 1481v-4h4v4h-4zM796 1453l2 -1v-2l-6 -109l4 -7l-2 1h-4v-7h8l4 3v2h-6v1q33 0 33 47q6 32 6 61v6q0 7 -10 9q-5 9 -9 10q-11 -3 -20 -14zM310 1457l-2 -133q12 -23 12 -55l-2 -15l2 -23v-2h4l-8 -46q-8 0 -8 -4l2 -4h16v4h-6v1q12 0 12 14l4 22l-6 20h-4v-3h-4l2 7v7
l-2 1v1q8 0 8 3v11h4v-32h2l2 41h-4q0 10 11 29l-9 70l4 66l-2 5l3 13q-5 9 -21 9q-5 0 -10 -7zM304 1463v-4h4v4h-4zM646 1463l4 -3h4v3h-8zM794 1462v-5l4 3v2h-4zM882 1459v-2l4 3v2zM345 1460v-8h4v8h-4zM738 1456v-6h3v6h-3zM152 1455v-21h2v21h-2zM142 1380v-9h2v9h-2
zM855 1377l2 -6h4v2l-2 4h-4zM338 1374v-5h2v5h-2zM509 1366v-28h4l-2 28h-2zM761 1356v-10l2 -6h2v2h2q-2 14 -6 14zM591 1353q6 -22 10 -26v-11h4v19l2 2q-5 16 -8 16h-8zM626 1349v-11h2v11h-2zM254 1342v-19h2v19h-2zM864 1331l-5 -5h2l5 5h-2zM841 1316l-4 -3l8 -8h2
q-2 11 -6 11zM872 1306l16 -8v3h6l4 -10l-4 -3l-26 17l2 1h2zM790 1284v-7h4l-2 -4l2 -25l-4 -48v-10l-2 -13q6 -14 12 -14h18q7 0 13 18l-6 50v13l2 19q-7 11 -29 18l-4 3h-4zM617 1186v-6h2v6h-2zM646 1172v-4l4 -3h4v1zM876 1172v-2l6 -4h2v4zM788 1168l-2 -2l2 -5h4v4z
M476 1163v-1h6v3zM730 1163l4 -2l2 1v3zM53 1161v-2l4 -2h2v2zM806 1159l-2 -9v-5q0 -10 6 -11l2 2v1l-2 22h-4zM224 1105l36 -3l9 2l31 -3l2 4l20 -7l23 4h59q16 0 16 -11v-8q0 -15 -20 -17q-4 -16 -4 -45v-31q-8 -69 -8 -108v-37q0 -57 10 -57q23 -2 23 -14v-4
q0 -16 -5 -28h-8q-35 0 -45 -3q0 4 -27 4l-6 -1l-2 4h-6l-12 -7l-11 2l-2 -2h-2v2l-2 -2l-10 2l-2 -2h-2l-8 2l-11 -5l-4 3v-3h-2l-10 6l-2 -1h-20q-4 0 -5 5l2 18h-2l2 2v1l-2 1v2q0 5 25 12l2 6l-4 55v9q0 45 8 81l-4 25l2 2l-2 37v25l2 37q-4 3 -27 5l-4 29h2l-2 1v2z
M901 1105q12 -3 12 -11q0 -23 -12 -23q-13 0 -13 -36l8 -70l-8 -23l8 -114l-4 -49l11 -2l6 1q8 0 8 -7h2q0 -32 -25 -32l-37 -4l-20 6h-6l-2 -2l-2 2h-2l-7 -2l-10 9l6 9q-16 68 -16 92h-2l4 9l-12 67l2 1v2q-8 37 -17 57h-4v-3h-4q0 4 10 4l2 10q-6 0 -6 5l4 3v3q-6 0 -6 3
h4v6h-4v2l2 1l-2 20h-2q0 -23 -4 -23l2 -1v-12l-2 -2v-1h2l-2 -2v-18h4l-2 -8l2 -19l-2 -46v-31l-2 -98q0 -3 19 -14v-7q0 -14 -9 -18l-2 2h-43l-22 -2q-21 0 -21 11l2 9l-2 4q0 8 33 12l2 7v8l-6 25l-2 56l6 51l-2 2l2 5l-4 93l6 35q-3 5 -6 5h-21q0 6 -6 6v7l-2 21
q3 0 6 5l2 1h99q16 0 16 -23l15 -79q8 -36 14 -36h4q5 0 8 11v5l-2 7l4 3v3l-4 4v60q0 10 -10 14h-4l-2 -2h-2q-9 15 -9 28l9 5h14q31 0 41 -2q16 3 17 5zM148 1102l30 -11l-2 -23v-53l-4 -44l6 -71v-79q0 -79 -18 -79l-2 -1h-2l-31 2l-39 -2l-33 2l-6 -1q-5 12 -14 18l4 57
l-4 59l2 17q0 67 -6 161q4 13 4 37q0 6 55 10l45 -3q0 3 15 4zM624 1102q8 -1 12 -6v-35l-6 -4l2 -4h-2l-8 -2v4h6v2h-7q-16 0 -20 -7v-2l4 -4l-8 -1q0 -32 18 -89v-32l17 -136v-2h-4v-6l8 -1v1l-4 4v2l8 -6q20 -2 20 -14v-19q0 -10 -6 -11l-12 1l-27 -1h-8l-29 2l-6 -1
q-18 0 -18 14q0 22 14 22q13 6 13 13q-3 30 -19 30l-14 1q-17 -4 -17 -15v-23q-4 0 -4 4h-2v-7l4 -3h4v3h2l11 -11l2 -15v-2q0 -12 -31 -12h-2l-14 1l-25 -1h-25l-4 12q0 24 21 24l8 4q0 73 10 104l2 15v26q0 25 6 49h-2l4 10l-2 22v4l7 53q-2 2 -31 5l-2 2v1h2l-2 1v17l2 7
h-2q0 6 18 10l84 -3q21 0 54 5zM314 1096l2 -21v-4h10q-5 25 -10 25h-2zM146 1086v-2l4 -2l2 1v1l-2 2h-4zM513 1076v-3h2v5h6l14 1v1h-18q-4 0 -4 -4zM148 1073v-5h4v3zM886 1072v-3h6v3h-6zM299 1053v-53q0 -47 17 -47l8 -2l14 4l-2 16l4 61v29q-5 7 -16 7q-25 -5 -25 -15
zM613 1065h2l4 3h-2zM105 1065q0 -4 -9 -8l-4 -16l2 -1l-2 -7v-35l2 -30l-2 -36v-83q0 -28 4 -36l-2 -9v-11q0 -8 7 -8v-1h-5l-2 4h-2v-6l4 -3l21 7q0 7 4 7l-2 2v51l4 82v5l-4 89v18h2l2 -10h2v18h-4v-2h-2q0 15 -12 15v1h4v3h-6zM92 1059v-1h4v4zM593 1055v-4h4l2 7h-2z
M581 1044v-7h4v7h-4zM554 1039v-7h2v7h-2zM123 1021v-21h2v21h-2zM544 1000l-3 -4v-6l1 2h2l-3 -17v-6l-2 -52l2 -7q-10 -16 -10 -39v-1q0 -10 13 -10h14q8 2 12 11l-4 5l2 5q-6 11 -10 74l2 16q0 21 -16 21v1h8l8 -3l-4 8zM338 978v-11h3v4l-1 7h-2zM747 975l2 -28h2v28h-4
zM64 971v-20h4v17zM831 962q0 -8 10 -31v-6h2l2 21l-2 15l-10 1h-2zM864 958v-11h4v11h-4zM302 954q0 -3 10 -4q0 3 -10 4zM500 935v-9l3 -2v11h-3zM500 921v-6l3 3v3h-3zM300 892v-11l2 -5l-2 -6l-1 -86q8 -6 15 -6q16 0 26 10l-2 14l2 19q-6 80 -16 80l-10 2
q-12 0 -14 -11zM500 875l-2 -19h3l2 18l-2 1h-1zM527 864v-4l4 -3h6v3zM562 857h6v3h-2zM244 822v-5h2v5h-2zM570 822l-2 -1v-1h6zM525 810v-6h2q0 8 6 13v1q-4 0 -8 -8zM855 795v-6h4v6h-4zM386 790v-9l6 4v1zM295 782v-1q2 -6 9 -6v3q-5 0 -5 4h-4zM884 781v-6h4l2 -1l2 1
q-3 6 -6 6h-2zM314 760l2 -11h8l4 12q-3 16 -8 16q-4 0 -6 -17zM716 771h2l4 3h-2zM129 763v-2l2 -4h4v6h-6zM43 716l37 -5l12 2l33 -3l2 4h4q0 -3 8 -3l5 -4h2l30 4h60q16 0 16 -11v-12q0 -11 -20 -15q-5 -4 -8 -115q-5 -18 -5 -85v-33q0 -64 9 -64q22 -4 26 -11v-11
q0 -28 -10 -28h-6q-29 0 -47 -3q0 4 -21 4h-10l-2 -1h-2l-2 4h-8l-11 -7l-12 2l-2 -2l-2 2h-2l-2 -2h-2l-8 2l-2 -2h-2l-7 2q-12 -2 -12 -5l-2 2h-4v-3h-4q0 6 -17 6v1l-14 -3l-6 7l2 20h-2l2 4l-2 4l25 11l4 7l-5 68q3 62 9 87l-4 25l2 6q-1 30 -4 30l2 7v24l-2 5l4 38
l-11 2h-14q-8 0 -8 37zM357 716l31 -6l55 1l21 5h4l10 -78l2 -6q0 -13 -27 -13l-16 -3q-25 3 -25 16l4 12q-4 8 -16 8l-2 1v3l2 1v2l-2 1h-2q-14 -11 -14 -21q0 -17 6 -41q-6 -12 -6 -20l2 -20l-2 -2v-1q0 -4 18 -13v-2h8l4 2v2l-2 -2h-6l12 11l-2 11q10 9 19 9h16
q10 -4 10 -10l-2 -5q4 -19 4 -56v-8q0 -19 -16 -24q-33 0 -33 6l-2 11l2 5q0 9 -18 11q-12 -1 -12 -11l4 -13l-4 -20l2 -8v-4l-5 -21l3 -26h-3v12h-2v-15l2 1h2v-1q0 -18 -12 -20v-1q1 -3 10 -6v2l-2 4l9 -4l-2 -2v-1l4 -3h6l6 4h-8v2q9 0 12 16l-4 36q3 14 8 14l25 -2l20 2
q6 0 6 -4l2 -1h1l-1 -17v-19q0 -25 3 -32q-3 -50 -11 -50h-51l-14 3q-25 -1 -25 -3l-10 1h-13l-34 -1q-2 4 -11 4h-10v1l2 2v1l-4 9l4 36l-2 5l2 2h15l2 -2q14 0 18 18l-4 24l2 12v35l2 5l-2 2l2 14v2q0 18 -4 25l2 9v5l-2 2l2 1l-4 39l2 11l-2 7q6 43 6 75q-15 8 -37 8h-2
v10l2 26l-2 6zM537 711h17l37 -2h59q43 0 51 -11v-3l-6 -51l7 -66q0 -55 -15 -55l-14 -14l20 -21h-2l2 -1v-2l2 -19l-4 -93q0 -5 23 -12q6 -7 6 -18v-2q0 -18 -25 -18l-4 3l-61 -3v2l-2 -2h-2l-11 3l-41 -3l-35 3l-10 -1q-8 2 -8 7h-2l2 16v14q0 3 20 4q7 6 7 11l2 74l-2 5
l2 2l-2 12l-2 56l2 23l-2 15q6 8 6 14v28l2 40l-2 7l2 4q0 11 -35 14l-4 32q4 8 22 8zM878 711q32 -9 35 -13l-2 -7v-67q0 -29 -6 -53q8 -47 8 -77l-2 -15l2 -31v-24q0 -97 -15 -97q0 -2 -14 -2l-2 1v-1l-25 2l-43 -2l-30 4l-11 -3v1l-6 6l2 1v2l-12 12l2 15v5l2 1v1h-2l2 5
l2 33l-4 73l2 20h-2l2 1v1l-6 159l4 36l-2 1q11 10 51 10l10 1l41 -3l2 2v-3h3q1 5 14 5zM139 705l3 -28h6l2 1h2l-10 27h-3zM880 695l-2 -2v-1l6 -3v3zM353 689l-2 -1v-1l2 -10h6v8h4v3zM451 681v-1h2l4 2v2h-2zM882 680v-6h2v6h-2zM123 663v-67q0 -45 21 -45h6l14 4l-2 16
l6 77v14q0 9 -16 13q-29 -8 -29 -12zM599 671v-4h4q3 0 6 7l-2 1zM605 637v-38l2 -8q-4 -16 -4 -51l-2 1h-2l-2 -1v-9h2l10 2v1l-2 1v2q25 0 25 23l2 -1h4v19h-4v-15h-2l-2 18l2 2l-2 6l-2 49h2l-4 18l4 3v3q-4 0 -9 9h-2q-12 0 -12 -12zM835 671q0 -4 -10 -7v4l-4 -2v-2h4
l-4 -18l2 -1l-2 -4l-1 -43l3 -35q-3 -13 -3 -40v-40l3 -106q0 -4 6 -4l2 -1v-2h-4l-7 5v-6l3 -3h2q6 4 16 4q10 6 10 13v44l-2 2v1h2l-2 1v24l2 1v2h-2l2 1v2l4 66q-2 71 -6 71l2 1v39l-2 7h4v-10h4v17l-4 3v-3q-3 0 -8 14l-8 1v1q6 0 6 3h-8zM851 667v-4l4 3v1h-4zM351 664
v-4h4v4h-4zM855 624v-22h2v22h-2zM164 574v-4l4 -3v10zM792 570v-21h4v18zM679 559v-6l4 3zM439 558v-9h2v9h-2zM127 553q1 -2 10 -5v3l-8 2h-2zM381 549v-5l3 -3h4q0 7 -6 8h-1zM661 509l6 -3h2l2 4l-2 2h-4zM412 509v-7h2v7h-2zM377 499v-2h4l3 8zM125 487v-17l2 -1l-2 -2
v-1l-2 -96q8 -5 16 -5q17 0 27 10v2l-2 18l4 11l-12 86q-8 6 -16 6q-15 0 -15 -11zM597 484l-2 -5l2 -2h4v7h-4zM599 466l2 -19v-5l2 -1v-1h-2l2 -2q-6 -29 -6 -54h-2l2 -1l-2 -7v-3q3 -12 18 -12h2q11 0 21 12l-2 21v19q0 8 -6 9l2 9v9l2 33q0 9 -17 11h-4q-5 0 -12 -18z
M343 455v-4l4 -3v7h-4zM341 442v-11h4v14zM217 377v-9l7 2v2zM119 369v-3l6 -4h4l-6 7h-4zM685 369v-3l6 -4h2v1l-4 6h-4zM591 368v-7l8 -2v3q-4 0 -4 6h-4zM139 350l1 -17h8l6 15l-6 15h-2q-4 0 -4 -11zM611 358v-3h6l-4 -15l4 -10h2l2 6l-2 5l3 16l-3 2zM652 348v-1l1 -3
h3v4h-4zM270 334h-7v-2h19l3 2v1zM448 311q41 -3 41 -15l1 -17v-7l-1 -10l2 -14l-1 -58l-1 -1l1 -1q-6 -49 -6 -77v-2q0 -76 9 -76q29 0 29 -12v-6q0 -21 -23 -21v-2l-6 3l-9 -3l-8 2h-3l-8 -2l-7 2l-40 -2q0 2 -9 5v16l-3 13q23 3 23 11q0 12 8 23l-2 7l2 38l-8 46l2 17v17
l-2 18l5 26q-4 7 -8 7h-1l-12 -8l-4 1l-3 -2h-3l-7 9l2 13v18q7 7 33 19q5 25 17 25zM663 311q9 0 21 -5l-2 -1v-17l2 -17q0 -7 -28 -8l-29 3q-10 -2 -10 -9h-1l1 -1v-26l2 -11l-2 -4q2 -5 6 -5l17 8q21 0 39 -19l6 -5v-2l-4 -13l4 -44l-1 -4l1 -10v-1l-3 -44l2 -11
q-10 -42 -18 -42q-3 -5 -26 -20l-6 -2l-1 1h-1l-29 -2q-29 6 -42 24l3 3q-9 20 -9 36l6 51q3 0 3 3l1 1h2l18 -1l18 3h4q5 0 9 -16l-3 -30l3 -20h-5v-4q2 -3 9 -3h1v1q0 2 -4 2l-1 2v2l4 -2h3q11 0 11 8l-1 14l1 76l2 4q-4 9 -10 9v1l1 1l-1 4h-5v-4h3v-2q-26 -14 -36 -14
h-16l-11 6v2h1l-3 29v6l3 109q3 0 10 7zM291 310q44 0 44 -8q22 -13 22 -30l3 -23l-1 -26l1 -14q-4 -16 -4 -29l4 -85h-1l1 -1v-52q0 -26 -40 -45l-5 -1l-6 1l-23 -2q-35 0 -56 28l1 3l2 20l-2 6l2 9l-3 46l1 10v19l-1 18l1 15l-2 58h-2l2 1l-2 5v1l4 44l-1 6q22 26 61 26z
M123 309q46 0 46 -10q10 -3 19 -10l-1 -14l4 -57l-4 -36q-10 -6 -16 -30q-10 -13 -31 -61q-21 -39 -21 -45v-4q6 -7 26 -7h17l15 1q0 -4 2 -4l-1 -15v-14q0 -5 -6 -5l-45 2l-8 -1l-15 1l-30 -3q-12 2 -17 4q5 41 10 41l-3 4q10 48 33 76q29 51 38 76v14l4 26l-2 11l2 3
q-7 10 -13 11q-11 0 -13 -25l1 -3h-1l1 -1v-18q0 -12 -4 -12h-32l-7 2l-3 -3l-9 7l2 1v30l-2 7q8 45 19 45q23 16 45 16zM334 279v-5h3v5h-3zM294 272l-3 -3v-4q13 1 13 3v2l-2 1v1l-1 -1h-2zM249 269v-1l3 2v1zM613 264v-3h3l1 5h-1zM286 183q0 -13 3 -22h-1l1 -1v-1l2 -32
l1 -3l-1 -1l1 -15v-6l-1 -4l1 -1l-6 -53q-4 0 -4 -2l4 -3v5l5 -4l8 -7h2l8 6v38q-2 0 -2 -6h-2v4l2 6l1 -1h3v12l-3 3v4h4v5h-3l2 16l-2 16h3v7h-3v5l-1 4l1 4l-1 1l1 1h-1l1 1v1l-1 1v1h1l-1 1v6l1 1l-1 1v32h3v8q-7 6 -9 53l-1 1h-5q-7 0 -10 -82zM255 263l-3 -17v-23l5 4
l-1 7l3 26l-2 3h-2zM111 261v-4h2l3 2v2h-5zM429 237l6 -3l2 1v5h-3zM252 213v-4h4v4h-4zM614 211v-12h2l8 8l-8 4h-2zM252 206v-6h3v6h-3zM137 203v-5h3v5h-3zM311 169v-5h3v5h-3zM333 122v-15h2v13zM172 59h18l2 -2l-1 -1h-1l-18 1v2zM630 49l2 -1h1v4zM671 46v-1l2 -2v3
h-2zM304 46l1 -1h2l-2 -7l-1 1h-2l-1 -1v1zM113 42v-3h4v3h-4zM468 35v-9h3v11zM484 35v-5l3 -2h2l2 2q-2 5 -5 5h-2zM62 25v-20h2l1 20h-3zM65 -5h6l17 -1v-2l-10 -1h-3l-5 1l-6 -1h-2v1z" />
    <glyph glyph-name="currency" unicode="&#xa4;" horiz-adv-x="924" 
d="M377 1499q41 -3 41 -14v-1q0 -22 -22 -22l-4 -10v-20l4 -90l-2 -15l2 -5l-2 -18v-2l-2 -1l2 -2v-70l2 -36q-3 -5 -6 -43q-6 -18 -25 -18l-66 -5q-13 0 -30 10q-8 0 -8 3t-5 3v5q0 32 -6 50l2 7l-2 10l2 7l-4 165l8 63q0 6 -26 12l-8 8q6 0 6 3l-2 15l4 5l24 -1l70 1
q13 5 53 6zM827 1499l45 -3h12l17 2q9 -3 10 -6v-8l-2 -6l2 -5v-6q0 -8 -10 -8v3q-11 0 -15 -7l2 -82q0 -32 -14 -39q0 -9 -23 -14l-4 -8q0 -3 31 -24l4 -16v-30l-4 -59v-2q0 -11 31 -13l2 -2v-9l4 -27l-10 -4q0 3 -15 4l-49 -1l-23 1v-3h-2q-4 0 -4 5l-90 -7q-16 3 -16 11
h4v5l-2 13q0 11 20 11l6 5v18l2 2l-2 1v36l4 17l-4 144l4 32l-2 1l2 10v6q0 20 -24 20q-13 3 -13 6v4l1 4l-1 7v10q0 4 15 5h24l72 -2q11 8 15 8zM86 1496l29 -1h72q16 0 16 -14v-17q0 -11 -23 -14l-4 -12q0 -88 -4 -121l2 -22l-2 -114q0 -47 -32 -47l-15 -4l-8 2l-66 -2
q-14 0 -30 15q6 2 10 10l-4 11l2 11l-2 45v8q0 10 -25 14l2 5l-2 6l2 1v2l-4 8q4 11 12 11l39 -3h39q10 0 13 -7q0 -25 -13 -25q-11 0 -14 -5l2 -54l2 -7h-2l6 -6l2 2v1l-2 2h4v-3h2q27 0 27 11v1l-2 54l2 21l-2 10l4 58q-3 6 -6 6l2 11l2 62l-4 43l-6 3h-17l-10 1l-2 -1
l-8 8l4 3v7l-2 12q2 6 14 14zM663 1496q10 -2 10 -9v-6l-6 -21l-2 2h-2q-13 0 -13 -28l8 -78l-8 -23l8 -107l-6 -54l11 -4l10 1l6 -6v-6q0 -27 -23 -27q-34 -3 -37 -7q0 6 -20 9h-6l-2 -2l-6 2l-5 -2l-10 10l4 8l-16 89l2 15l-4 17l2 4q-8 59 -21 100h4v3h-4v-3l-6 3l-2 -5
h-2v6h10v3l-2 1l2 2v2l-4 6l2 7h-4l2 7v2h-4l4 5v1h-4l2 1v16h-4v-10l-2 -15l2 -2l-4 -32h4v-45l-2 -6l2 -1l-2 -83v-46l-2 -20q6 -11 18 -11l1 -1v-18q0 -7 -9 -10l-6 3l-2 -1h-39l-18 -2q-16 0 -23 9l4 9l-4 7q7 7 16 7q19 4 19 7v15q-6 25 -6 70v16l2 9l-2 1l6 39l-2 9
l-2 89l6 29q-4 7 -8 7h-19q-8 8 -8 29v5l6 6h105q12 -3 12 -25v-1l-2 -5l17 -66l-2 -1v-1q9 -39 16 -39h2q5 0 10 11l-2 8v6h4v5h-4l-2 21v46q0 10 -14 10l-2 -2q-6 6 -11 25q2 6 9 8h20l37 -2zM326 1491l-6 -24l6 -1l2 1v1h-2l4 16l-2 7h-2zM810 1488v-20h4l4 3l-2 17h-6z
M96 1481v-4h4v4h-4zM796 1453l2 -1v-2l-6 -109l4 -7l-2 1h-4v-7h8l4 3v2h-6v1q33 0 33 47q6 32 6 61v6q0 7 -10 9q-5 9 -9 10q-11 -3 -20 -14zM310 1457l-2 -133q12 -23 12 -55l-2 -15l2 -23v-2h4l-8 -46q-8 0 -8 -4l2 -4h16v4h-6v1q12 0 12 14l4 22l-6 20h-4v-3h-4l2 7v7
l-2 1v1q8 0 8 3v11h4v-32h2l2 41h-4q0 10 11 29l-9 70l4 66l-2 5l3 13q-5 9 -21 9q-5 0 -10 -7zM304 1463v-4h4v4h-4zM646 1463l4 -3h4v3h-8zM794 1462v-5l4 3v2h-4zM882 1459v-2l4 3v2zM345 1460v-8h4v8h-4zM738 1456v-6h3v6h-3zM152 1455v-21h2v21h-2zM142 1380v-9h2v9h-2
zM855 1377l2 -6h4v2l-2 4h-4zM338 1374v-5h2v5h-2zM509 1366v-28h4l-2 28h-2zM761 1356v-10l2 -6h2v2h2q-2 14 -6 14zM591 1353q6 -22 10 -26v-11h4v19l2 2q-5 16 -8 16h-8zM626 1349v-11h2v11h-2zM254 1342v-19h2v19h-2zM864 1331l-5 -5h2l5 5h-2zM841 1316l-4 -3l8 -8h2
q-2 11 -6 11zM872 1306l16 -8v3h6l4 -10l-4 -3l-26 17l2 1h2zM790 1284v-7h4l-2 -4l2 -25l-4 -48v-10l-2 -13q6 -14 12 -14h18q7 0 13 18l-6 50v13l2 19q-7 11 -29 18l-4 3h-4zM617 1186v-6h2v6h-2zM646 1172v-4l4 -3h4v1zM876 1172v-2l6 -4h2v4zM788 1168l-2 -2l2 -5h4v4z
M476 1163v-1h6v3zM730 1163l4 -2l2 1v3zM53 1161v-2l4 -2h2v2zM806 1159l-2 -9v-5q0 -10 6 -11l2 2v1l-2 22h-4zM224 1105l36 -3l9 2l31 -3l2 4l20 -7l23 4h59q16 0 16 -11v-8q0 -15 -20 -17q-4 -16 -4 -45v-31q-8 -69 -8 -108v-37q0 -57 10 -57q23 -2 23 -14v-4
q0 -16 -5 -28h-8q-35 0 -45 -3q0 4 -27 4l-6 -1l-2 4h-6l-12 -7l-11 2l-2 -2h-2v2l-2 -2l-10 2l-2 -2h-2l-8 2l-11 -5l-4 3v-3h-2l-10 6l-2 -1h-20q-4 0 -5 5l2 18h-2l2 2v1l-2 1v2q0 5 25 12l2 6l-4 55v9q0 45 8 81l-4 25l2 2l-2 37v25l2 37q-4 3 -27 5l-4 29h2l-2 1v2z
M901 1105q12 -3 12 -11q0 -23 -12 -23q-13 0 -13 -36l8 -70l-8 -23l8 -114l-4 -49l11 -2l6 1q8 0 8 -7h2q0 -32 -25 -32l-37 -4l-20 6h-6l-2 -2l-2 2h-2l-7 -2l-10 9l6 9q-16 68 -16 92h-2l4 9l-12 67l2 1v2q-8 37 -17 57h-4v-3h-4q0 4 10 4l2 10q-6 0 -6 5l4 3v3q-6 0 -6 3
h4v6h-4v2l2 1l-2 20h-2q0 -23 -4 -23l2 -1v-12l-2 -2v-1h2l-2 -2v-18h4l-2 -8l2 -19l-2 -46v-31l-2 -98q0 -3 19 -14v-7q0 -14 -9 -18l-2 2h-43l-22 -2q-21 0 -21 11l2 9l-2 4q0 8 33 12l2 7v8l-6 25l-2 56l6 51l-2 2l2 5l-4 93l6 35q-3 5 -6 5h-21q0 6 -6 6v7l-2 21
q3 0 6 5l2 1h99q16 0 16 -23l15 -79q8 -36 14 -36h4q5 0 8 11v5l-2 7l4 3v3l-4 4v60q0 10 -10 14h-4l-2 -2h-2q-9 15 -9 28l9 5h14q31 0 41 -2q16 3 17 5zM148 1102l30 -11l-2 -23v-53l-4 -44l6 -71v-79q0 -79 -18 -79l-2 -1h-2l-31 2l-39 -2l-33 2l-6 -1q-5 12 -14 18l4 57
l-4 59l2 17q0 67 -6 161q4 13 4 37q0 6 55 10l45 -3q0 3 15 4zM624 1102q8 -1 12 -6v-35l-6 -4l2 -4h-2l-8 -2v4h6v2h-7q-16 0 -20 -7v-2l4 -4l-8 -1q0 -32 18 -89v-32l17 -136v-2h-4v-6l8 -1v1l-4 4v2l8 -6q20 -2 20 -14v-19q0 -10 -6 -11l-12 1l-27 -1h-8l-29 2l-6 -1
q-18 0 -18 14q0 22 14 22q13 6 13 13q-3 30 -19 30l-14 1q-17 -4 -17 -15v-23q-4 0 -4 4h-2v-7l4 -3h4v3h2l11 -11l2 -15v-2q0 -12 -31 -12h-2l-14 1l-25 -1h-25l-4 12q0 24 21 24l8 4q0 73 10 104l2 15v26q0 25 6 49h-2l4 10l-2 22v4l7 53q-2 2 -31 5l-2 2v1h2l-2 1v17l2 7
h-2q0 6 18 10l84 -3q21 0 54 5zM314 1096l2 -21v-4h10q-5 25 -10 25h-2zM146 1086v-2l4 -2l2 1v1l-2 2h-4zM513 1076v-3h2v5h6l14 1v1h-18q-4 0 -4 -4zM148 1073v-5h4v3zM886 1072v-3h6v3h-6zM299 1053v-53q0 -47 17 -47l8 -2l14 4l-2 16l4 61v29q-5 7 -16 7q-25 -5 -25 -15
zM613 1065h2l4 3h-2zM105 1065q0 -4 -9 -8l-4 -16l2 -1l-2 -7v-35l2 -30l-2 -36v-83q0 -28 4 -36l-2 -9v-11q0 -8 7 -8v-1h-5l-2 4h-2v-6l4 -3l21 7q0 7 4 7l-2 2v51l4 82v5l-4 89v18h2l2 -10h2v18h-4v-2h-2q0 15 -12 15v1h4v3h-6zM92 1059v-1h4v4zM593 1055v-4h4l2 7h-2z
M581 1044v-7h4v7h-4zM554 1039v-7h2v7h-2zM123 1021v-21h2v21h-2zM544 1000l-3 -4v-6l1 2h2l-3 -17v-6l-2 -52l2 -7q-10 -16 -10 -39v-1q0 -10 13 -10h14q8 2 12 11l-4 5l2 5q-6 11 -10 74l2 16q0 21 -16 21v1h8l8 -3l-4 8zM338 978v-11h3v4l-1 7h-2zM747 975l2 -28h2v28h-4
zM64 971v-20h4v17zM831 962q0 -8 10 -31v-6h2l2 21l-2 15l-10 1h-2zM864 958v-11h4v11h-4zM302 954q0 -3 10 -4q0 3 -10 4zM500 935v-9l3 -2v11h-3zM500 921v-6l3 3v3h-3zM300 892v-11l2 -5l-2 -6l-1 -86q8 -6 15 -6q16 0 26 10l-2 14l2 19q-6 80 -16 80l-10 2
q-12 0 -14 -11zM500 875l-2 -19h3l2 18l-2 1h-1zM527 864v-4l4 -3h6v3zM562 857h6v3h-2zM244 822v-5h2v5h-2zM570 822l-2 -1v-1h6zM525 810v-6h2q0 8 6 13v1q-4 0 -8 -8zM855 795v-6h4v6h-4zM386 790v-9l6 4v1zM295 782v-1q2 -6 9 -6v3q-5 0 -5 4h-4zM884 781v-6h4l2 -1l2 1
q-3 6 -6 6h-2zM314 760l2 -11h8l4 12q-3 16 -8 16q-4 0 -6 -17zM716 771h2l4 3h-2zM129 763v-2l2 -4h4v6h-6zM43 716l37 -5l12 2l33 -3l2 4h4q0 -3 8 -3l5 -4h2l30 4h60q16 0 16 -11v-12q0 -11 -20 -15q-5 -4 -8 -115q-5 -18 -5 -85v-33q0 -64 9 -64q22 -4 26 -11v-11
q0 -28 -10 -28h-6q-29 0 -47 -3q0 4 -21 4h-10l-2 -1h-2l-2 4h-8l-11 -7l-12 2l-2 -2l-2 2h-2l-2 -2h-2l-8 2l-2 -2h-2l-7 2q-12 -2 -12 -5l-2 2h-4v-3h-4q0 6 -17 6v1l-14 -3l-6 7l2 20h-2l2 4l-2 4l25 11l4 7l-5 68q3 62 9 87l-4 25l2 6q-1 30 -4 30l2 7v24l-2 5l4 38
l-11 2h-14q-8 0 -8 37zM357 716l31 -6l55 1l21 5h4l10 -78l2 -6q0 -13 -27 -13l-16 -3q-25 3 -25 16l4 12q-4 8 -16 8l-2 1v3l2 1v2l-2 1h-2q-14 -11 -14 -21q0 -17 6 -41q-6 -12 -6 -20l2 -20l-2 -2v-1q0 -4 18 -13v-2h8l4 2v2l-2 -2h-6l12 11l-2 11q10 9 19 9h16
q10 -4 10 -10l-2 -5q4 -19 4 -56v-8q0 -19 -16 -24q-33 0 -33 6l-2 11l2 5q0 9 -18 11q-12 -1 -12 -11l4 -13l-4 -20l2 -8v-4l-5 -21l3 -26h-3v12h-2v-15l2 1h2v-1q0 -18 -12 -20v-1q1 -3 10 -6v2l-2 4l9 -4l-2 -2v-1l4 -3h6l6 4h-8v2q9 0 12 16l-4 36q3 14 8 14l25 -2l20 2
q6 0 6 -4l2 -1h1l-1 -17v-19q0 -25 3 -32q-3 -50 -11 -50h-51l-14 3q-25 -1 -25 -3l-10 1h-13l-34 -1q-2 4 -11 4h-10v1l2 2v1l-4 9l4 36l-2 5l2 2h15l2 -2q14 0 18 18l-4 24l2 12v35l2 5l-2 2l2 14v2q0 18 -4 25l2 9v5l-2 2l2 1l-4 39l2 11l-2 7q6 43 6 75q-15 8 -37 8h-2
v10l2 26l-2 6zM537 711h17l37 -2h59q43 0 51 -11v-3l-6 -51l7 -66q0 -55 -15 -55l-14 -14l20 -21h-2l2 -1v-2l2 -19l-4 -93q0 -5 23 -12q6 -7 6 -18v-2q0 -18 -25 -18l-4 3l-61 -3v2l-2 -2h-2l-11 3l-41 -3l-35 3l-10 -1q-8 2 -8 7h-2l2 16v14q0 3 20 4q7 6 7 11l2 74l-2 5
l2 2l-2 12l-2 56l2 23l-2 15q6 8 6 14v28l2 40l-2 7l2 4q0 11 -35 14l-4 32q4 8 22 8zM878 711q32 -9 35 -13l-2 -7v-67q0 -29 -6 -53q8 -47 8 -77l-2 -15l2 -31v-24q0 -97 -15 -97q0 -2 -14 -2l-2 1v-1l-25 2l-43 -2l-30 4l-11 -3v1l-6 6l2 1v2l-12 12l2 15v5l2 1v1h-2l2 5
l2 33l-4 73l2 20h-2l2 1v1l-6 159l4 36l-2 1q11 10 51 10l10 1l41 -3l2 2v-3h3q1 5 14 5zM139 705l3 -28h6l2 1h2l-10 27h-3zM880 695l-2 -2v-1l6 -3v3zM353 689l-2 -1v-1l2 -10h6v8h4v3zM451 681v-1h2l4 2v2h-2zM882 680v-6h2v6h-2zM123 663v-67q0 -45 21 -45h6l14 4l-2 16
l6 77v14q0 9 -16 13q-29 -8 -29 -12zM599 671v-4h4q3 0 6 7l-2 1zM605 637v-38l2 -8q-4 -16 -4 -51l-2 1h-2l-2 -1v-9h2l10 2v1l-2 1v2q25 0 25 23l2 -1h4v19h-4v-15h-2l-2 18l2 2l-2 6l-2 49h2l-4 18l4 3v3q-4 0 -9 9h-2q-12 0 -12 -12zM835 671q0 -4 -10 -7v4l-4 -2v-2h4
l-4 -18l2 -1l-2 -4l-1 -43l3 -35q-3 -13 -3 -40v-40l3 -106q0 -4 6 -4l2 -1v-2h-4l-7 5v-6l3 -3h2q6 4 16 4q10 6 10 13v44l-2 2v1h2l-2 1v24l2 1v2h-2l2 1v2l4 66q-2 71 -6 71l2 1v39l-2 7h4v-10h4v17l-4 3v-3q-3 0 -8 14l-8 1v1q6 0 6 3h-8zM851 667v-4l4 3v1h-4zM351 664
v-4h4v4h-4zM855 624v-22h2v22h-2zM164 574v-4l4 -3v10zM792 570v-21h4v18zM679 559v-6l4 3zM439 558v-9h2v9h-2zM127 553q1 -2 10 -5v3l-8 2h-2zM381 549v-5l3 -3h4q0 7 -6 8h-1zM661 509l6 -3h2l2 4l-2 2h-4zM412 509v-7h2v7h-2zM377 499v-2h4l3 8zM125 487v-17l2 -1l-2 -2
v-1l-2 -96q8 -5 16 -5q17 0 27 10v2l-2 18l4 11l-12 86q-8 6 -16 6q-15 0 -15 -11zM597 484l-2 -5l2 -2h4v7h-4zM599 466l2 -19v-5l2 -1v-1h-2l2 -2q-6 -29 -6 -54h-2l2 -1l-2 -7v-3q3 -12 18 -12h2q11 0 21 12l-2 21v19q0 8 -6 9l2 9v9l2 33q0 9 -17 11h-4q-5 0 -12 -18z
M343 455v-4l4 -3v7h-4zM341 442v-11h4v14zM217 377v-9l7 2v2zM119 369v-3l6 -4h4l-6 7h-4zM685 369v-3l6 -4h2v1l-4 6h-4zM591 368v-7l8 -2v3q-4 0 -4 6h-4zM139 350l1 -17h8l6 15l-6 15h-2q-4 0 -4 -11zM611 358v-3h6l-4 -15l4 -10h2l2 6l-2 5l3 16l-3 2zM652 348v-1l1 -3
h3v4h-4zM270 334h-7v-2h19l3 2v1zM448 311q41 -3 41 -15l1 -17v-7l-1 -10l2 -14l-1 -58l-1 -1l1 -1q-6 -49 -6 -77v-2q0 -76 9 -76q29 0 29 -12v-6q0 -21 -23 -21v-2l-6 3l-9 -3l-8 2h-3l-8 -2l-7 2l-40 -2q0 2 -9 5v16l-3 13q23 3 23 11q0 12 8 23l-2 7l2 38l-8 46l2 17v17
l-2 18l5 26q-4 7 -8 7h-1l-12 -8l-4 1l-3 -2h-3l-7 9l2 13v18q7 7 33 19q5 25 17 25zM663 311q9 0 21 -5l-2 -1v-17l2 -17q0 -7 -28 -8l-29 3q-10 -2 -10 -9h-1l1 -1v-26l2 -11l-2 -4q2 -5 6 -5l17 8q21 0 39 -19l6 -5v-2l-4 -13l4 -44l-1 -4l1 -10v-1l-3 -44l2 -11
q-10 -42 -18 -42q-3 -5 -26 -20l-6 -2l-1 1h-1l-29 -2q-29 6 -42 24l3 3q-9 20 -9 36l6 51q3 0 3 3l1 1h2l18 -1l18 3h4q5 0 9 -16l-3 -30l3 -20h-5v-4q2 -3 9 -3h1v1q0 2 -4 2l-1 2v2l4 -2h3q11 0 11 8l-1 14l1 76l2 4q-4 9 -10 9v1l1 1l-1 4h-5v-4h3v-2q-26 -14 -36 -14
h-16l-11 6v2h1l-3 29v6l3 109q3 0 10 7zM291 310q44 0 44 -8q22 -13 22 -30l3 -23l-1 -26l1 -14q-4 -16 -4 -29l4 -85h-1l1 -1v-52q0 -26 -40 -45l-5 -1l-6 1l-23 -2q-35 0 -56 28l1 3l2 20l-2 6l2 9l-3 46l1 10v19l-1 18l1 15l-2 58h-2l2 1l-2 5v1l4 44l-1 6q22 26 61 26z
M123 309q46 0 46 -10q10 -3 19 -10l-1 -14l4 -57l-4 -36q-10 -6 -16 -30q-10 -13 -31 -61q-21 -39 -21 -45v-4q6 -7 26 -7h17l15 1q0 -4 2 -4l-1 -15v-14q0 -5 -6 -5l-45 2l-8 -1l-15 1l-30 -3q-12 2 -17 4q5 41 10 41l-3 4q10 48 33 76q29 51 38 76v14l4 26l-2 11l2 3
q-7 10 -13 11q-11 0 -13 -25l1 -3h-1l1 -1v-18q0 -12 -4 -12h-32l-7 2l-3 -3l-9 7l2 1v30l-2 7q8 45 19 45q23 16 45 16zM334 279v-5h3v5h-3zM294 272l-3 -3v-4q13 1 13 3v2l-2 1v1l-1 -1h-2zM249 269v-1l3 2v1zM613 264v-3h3l1 5h-1zM286 183q0 -13 3 -22h-1l1 -1v-1l2 -32
l1 -3l-1 -1l1 -15v-6l-1 -4l1 -1l-6 -53q-4 0 -4 -2l4 -3v5l5 -4l8 -7h2l8 6v38q-2 0 -2 -6h-2v4l2 6l1 -1h3v12l-3 3v4h4v5h-3l2 16l-2 16h3v7h-3v5l-1 4l1 4l-1 1l1 1h-1l1 1v1l-1 1v1h1l-1 1v6l1 1l-1 1v32h3v8q-7 6 -9 53l-1 1h-5q-7 0 -10 -82zM255 263l-3 -17v-23l5 4
l-1 7l3 26l-2 3h-2zM111 261v-4h2l3 2v2h-5zM429 237l6 -3l2 1v5h-3zM252 213v-4h4v4h-4zM614 211v-12h2l8 8l-8 4h-2zM252 206v-6h3v6h-3zM137 203v-5h3v5h-3zM311 169v-5h3v5h-3zM333 122v-15h2v13zM172 59h18l2 -2l-1 -1h-1l-18 1v2zM630 49l2 -1h1v4zM671 46v-1l2 -2v3
h-2zM304 46l1 -1h2l-2 -7l-1 1h-2l-1 -1v1zM113 42v-3h4v3h-4zM468 35v-9h3v11zM484 35v-5l3 -2h2l2 2q-2 5 -5 5h-2zM62 25v-20h2l1 20h-3zM65 -5h6l17 -1v-2l-10 -1h-3l-5 1l-6 -1h-2v1z" />
    <glyph glyph-name="yen" unicode="&#xa5;" horiz-adv-x="692" 
d="M119 807q-92 2 -92 11l-7 20v7q11 24 36 24h103l-150 614q3 17 32 25l101 -6h57q82 0 82 -108q30 -93 38 -215l26 -38q20 0 56 240q8 0 19 89q23 25 184 25q57 -3 57 -19v-6l-51 -285l7 -50q-51 -76 -51 -216q-9 0 -16 -50h52q58 0 58 -31v-18q0 -11 -29 -15h-89
q0 -6 -1 -12l-10 -23l118 -2l22 -6l-7 -43l-39 -6l-119 1l-16 -35l6 -121l-6 -152l6 -44q-4 -335 -31 -335q-29 -13 -82 -13h-19q-165 0 -165 38l-6 114l6 127l-6 139l12 152v50q0 51 -8 83h-40l-61 -2q-69 0 -69 28l-8 11q14 20 46 20l39 -2l39 1q-16 18 -24 34z" />
    <glyph glyph-name="brokenbar" unicode="&#xa6;" 
 />
    <glyph glyph-name="section" unicode="&#xa7;" horiz-adv-x="922" 
d="M377 1499q41 -3 41 -14v-1q0 -22 -22 -22l-4 -10v-20l4 -90l-2 -15l2 -5l-2 -18v-2l-2 -1l2 -2v-70l2 -36q-3 -5 -6 -43q-6 -18 -25 -18l-66 -5q-13 0 -30 10q-8 0 -8 3t-5 3v5q0 32 -6 50l2 7l-2 10l2 7l-4 165l8 63q0 6 -26 12l-8 8q6 0 6 3l-2 15l4 5l24 -1l70 1
q13 5 53 6zM827 1499l45 -3h12l17 2q9 -3 10 -6v-8l-2 -6l2 -5v-6q0 -8 -10 -8v3q-11 0 -15 -7l2 -82q0 -32 -14 -39q0 -9 -23 -14l-4 -8q0 -3 31 -24l4 -16v-30l-4 -59v-2q0 -11 31 -13l2 -2v-9l4 -27l-10 -4q0 3 -15 4l-49 -1l-23 1v-3h-2q-4 0 -4 5l-90 -7q-16 3 -16 11
h4v5l-2 13q0 11 20 11l6 5v18l2 2l-2 1v36l4 17l-4 144l4 32l-2 1l2 10v6q0 20 -24 20q-13 3 -13 6v4l1 4l-1 7v10q0 4 15 5h24l72 -2q11 8 15 8zM86 1496l29 -1h72q16 0 16 -14v-17q0 -11 -23 -14l-4 -12q0 -88 -4 -121l2 -22l-2 -114q0 -47 -32 -47l-15 -4l-8 2l-66 -2
q-14 0 -30 15q6 2 10 10l-4 11l2 11l-2 45v8q0 10 -25 14l2 5l-2 6l2 1v2l-4 8q4 11 12 11l39 -3h39q10 0 13 -7q0 -25 -13 -25q-11 0 -14 -5l2 -54l2 -7h-2l6 -6l2 2v1l-2 2h4v-3h2q27 0 27 11v1l-2 54l2 21l-2 10l4 58q-3 6 -6 6l2 11l2 62l-4 43l-6 3h-17l-10 1l-2 -1
l-8 8l4 3v7l-2 12q2 6 14 14zM663 1496q10 -2 10 -9v-6l-6 -21l-2 2h-2q-13 0 -13 -28l8 -78l-8 -23l8 -107l-6 -54l11 -4l10 1l6 -6v-6q0 -27 -23 -27q-34 -3 -37 -7q0 6 -20 9h-6l-2 -2l-6 2l-5 -2l-10 10l4 8l-16 89l2 15l-4 17l2 4q-8 59 -21 100h4v3h-4v-3l-6 3l-2 -5
h-2v6h10v3l-2 1l2 2v2l-4 6l2 7h-4l2 7v2h-4l4 5v1h-4l2 1v16h-4v-10l-2 -15l2 -2l-4 -32h4v-45l-2 -6l2 -1l-2 -83v-46l-2 -20q6 -11 18 -11l1 -1v-18q0 -7 -9 -10l-6 3l-2 -1h-39l-18 -2q-16 0 -23 9l4 9l-4 7q7 7 16 7q19 4 19 7v15q-6 25 -6 70v16l2 9l-2 1l6 39l-2 9
l-2 89l6 29q-4 7 -8 7h-19q-8 8 -8 29v5l6 6h105q12 -3 12 -25v-1l-2 -5l17 -66l-2 -1v-1q9 -39 16 -39h2q5 0 10 11l-2 8v6h4v5h-4l-2 21v46q0 10 -14 10l-2 -2q-6 6 -11 25q2 6 9 8h20l37 -2zM326 1491l-6 -24l6 -1l2 1v1h-2l4 16l-2 7h-2zM810 1488v-20h4l4 3l-2 17h-6z
M96 1481v-4h4v4h-4zM796 1453l2 -1v-2l-6 -109l4 -7l-2 1h-4v-7h8l4 3v2h-6v1q33 0 33 47q6 32 6 61v6q0 7 -10 9q-5 9 -9 10q-11 -3 -20 -14zM310 1457l-2 -133q12 -23 12 -55l-2 -15l2 -23v-2h4l-8 -46q-8 0 -8 -4l2 -4h16v4h-6v1q12 0 12 14l4 22l-6 20h-4v-3h-4l2 7v7
l-2 1v1q8 0 8 3v11h4v-32h2l2 41h-4q0 10 11 29l-9 70l4 66l-2 5l3 13q-5 9 -21 9q-5 0 -10 -7zM304 1463v-4h4v4h-4zM646 1463l4 -3h4v3h-8zM794 1462v-5l4 3v2h-4zM882 1459v-2l4 3v2zM345 1460v-8h4v8h-4zM738 1456v-6h3v6h-3zM152 1455v-21h2v21h-2zM142 1380v-9h2v9h-2
zM855 1377l2 -6h4v2l-2 4h-4zM338 1374v-5h2v5h-2zM509 1366v-28h4l-2 28h-2zM761 1356v-10l2 -6h2v2h2q-2 14 -6 14zM591 1353q6 -22 10 -26v-11h4v19l2 2q-5 16 -8 16h-8zM626 1349v-11h2v11h-2zM254 1342v-19h2v19h-2zM864 1331l-5 -5h2l5 5h-2zM841 1316l-4 -3l8 -8h2
q-2 11 -6 11zM872 1306l16 -8v3h6l4 -10l-4 -3l-26 17l2 1h2zM790 1284v-7h4l-2 -4l2 -25l-4 -48v-10l-2 -13q6 -14 12 -14h18q7 0 13 18l-6 50v13l2 19q-7 11 -29 18l-4 3h-4zM617 1186v-6h2v6h-2zM646 1172v-4l4 -3h4v1zM876 1172v-2l6 -4h2v4zM788 1168l-2 -2l2 -5h4v4z
M476 1163v-1h6v3zM730 1163l4 -2l2 1v3zM53 1161v-2l4 -2h2v2zM806 1159l-2 -9v-5q0 -10 6 -11l2 2v1l-2 22h-4zM224 1105l36 -3l9 2l31 -3l2 4l20 -7l23 4h59q16 0 16 -11v-8q0 -15 -20 -17q-4 -16 -4 -45v-31q-8 -69 -8 -108v-37q0 -57 10 -57q23 -2 23 -14v-4
q0 -16 -5 -28h-8q-35 0 -45 -3q0 4 -27 4l-6 -1l-2 4h-6l-12 -7l-11 2l-2 -2h-2v2l-2 -2l-10 2l-2 -2h-2l-8 2l-11 -5l-4 3v-3h-2l-10 6l-2 -1h-20q-4 0 -5 5l2 18h-2l2 2v1l-2 1v2q0 5 25 12l2 6l-4 55v9q0 45 8 81l-4 25l2 2l-2 37v25l2 37q-4 3 -27 5l-4 29h2l-2 1v2z
M901 1105q12 -3 12 -11q0 -23 -12 -23q-13 0 -13 -36l8 -70l-8 -23l8 -114l-4 -49l11 -2l6 1q8 0 8 -7h2q0 -32 -25 -32l-37 -4l-20 6h-6l-2 -2l-2 2h-2l-7 -2l-10 9l6 9q-16 68 -16 92h-2l4 9l-12 67l2 1v2q-8 37 -17 57h-4v-3h-4q0 4 10 4l2 10q-6 0 -6 5l4 3v3q-6 0 -6 3
h4v6h-4v2l2 1l-2 20h-2q0 -23 -4 -23l2 -1v-12l-2 -2v-1h2l-2 -2v-18h4l-2 -8l2 -19l-2 -46v-31l-2 -98q0 -3 19 -14v-7q0 -14 -9 -18l-2 2h-43l-22 -2q-21 0 -21 11l2 9l-2 4q0 8 33 12l2 7v8l-6 25l-2 56l6 51l-2 2l2 5l-4 93l6 35q-3 5 -6 5h-21q0 6 -6 6v7l-2 21
q3 0 6 5l2 1h99q16 0 16 -23l15 -79q8 -36 14 -36h4q5 0 8 11v5l-2 7l4 3v3l-4 4v60q0 10 -10 14h-4l-2 -2h-2q-9 15 -9 28l9 5h14q31 0 41 -2q16 3 17 5zM148 1102l30 -11l-2 -23v-53l-4 -44l6 -71v-79q0 -79 -18 -79l-2 -1h-2l-31 2l-39 -2l-33 2l-6 -1q-5 12 -14 18l4 57
l-4 59l2 17q0 67 -6 161q4 13 4 37q0 6 55 10l45 -3q0 3 15 4zM624 1102q8 -1 12 -6v-35l-6 -4l2 -4h-2l-8 -2v4h6v2h-7q-16 0 -20 -7v-2l4 -4l-8 -1q0 -32 18 -89v-32l17 -136v-2h-4v-6l8 -1v1l-4 4v2l8 -6q20 -2 20 -14v-19q0 -10 -6 -11l-12 1l-27 -1h-8l-29 2l-6 -1
q-18 0 -18 14q0 22 14 22q13 6 13 13q-3 30 -19 30l-14 1q-17 -4 -17 -15v-23q-4 0 -4 4h-2v-7l4 -3h4v3h2l11 -11l2 -15v-2q0 -12 -31 -12h-2l-14 1l-25 -1h-25l-4 12q0 24 21 24l8 4q0 73 10 104l2 15v26q0 25 6 49h-2l4 10l-2 22v4l7 53q-2 2 -31 5l-2 2v1h2l-2 1v17l2 7
h-2q0 6 18 10l84 -3q21 0 54 5zM314 1096l2 -21v-4h10q-5 25 -10 25h-2zM146 1086v-2l4 -2l2 1v1l-2 2h-4zM513 1076v-3h2v5h6l14 1v1h-18q-4 0 -4 -4zM148 1073v-5h4v3zM886 1072v-3h6v3h-6zM299 1053v-53q0 -47 17 -47l8 -2l14 4l-2 16l4 61v29q-5 7 -16 7q-25 -5 -25 -15
zM613 1065h2l4 3h-2zM105 1065q0 -4 -9 -8l-4 -16l2 -1l-2 -7v-35l2 -30l-2 -36v-83q0 -28 4 -36l-2 -9v-11q0 -8 7 -8v-1h-5l-2 4h-2v-6l4 -3l21 7q0 7 4 7l-2 2v51l4 82v5l-4 89v18h2l2 -10h2v18h-4v-2h-2q0 15 -12 15v1h4v3h-6zM92 1059v-1h4v4zM593 1055v-4h4l2 7h-2z
M581 1044v-7h4v7h-4zM554 1039v-7h2v7h-2zM123 1021v-21h2v21h-2zM544 1000l-3 -4v-6l1 2h2l-3 -17v-6l-2 -52l2 -7q-10 -16 -10 -39v-1q0 -10 13 -10h14q8 2 12 11l-4 5l2 5q-6 11 -10 74l2 16q0 21 -16 21v1h8l8 -3l-4 8zM338 978v-11h3v4l-1 7h-2zM747 975l2 -28h2v28h-4
zM64 971v-20h4v17zM831 962q0 -8 10 -31v-6h2l2 21l-2 15l-10 1h-2zM864 958v-11h4v11h-4zM302 954q0 -3 10 -4q0 3 -10 4zM500 935v-9l3 -2v11h-3zM500 921v-6l3 3v3h-3zM300 892v-11l2 -5l-2 -6l-1 -86q8 -6 15 -6q16 0 26 10l-2 14l2 19q-6 80 -16 80l-10 2
q-12 0 -14 -11zM500 875l-2 -19h3l2 18l-2 1h-1zM527 864v-4l4 -3h6v3zM562 857h6v3h-2zM244 822v-5h2v5h-2zM570 822l-2 -1v-1h6zM525 810v-6h2q0 8 6 13v1q-4 0 -8 -8zM855 795v-6h4v6h-4zM386 790v-9l6 4v1zM295 782v-1q2 -6 9 -6v3q-5 0 -5 4h-4zM884 781v-6h4l2 -1l2 1
q-3 6 -6 6h-2zM314 760l2 -11h8l4 12q-3 16 -8 16q-4 0 -6 -17zM716 771h2l4 3h-2zM129 763v-2l2 -4h4v6h-6zM43 716l37 -5l12 2l33 -3l2 4h4q0 -3 8 -3l5 -4h2l30 4h60q16 0 16 -11v-12q0 -11 -20 -15q-5 -4 -8 -115q-5 -18 -5 -85v-33q0 -64 9 -64q22 -4 26 -11v-11
q0 -28 -10 -28h-6q-29 0 -47 -3q0 4 -21 4h-10l-2 -1h-2l-2 4h-8l-11 -7l-12 2l-2 -2l-2 2h-2l-2 -2h-2l-8 2l-2 -2h-2l-7 2q-12 -2 -12 -5l-2 2h-4v-3h-4q0 6 -17 6v1l-14 -3l-6 7l2 20h-2l2 4l-2 4l25 11l4 7l-5 68q3 62 9 87l-4 25l2 6q-1 30 -4 30l2 7v24l-2 5l4 38
l-11 2h-14q-8 0 -8 37zM357 716l31 -6l55 1l21 5h4l10 -78l2 -6q0 -13 -27 -13l-16 -3q-25 3 -25 16l4 12q-4 8 -16 8l-2 1v3l2 1v2l-2 1h-2q-14 -11 -14 -21q0 -17 6 -41q-6 -12 -6 -20l2 -20l-2 -2v-1q0 -4 18 -13v-2h8l4 2v2l-2 -2h-6l12 11l-2 11q10 9 19 9h16
q10 -4 10 -10l-2 -5q4 -19 4 -56v-8q0 -19 -16 -24q-33 0 -33 6l-2 11l2 5q0 9 -18 11q-12 -1 -12 -11l4 -13l-4 -20l2 -8v-4l-5 -21l3 -26h-3v12h-2v-15l2 1h2v-1q0 -18 -12 -20v-1q1 -3 10 -6v2l-2 4l9 -4l-2 -2v-1l4 -3h6l6 4h-8v2q9 0 12 16l-4 36q3 14 8 14l25 -2l20 2
q6 0 6 -4l2 -1h1l-1 -17v-19q0 -25 3 -32q-3 -50 -11 -50h-51l-14 3q-25 -1 -25 -3l-10 1h-13l-34 -1q-2 4 -11 4h-10v1l2 2v1l-4 9l4 36l-2 5l2 2h15l2 -2q14 0 18 18l-4 24l2 12v35l2 5l-2 2l2 14v2q0 18 -4 25l2 9v5l-2 2l2 1l-4 39l2 11l-2 7q6 43 6 75q-15 8 -37 8h-2
v10l2 26l-2 6zM537 711h17l37 -2h59q43 0 51 -11v-3l-6 -51l7 -66q0 -55 -15 -55l-14 -14l20 -21h-2l2 -1v-2l2 -19l-4 -93q0 -5 23 -12q6 -7 6 -18v-2q0 -18 -25 -18l-4 3l-61 -3v2l-2 -2h-2l-11 3l-41 -3l-35 3l-10 -1q-8 2 -8 7h-2l2 16v14q0 3 20 4q7 6 7 11l2 74l-2 5
l2 2l-2 12l-2 56l2 23l-2 15q6 8 6 14v28l2 40l-2 7l2 4q0 11 -35 14l-4 32q4 8 22 8zM878 711q32 -9 35 -13l-2 -7v-67q0 -29 -6 -53q8 -47 8 -77l-2 -15l2 -31v-24q0 -97 -15 -97q0 -2 -14 -2l-2 1v-1l-25 2l-43 -2l-30 4l-11 -3v1l-6 6l2 1v2l-12 12l2 15v5l2 1v1h-2l2 5
l2 33l-4 73l2 20h-2l2 1v1l-6 159l4 36l-2 1q11 10 51 10l10 1l41 -3l2 2v-3h3q1 5 14 5zM139 705l3 -28h6l2 1h2l-10 27h-3zM880 695l-2 -2v-1l6 -3v3zM353 689l-2 -1v-1l2 -10h6v8h4v3zM451 681v-1h2l4 2v2h-2zM882 680v-6h2v6h-2zM123 663v-67q0 -45 21 -45h6l14 4l-2 16
l6 77v14q0 9 -16 13q-29 -8 -29 -12zM599 671v-4h4q3 0 6 7l-2 1zM605 637v-38l2 -8q-4 -16 -4 -51l-2 1h-2l-2 -1v-9h2l10 2v1l-2 1v2q25 0 25 23l2 -1h4v19h-4v-15h-2l-2 18l2 2l-2 6l-2 49h2l-4 18l4 3v3q-4 0 -9 9h-2q-12 0 -12 -12zM835 671q0 -4 -10 -7v4l-4 -2v-2h4
l-4 -18l2 -1l-2 -4l-1 -43l3 -35q-3 -13 -3 -40v-40l3 -106q0 -4 6 -4l2 -1v-2h-4l-7 5v-6l3 -3h2q6 4 16 4q10 6 10 13v44l-2 2v1h2l-2 1v24l2 1v2h-2l2 1v2l4 66q-2 71 -6 71l2 1v39l-2 7h4v-10h4v17l-4 3v-3q-3 0 -8 14l-8 1v1q6 0 6 3h-8zM851 667v-4l4 3v1h-4zM351 664
v-4h4v4h-4zM855 624v-22h2v22h-2zM164 574v-4l4 -3v10zM792 570v-21h4v18zM679 559v-6l4 3zM439 558v-9h2v9h-2zM127 553q1 -2 10 -5v3l-8 2h-2zM381 549v-5l3 -3h4q0 7 -6 8h-1zM661 509l6 -3h2l2 4l-2 2h-4zM412 509v-7h2v7h-2zM377 499v-2h4l3 8zM125 487v-17l2 -1l-2 -2
v-1l-2 -96q8 -5 16 -5q17 0 27 10v2l-2 18l4 11l-12 86q-8 6 -16 6q-15 0 -15 -11zM597 484l-2 -5l2 -2h4v7h-4zM599 466l2 -19v-5l2 -1v-1h-2l2 -2q-6 -29 -6 -54h-2l2 -1l-2 -7v-3q3 -12 18 -12h2q11 0 21 12l-2 21v19q0 8 -6 9l2 9v9l2 33q0 9 -17 11h-4q-5 0 -12 -18z
M343 455v-4l4 -3v7h-4zM341 442v-11h4v14zM217 377v-9l7 2v2zM119 369v-3l6 -4h4l-6 7h-4zM685 369v-3l6 -4h2v1l-4 6h-4zM591 368v-7l8 -2v3q-4 0 -4 6h-4zM139 350l1 -17h8l6 15l-6 15h-2q-4 0 -4 -11zM611 358v-3h6l-4 -15l4 -10h2l2 6l-2 5l3 16l-3 2zM652 348v-1l1 -3
h3v4h-4zM270 334h-7v-2h19l3 2v1zM448 311q41 -3 41 -15l1 -17v-7l-1 -10l2 -14l-1 -58l-1 -1l1 -1q-6 -49 -6 -77v-2q0 -76 9 -76q29 0 29 -12v-6q0 -21 -23 -21v-2l-6 3l-9 -3l-8 2h-3l-8 -2l-7 2l-40 -2q0 2 -9 5v16l-3 13q23 3 23 11q0 12 8 23l-2 7l2 38l-8 46l2 17v17
l-2 18l5 26q-4 7 -8 7h-1l-12 -8l-4 1l-3 -2h-3l-7 9l2 13v18q7 7 33 19q5 25 17 25zM663 311q9 0 21 -5l-2 -1v-17l2 -17q0 -7 -28 -8l-29 3q-10 -2 -10 -9h-1l1 -1v-26l2 -11l-2 -4q2 -5 6 -5l17 8q21 0 39 -19l6 -5v-2l-4 -13l4 -44l-1 -4l1 -10v-1l-3 -44l2 -11
q-10 -42 -18 -42q-3 -5 -26 -20l-6 -2l-1 1h-1l-29 -2q-29 6 -42 24l3 3q-9 20 -9 36l6 51q3 0 3 3l1 1h2l18 -1l18 3h4q5 0 9 -16l-3 -30l3 -20h-5v-4q2 -3 9 -3h1v1q0 2 -4 2l-1 2v2l4 -2h3q11 0 11 8l-1 14l1 76l2 4q-4 9 -10 9v1l1 1l-1 4h-5v-4h3v-2q-26 -14 -36 -14
h-16l-11 6v2h1l-3 29v6l3 109q3 0 10 7zM291 310q44 0 44 -8q22 -13 22 -30l3 -23l-1 -26l1 -14q-4 -16 -4 -29l4 -85h-1l1 -1v-52q0 -26 -40 -45l-5 -1l-6 1l-23 -2q-35 0 -56 28l1 3l2 20l-2 6l2 9l-3 46l1 10v19l-1 18l1 15l-2 58h-2l2 1l-2 5v1l4 44l-1 6q22 26 61 26z
M123 309q46 0 46 -10q10 -3 19 -10l-1 -14l4 -57l-4 -36q-10 -6 -16 -30q-10 -13 -31 -61q-21 -39 -21 -45v-4q6 -7 26 -7h17l15 1q0 -4 2 -4l-1 -15v-14q0 -5 -6 -5l-45 2l-8 -1l-15 1l-30 -3q-12 2 -17 4q5 41 10 41l-3 4q10 48 33 76q29 51 38 76v14l4 26l-2 11l2 3
q-7 10 -13 11q-11 0 -13 -25l1 -3h-1l1 -1v-18q0 -12 -4 -12h-32l-7 2l-3 -3l-9 7l2 1v30l-2 7q8 45 19 45q23 16 45 16zM334 279v-5h3v5h-3zM294 272l-3 -3v-4q13 1 13 3v2l-2 1v1l-1 -1h-2zM249 269v-1l3 2v1zM613 264v-3h3l1 5h-1zM286 183q0 -13 3 -22h-1l1 -1v-1l2 -32
l1 -3l-1 -1l1 -15v-6l-1 -4l1 -1l-6 -53q-4 0 -4 -2l4 -3v5l5 -4l8 -7h2l8 6v38q-2 0 -2 -6h-2v4l2 6l1 -1h3v12l-3 3v4h4v5h-3l2 16l-2 16h3v7h-3v5l-1 4l1 4l-1 1l1 1h-1l1 1v1l-1 1v1h1l-1 1v6l1 1l-1 1v32h3v8q-7 6 -9 53l-1 1h-5q-7 0 -10 -82zM255 263l-3 -17v-23l5 4
l-1 7l3 26l-2 3h-2zM111 261v-4h2l3 2v2h-5zM429 237l6 -3l2 1v5h-3zM252 213v-4h4v4h-4zM614 211v-12h2l8 8l-8 4h-2zM252 206v-6h3v6h-3zM137 203v-5h3v5h-3zM311 169v-5h3v5h-3zM333 122v-15h2v13zM172 59h18l2 -2l-1 -1h-1l-18 1v2zM630 49l2 -1h1v4zM671 46v-1l2 -2v3
h-2zM304 46l1 -1h2l-2 -7l-1 1h-2l-1 -1v1zM113 42v-3h4v3h-4zM468 35v-9h3v11zM484 35v-5l3 -2h2l2 2q-2 5 -5 5h-2zM62 25v-20h2l1 20h-3zM65 -5h6l17 -1v-2l-10 -1h-3l-5 1l-6 -1h-2v1z" />
    <glyph glyph-name="dieresis" unicode="&#xa8;" 
 />
    <glyph glyph-name="copyright" unicode="&#xa9;" 
 />
    <glyph glyph-name="ordfeminine" unicode="&#xaa;" 
 />
    <glyph glyph-name="guillemotleft" unicode="&#xab;" 
 />
    <glyph glyph-name="logicalnot" unicode="&#xac;" 
 />
    <glyph glyph-name="registered" unicode="&#xae;" 
 />
    <glyph glyph-name="macron" unicode="&#xaf;" 
 />
    <glyph glyph-name="degree" unicode="&#xb0;" 
 />
    <glyph glyph-name="plusminus" unicode="&#xb1;" 
 />
    <glyph glyph-name="uni00B2" unicode="&#xb2;" 
 />
    <glyph glyph-name="uni00B3" unicode="&#xb3;" 
 />
    <glyph glyph-name="acute" unicode="&#xb4;" horiz-adv-x="553" 
d="M350 1497h19q31 -39 104 -52q46 -34 46 -59q-25 0 -33 -84l-32 -52l6 -7v-19q-58 -39 -117 -169q-11 0 -26 -39h-19q-59 0 -85 84l-13 13l46 91l32 234q37 59 72 59z" />
    <glyph glyph-name="mu" unicode="&#xb5;" 
 />
    <glyph glyph-name="paragraph" unicode="&#xb6;" 
 />
    <glyph glyph-name="periodcentered" unicode="&#xb7;" 
 />
    <glyph glyph-name="periodcentered" unicode="&#x2219;" 
 />
    <glyph glyph-name="cedilla" unicode="&#xb8;" 
 />
    <glyph glyph-name="uni00B9" unicode="&#xb9;" 
 />
    <glyph glyph-name="ordmasculine" unicode="&#xba;" 
 />
    <glyph glyph-name="guillemotright" unicode="&#xbb;" 
 />
    <glyph glyph-name="onequarter" unicode="&#xbc;" 
 />
    <glyph glyph-name="onehalf" unicode="&#xbd;" horiz-adv-x="1513" 
d="M1021 1697l33 -33h7q37 0 65 26h26q0 -32 65 -39l7 -26h-72l-46 -6l-58 6h-92l-46 7v6q56 59 111 59zM1250 1547q116 -26 150 -98l26 -209q0 -182 -222 -941v-26q12 -26 46 -26l124 6q52 0 52 -150v-26q0 -71 -71 -71l-98 -13l-111 6l-144 -6l-72 25l-72 -6l-19 6
l-236 -32h-19q-80 0 -150 26l-164 -6q-28 0 -32 221l6 92l-6 130l6 131l-6 98l13 131l-20 91l7 26l-7 222v66q0 39 -59 39q-52 0 -52 111v85q0 46 91 46l203 6q33 0 33 -85v-320l6 -59l-6 -45l13 -216l-7 -235l7 -92l-7 -137q5 -137 26 -137q26 47 190 1104q27 209 58 209
q48 13 151 13l98 -26q75 65 261 65l7 7h6zM1152 1266v-46q0 -91 -59 -91l-52 -7h-7q-73 0 -111 46h-6q-33 -78 -85 -490l-98 -607q0 -27 72 -33l85 19h65l26 27v71q0 152 92 451q143 477 143 601v39q0 35 -19 39h-26zM819 214h6l20 -19v-27l-13 -13h-13l-20 20v20z" />
    <glyph glyph-name="threequarters" unicode="&#xbe;" 
 />
    <glyph glyph-name="questiondown" unicode="&#xbf;" 
 />
    <glyph glyph-name="Agrave" unicode="&#xc0;" 
 />
    <glyph glyph-name="Aacute" unicode="&#xc1;" 
 />
    <glyph glyph-name="Acircumflex" unicode="&#xc2;" 
 />
    <glyph glyph-name="Atilde" unicode="&#xc3;" 
 />
    <glyph glyph-name="Adieresis" unicode="&#xc4;" horiz-adv-x="826" 
d="M94 1870l65 -7l111 7q26 -7 26 -39v-196q-16 -32 -52 -32h-124l-26 -7q-39 0 -39 46v124l-6 71q0 23 45 33zM479 1870h124q45 0 45 -59v-91l7 -98l-26 -19h-26l-157 -7q-39 8 -39 52l-6 137q0 85 78 85zM212 1505h13q27 0 65 -33h19l20 26l6 7h59q157 0 157 -26
q26 -267 71 -509q18 -163 52 -163q26 -3 26 -19l-52 -33q28 0 105 -587q18 0 32 -110q0 -52 -156 -52l-26 -7q-111 0 -111 46q0 247 -72 247h-65q-36 0 -52 -260q0 -34 -65 -39h-150q-49 0 -59 32l7 7v6q52 665 91 782q39 678 58 678zM355 1016l-13 -183q0 -32 33 -32
q19 5 26 26q-17 189 -40 189h-6zM342 553q15 -32 65 -32h7q27 0 39 26q-44 110 -65 110h-13q-27 -8 -33 -104z" />
    <glyph glyph-name="Aring" unicode="&#xc5;" horiz-adv-x="829" 
d="M593 1842l19 -26l7 -169q0 -57 -52 -78l-72 7h-26q-16 0 -19 -26q50 -101 65 -104h13q37 32 65 32h26q45 0 45 -376q10 0 26 -331q44 -106 91 -760h6q0 -38 -58 -38h-149q-78 0 -78 116q0 182 -39 182h-65q-71 0 -71 -253q0 -39 -111 -39q-182 13 -182 39v13q0 50 39 149
l72 513v6q0 10 -72 39l-6 26l32 46q-26 13 -26 39q0 27 111 32l32 201q15 0 39 325q-6 21 -26 26l-104 -6l-58 19q-29 -6 -65 -52l-7 -6h-6q-33 43 -33 64q0 26 91 33v-7q15 0 52 39h7q45 -1 45 -13q65 35 65 72q124 10 124 58v72l-7 110q24 20 45 20h104zM-18 1362h7
q21 0 32 -156l-45 -20q-26 10 -26 20v97q13 59 32 59zM430 868l7 -6v-7l-13 -52v-6l19 -20h26v13h7l-7 33v58l-6 111h-7q-26 -18 -26 -124zM372 531v-7l19 -19h59l26 26v6l-26 98q-50 0 -78 -104z" />
    <glyph glyph-name="AE" unicode="&#xc6;" 
 />
    <glyph glyph-name="Ccedilla" unicode="&#xc7;" 
 />
    <glyph glyph-name="Egrave" unicode="&#xc8;" 
 />
    <glyph glyph-name="Eacute" unicode="&#xc9;" 
 />
    <glyph glyph-name="Ecircumflex" unicode="&#xca;" 
 />
    <glyph glyph-name="Edieresis" unicode="&#xcb;" 
 />
    <glyph glyph-name="Igrave" unicode="&#xcc;" 
 />
    <glyph glyph-name="Iacute" unicode="&#xcd;" 
 />
    <glyph glyph-name="Icircumflex" unicode="&#xce;" 
 />
    <glyph glyph-name="Idieresis" unicode="&#xcf;" 
 />
    <glyph glyph-name="Eth" unicode="&#xd0;" 
 />
    <glyph glyph-name="Ntilde" unicode="&#xd1;" 
 />
    <glyph glyph-name="Ograve" unicode="&#xd2;" 
 />
    <glyph glyph-name="Oacute" unicode="&#xd3;" 
 />
    <glyph glyph-name="Ocircumflex" unicode="&#xd4;" 
 />
    <glyph glyph-name="Otilde" unicode="&#xd5;" 
 />
    <glyph glyph-name="Odieresis" unicode="&#xd6;" horiz-adv-x="827" 
d="M723 1887q13 0 19 -39l46 -26l-65 -46q-20 5 -20 52q3 59 20 59zM188 1861h104q51 0 65 -33v-45q23 -105 46 -105h20l19 20v65q0 85 46 85l46 6h65q71 -8 71 -45l-6 -79l13 -91q0 -44 -72 -52l-189 7l-124 -7q-169 10 -169 26l19 131v71q0 46 46 46zM716 1757h13l39 -59
q-19 -49 -39 -65l-32 19q11 13 19 105zM351 1528l46 -6h110q165 0 190 -98q26 -64 26 -241l-7 -46l20 -104l-7 -66l7 -280l-7 -287l7 -52l-7 -131l7 -71q0 -155 -189 -183l-85 7h-13l-33 -7q-274 20 -274 78q-39 87 -39 385l-6 46l6 91l-6 157l6 130l-6 85l6 65l-6 209v71
q0 157 97 209zM860 1378h6l13 -13v-13h-6l-13 13v13zM357 1176v-26l7 -33l-7 -39v-58l13 -92l-6 -32l13 -72l-7 -20l7 -417v-131q8 -58 59 -58q27 10 39 32v118l-7 32l7 40v26l-13 182l13 124l-13 163l6 202v85q0 51 -39 72h-32q-33 0 -40 -98zM-34 485v-20l-13 -13h-13v26z
M-27 276h6l20 -20v-32h-26l-13 13v26z" />
    <glyph glyph-name="multiply" unicode="&#xd7;" 
 />
    <glyph glyph-name="Oslash" unicode="&#xd8;" 
 />
    <glyph glyph-name="Ugrave" unicode="&#xd9;" 
 />
    <glyph glyph-name="Uacute" unicode="&#xda;" 
 />
    <glyph glyph-name="Ucircumflex" unicode="&#xdb;" 
 />
    <glyph glyph-name="Udieresis" unicode="&#xdc;" 
 />
    <glyph glyph-name="Yacute" unicode="&#xdd;" 
 />
    <glyph glyph-name="Thorn" unicode="&#xde;" 
 />
    <glyph glyph-name="germandbls" unicode="&#xdf;" 
 />
    <glyph glyph-name="agrave" unicode="&#xe0;" 
 />
    <glyph glyph-name="aacute" unicode="&#xe1;" 
 />
    <glyph glyph-name="acircumflex" unicode="&#xe2;" 
 />
    <glyph glyph-name="atilde" unicode="&#xe3;" 
 />
    <glyph glyph-name="adieresis" unicode="&#xe4;" horiz-adv-x="827" 
d="M586 1831l7 -7v-45l13 -72v-46q0 -45 -65 -117l-7 -26q11 -59 65 -59v-6q-52 0 -52 -46q0 -19 26 -39q13 -72 33 -98v-65q0 -65 19 -130v-65l-13 -20q0 -137 72 -209q-46 -22 -46 -32q36 -41 52 -196q31 -264 59 -287q-3 -58 -13 -58l39 -163q0 -33 -98 -33l-78 -13
q-111 0 -111 65q-18 235 -58 235h-13q-105 0 -105 -78v-98l7 -26q-21 -105 -72 -105l-150 7l-52 -7l-13 27q28 441 78 743q12 0 52 704q13 39 46 39h13q21 0 72 -39h13q13 36 32 39l40 -7q136 0 136 40v26q-6 19 -39 19h-52q-26 0 -26 78l7 59l-7 78q0 28 189 33zM162 1818
h85q65 0 65 -78l7 -111q0 -59 -111 -59h-85q-26 8 -26 59v137q0 52 65 52zM795 1740h26q52 0 52 -59q-13 -78 -39 -78q-59 0 -59 -33q33 -65 85 -85v-13q0 -24 -78 -52v7l-98 98l-39 6q37 49 45 104v85q12 0 46 -85q49 0 65 46l-84 20v13q0 26 78 26zM619 1446h19
q66 -58 66 -84v-131l-14 -13v59q-44 163 -71 163v6zM788 1394l46 -19v-13l-13 -53v-13q39 0 39 -45l-7 -7v-6l-45 13v-7l-7 -26l13 -45v-7l-52 -65q28 182 39 182h7v7q0 21 -20 46v58zM351 1023l-13 -79v-137l27 -6q26 10 26 19v27q0 71 -26 176h-14zM358 742l-20 -189v-6
q0 -22 79 -33q29 13 32 26v7l-71 195h-20z" />
    <glyph glyph-name="aring" unicode="&#xe5;" horiz-adv-x="800" 
d="M229 1860h229l26 -26v-39l7 -131q-7 -72 -59 -72h-196q-33 0 -33 248zM478 1500q65 0 65 -78q58 -517 79 -517q105 0 105 -52q-9 -27 -59 -27v-6q0 -15 59 -20l6 -6v-33q0 -15 -72 -33l-6 -19q72 -429 78 -550q29 0 33 -124q0 -39 -125 -39l-45 -13q-118 0 -118 58
q-15 249 -59 249h-52q-66 0 -66 -124v-66l7 -26q-31 -91 -59 -91l-7 7h-78l-105 -7q-39 10 -39 32q39 558 98 857q33 568 46 615l33 7h19q31 0 53 -33l26 -7q11 0 26 46h157zM341 1029q-20 -75 -20 -157q3 -78 20 -78h19l20 13q-7 222 -39 222zM360 650l-39 -98
q0 -35 65 -40h27l19 20v13q-34 105 -72 105z" />
    <glyph glyph-name="ae" unicode="&#xe6;" 
 />
    <glyph glyph-name="ccedilla" unicode="&#xe7;" 
 />
    <glyph glyph-name="egrave" unicode="&#xe8;" 
 />
    <glyph glyph-name="eacute" unicode="&#xe9;" 
 />
    <glyph glyph-name="ecircumflex" unicode="&#xea;" 
 />
    <glyph glyph-name="edieresis" unicode="&#xeb;" 
 />
    <glyph glyph-name="igrave" unicode="&#xec;" 
 />
    <glyph glyph-name="iacute" unicode="&#xed;" 
 />
    <glyph glyph-name="icircumflex" unicode="&#xee;" 
 />
    <glyph glyph-name="idieresis" unicode="&#xef;" 
 />
    <glyph glyph-name="eth" unicode="&#xf0;" 
 />
    <glyph glyph-name="ntilde" unicode="&#xf1;" 
 />
    <glyph glyph-name="ograve" unicode="&#xf2;" 
 />
    <glyph glyph-name="oacute" unicode="&#xf3;" 
 />
    <glyph glyph-name="ocircumflex" unicode="&#xf4;" 
 />
    <glyph glyph-name="otilde" unicode="&#xf5;" 
 />
    <glyph glyph-name="odieresis" unicode="&#xf6;" horiz-adv-x="823" 
d="M613 1869q32 -10 32 -64l-6 -84q13 -29 26 -32h70q16 0 26 64l7 7h12q25 0 39 -20l-6 -45v-32l6 -39q0 -17 -58 -64q0 -11 -58 -32q0 -32 -90 -39v-26q97 -222 97 -309l-7 -58l7 -32l-7 -71l13 -122l-13 -96l13 -148l-26 -174l13 -71q-45 -283 -135 -316q-5 -29 -122 -38
q-39 -29 -39 -71h-6q-15 0 -20 52l-141 38q-52 26 -110 193q-32 134 -32 496v206q0 433 142 541l45 25h38l58 -6q45 19 84 19l116 -25h26l6 32q0 32 -103 45q-5 16 -64 19l-26 -6l-71 32l-109 -19q-135 0 -135 38l-7 161q0 58 84 58l96 7h26q45 0 45 -91v-45q0 -51 45 -51
l13 19v84q0 84 58 84zM858 1515l13 -13v-19l-20 -20l-6 7v32zM-37 1508l13 -19v-6l-13 -13h-13v26zM330 1109v-444l6 -58l-6 -45v-103q11 -174 71 -174q77 16 77 174l19 116l-13 64l7 26q0 573 -65 573q0 11 -32 13q-64 -31 -64 -142z" />
    <glyph glyph-name="divide" unicode="&#xf7;" 
 />
    <glyph glyph-name="oslash" unicode="&#xf8;" 
 />
    <glyph glyph-name="ugrave" unicode="&#xf9;" 
 />
    <glyph glyph-name="uacute" unicode="&#xfa;" 
 />
    <glyph glyph-name="ucircumflex" unicode="&#xfb;" 
 />
    <glyph glyph-name="udieresis" unicode="&#xfc;" 
 />
    <glyph glyph-name="yacute" unicode="&#xfd;" 
 />
    <glyph glyph-name="thorn" unicode="&#xfe;" 
 />
    <glyph glyph-name="ydieresis" unicode="&#xff;" 
 />
    <glyph glyph-name="Amacron" unicode="&#x100;" 
 />
    <glyph glyph-name="amacron" unicode="&#x101;" 
 />
    <glyph glyph-name="Abreve" unicode="&#x102;" 
 />
    <glyph glyph-name="abreve" unicode="&#x103;" 
 />
    <glyph glyph-name="Aogonek" unicode="&#x104;" 
 />
    <glyph glyph-name="aogonek" unicode="&#x105;" 
 />
    <glyph glyph-name="Cacute" unicode="&#x106;" 
 />
    <glyph glyph-name="cacute" unicode="&#x107;" 
 />
    <glyph glyph-name="Ccircumflex" unicode="&#x108;" 
 />
    <glyph glyph-name="ccircumflex" unicode="&#x109;" 
 />
    <glyph glyph-name="Cdotaccent" unicode="&#x10a;" 
 />
    <glyph glyph-name="cdotaccent" unicode="&#x10b;" 
 />
    <glyph glyph-name="Ccaron" unicode="&#x10c;" 
 />
    <glyph glyph-name="ccaron" unicode="&#x10d;" 
 />
    <glyph glyph-name="Dcaron" unicode="&#x10e;" 
 />
    <glyph glyph-name="dcaron" unicode="&#x10f;" 
 />
    <glyph glyph-name="Dcroat" unicode="&#x110;" 
 />
    <glyph glyph-name="dcroat" unicode="&#x111;" 
 />
    <glyph glyph-name="Emacron" unicode="&#x112;" 
 />
    <glyph glyph-name="emacron" unicode="&#x113;" 
 />
    <glyph glyph-name="Ebreve" unicode="&#x114;" 
 />
    <glyph glyph-name="ebreve" unicode="&#x115;" 
 />
    <glyph glyph-name="Edotaccent" unicode="&#x116;" 
 />
    <glyph glyph-name="edotaccent" unicode="&#x117;" 
 />
    <glyph glyph-name="Eogonek" unicode="&#x118;" 
 />
    <glyph glyph-name="eogonek" unicode="&#x119;" 
 />
    <glyph glyph-name="Ecaron" unicode="&#x11a;" 
 />
    <glyph glyph-name="ecaron" unicode="&#x11b;" 
 />
    <glyph glyph-name="Gcircumflex" unicode="&#x11c;" 
 />
    <glyph glyph-name="gcircumflex" unicode="&#x11d;" 
 />
    <glyph glyph-name="Gbreve" unicode="&#x11e;" 
 />
    <glyph glyph-name="gbreve" unicode="&#x11f;" 
 />
    <glyph glyph-name="Gdotaccent" unicode="&#x120;" 
 />
    <glyph glyph-name="gdotaccent" unicode="&#x121;" 
 />
    <glyph glyph-name="Gcommaaccent" unicode="&#x122;" 
 />
    <glyph glyph-name="gcommaaccent" unicode="&#x123;" 
 />
    <glyph glyph-name="Hcircumflex" unicode="&#x124;" 
 />
    <glyph glyph-name="hcircumflex" unicode="&#x125;" 
 />
    <glyph glyph-name="Hbar" unicode="&#x126;" 
 />
    <glyph glyph-name="hbar" unicode="&#x127;" 
 />
    <glyph glyph-name="Itilde" unicode="&#x128;" 
 />
    <glyph glyph-name="itilde" unicode="&#x129;" 
 />
    <glyph glyph-name="Imacron" unicode="&#x12a;" 
 />
    <glyph glyph-name="imacron" unicode="&#x12b;" 
 />
    <glyph glyph-name="Ibreve" unicode="&#x12c;" 
 />
    <glyph glyph-name="ibreve" unicode="&#x12d;" 
 />
    <glyph glyph-name="Iogonek" unicode="&#x12e;" 
 />
    <glyph glyph-name="iogonek" unicode="&#x12f;" 
 />
    <glyph glyph-name="Idotaccent" unicode="&#x130;" 
 />
    <glyph glyph-name="dotlessi" unicode="&#x131;" 
 />
    <glyph glyph-name="IJ" unicode="&#x132;" 
 />
    <glyph glyph-name="ij" unicode="&#x133;" 
 />
    <glyph glyph-name="Jcircumflex" unicode="&#x134;" 
 />
    <glyph glyph-name="jcircumflex" unicode="&#x135;" 
 />
    <glyph glyph-name="Kcommaaccent" unicode="&#x136;" 
 />
    <glyph glyph-name="kcommaaccent" unicode="&#x137;" 
 />
    <glyph glyph-name="kgreenlandic" unicode="&#x138;" 
 />
    <glyph glyph-name="Lacute" unicode="&#x139;" 
 />
    <glyph glyph-name="lacute" unicode="&#x13a;" 
 />
    <glyph glyph-name="Lcommaaccent" unicode="&#x13b;" 
 />
    <glyph glyph-name="lcommaaccent" unicode="&#x13c;" 
 />
    <glyph glyph-name="Lcaron" unicode="&#x13d;" 
 />
    <glyph glyph-name="lcaron" unicode="&#x13e;" 
 />
    <glyph glyph-name="Ldot" unicode="&#x13f;" 
 />
    <glyph glyph-name="ldot" unicode="&#x140;" 
 />
    <glyph glyph-name="Lslash" unicode="&#x141;" 
 />
    <glyph glyph-name="lslash" unicode="&#x142;" 
 />
    <glyph glyph-name="Nacute" unicode="&#x143;" 
 />
    <glyph glyph-name="nacute" unicode="&#x144;" 
 />
    <glyph glyph-name="Ncommaaccent" unicode="&#x145;" 
 />
    <glyph glyph-name="ncommaaccent" unicode="&#x146;" 
 />
    <glyph glyph-name="Ncaron" unicode="&#x147;" 
 />
    <glyph glyph-name="ncaron" unicode="&#x148;" 
 />
    <glyph glyph-name="napostrophe" unicode="&#x149;" 
 />
    <glyph glyph-name="Eng" unicode="&#x14a;" 
 />
    <glyph glyph-name="eng" unicode="&#x14b;" 
 />
    <glyph glyph-name="Omacron" unicode="&#x14c;" 
 />
    <glyph glyph-name="omacron" unicode="&#x14d;" 
 />
    <glyph glyph-name="Obreve" unicode="&#x14e;" 
 />
    <glyph glyph-name="obreve" unicode="&#x14f;" 
 />
    <glyph glyph-name="Ohungarumlaut" unicode="&#x150;" 
 />
    <glyph glyph-name="ohungarumlaut" unicode="&#x151;" 
 />
    <glyph glyph-name="OE" unicode="&#x152;" 
 />
    <glyph glyph-name="oe" unicode="&#x153;" 
 />
    <glyph glyph-name="Racute" unicode="&#x154;" 
 />
    <glyph glyph-name="racute" unicode="&#x155;" 
 />
    <glyph glyph-name="Rcommaaccent" unicode="&#x156;" 
 />
    <glyph glyph-name="rcommaaccent" unicode="&#x157;" 
 />
    <glyph glyph-name="Rcaron" unicode="&#x158;" 
 />
    <glyph glyph-name="rcaron" unicode="&#x159;" 
 />
    <glyph glyph-name="Sacute" unicode="&#x15a;" 
 />
    <glyph glyph-name="sacute" unicode="&#x15b;" 
 />
    <glyph glyph-name="Scircumflex" unicode="&#x15c;" 
 />
    <glyph glyph-name="scircumflex" unicode="&#x15d;" 
 />
    <glyph glyph-name="Scedilla" unicode="&#x15e;" 
 />
    <glyph glyph-name="scedilla" unicode="&#x15f;" 
 />
    <glyph glyph-name="Scaron" unicode="&#x160;" 
 />
    <glyph glyph-name="scaron" unicode="&#x161;" 
 />
    <glyph glyph-name="Tcommaaccent" unicode="&#x162;" 
 />
    <glyph glyph-name="tcommaaccent" unicode="&#x163;" 
 />
    <glyph glyph-name="Tcaron" unicode="&#x164;" 
 />
    <glyph glyph-name="tcaron" unicode="&#x165;" 
 />
    <glyph glyph-name="Tbar" unicode="&#x166;" 
 />
    <glyph glyph-name="tbar" unicode="&#x167;" 
 />
    <glyph glyph-name="Utilde" unicode="&#x168;" 
 />
    <glyph glyph-name="utilde" unicode="&#x169;" 
 />
    <glyph glyph-name="Umacron" unicode="&#x16a;" 
 />
    <glyph glyph-name="umacron" unicode="&#x16b;" 
 />
    <glyph glyph-name="Ubreve" unicode="&#x16c;" 
 />
    <glyph glyph-name="ubreve" unicode="&#x16d;" 
 />
    <glyph glyph-name="Uring" unicode="&#x16e;" 
 />
    <glyph glyph-name="uring" unicode="&#x16f;" 
 />
    <glyph glyph-name="Uhungarumlaut" unicode="&#x170;" 
 />
    <glyph glyph-name="uhungarumlaut" unicode="&#x171;" 
 />
    <glyph glyph-name="Uogonek" unicode="&#x172;" 
 />
    <glyph glyph-name="uogonek" unicode="&#x173;" 
 />
    <glyph glyph-name="Wcircumflex" unicode="&#x174;" 
 />
    <glyph glyph-name="wcircumflex" unicode="&#x175;" 
 />
    <glyph glyph-name="Ycircumflex" unicode="&#x176;" 
 />
    <glyph glyph-name="ycircumflex" unicode="&#x177;" 
 />
    <glyph glyph-name="Ydieresis" unicode="&#x178;" 
 />
    <glyph glyph-name="Zacute" unicode="&#x179;" 
 />
    <glyph glyph-name="zacute" unicode="&#x17a;" 
 />
    <glyph glyph-name="Zdotaccent" unicode="&#x17b;" 
 />
    <glyph glyph-name="zdotaccent" unicode="&#x17c;" 
 />
    <glyph glyph-name="Zcaron" unicode="&#x17d;" 
 />
    <glyph glyph-name="zcaron" unicode="&#x17e;" 
 />
    <glyph glyph-name="longs" unicode="&#x17f;" 
 />
    <glyph glyph-name="florin" unicode="&#x192;" 
 />
    <glyph glyph-name="Aringacute" unicode="&#x1fa;" 
 />
    <glyph glyph-name="aringacute" unicode="&#x1fb;" 
 />
    <glyph glyph-name="AEacute" unicode="&#x1fc;" 
 />
    <glyph glyph-name="aeacute" unicode="&#x1fd;" 
 />
    <glyph glyph-name="Oslashacute" unicode="&#x1fe;" 
 />
    <glyph glyph-name="oslashacute" unicode="&#x1ff;" 
 />
    <glyph glyph-name="circumflex" unicode="&#x2c6;" 
 />
    <glyph glyph-name="caron" unicode="&#x2c7;" 
 />
    <glyph glyph-name="uni02C9" unicode="&#x2c9;" 
 />
    <glyph glyph-name="breve" unicode="&#x2d8;" 
 />
    <glyph glyph-name="dotaccent" unicode="&#x2d9;" 
 />
    <glyph glyph-name="ring" unicode="&#x2da;" 
 />
    <glyph glyph-name="ogonek" unicode="&#x2db;" 
 />
    <glyph glyph-name="tilde" unicode="&#x2dc;" 
 />
    <glyph glyph-name="hungarumlaut" unicode="&#x2dd;" 
 />
    <glyph glyph-name="tonos" unicode="&#x384;" 
 />
    <glyph glyph-name="dieresistonos" unicode="&#x385;" 
 />
    <glyph glyph-name="Alphatonos" unicode="&#x386;" 
 />
    <glyph glyph-name="anoteleia" unicode="&#x387;" 
 />
    <glyph glyph-name="Epsilontonos" unicode="&#x388;" 
 />
    <glyph glyph-name="Etatonos" unicode="&#x389;" 
 />
    <glyph glyph-name="Iotatonos" unicode="&#x38a;" 
 />
    <glyph glyph-name="Omicrontonos" unicode="&#x38c;" 
 />
    <glyph glyph-name="Upsilontonos" unicode="&#x38e;" 
 />
    <glyph glyph-name="Omegatonos" unicode="&#x38f;" 
 />
    <glyph glyph-name="iotadieresistonos" unicode="&#x390;" 
 />
    <glyph glyph-name="Alpha" unicode="&#x391;" 
 />
    <glyph glyph-name="Beta" unicode="&#x392;" 
 />
    <glyph glyph-name="Gamma" unicode="&#x393;" 
 />
    <glyph glyph-name="uni0394" unicode="&#x394;" 
 />
    <glyph glyph-name="Epsilon" unicode="&#x395;" 
 />
    <glyph glyph-name="Zeta" unicode="&#x396;" 
 />
    <glyph glyph-name="Eta" unicode="&#x397;" 
 />
    <glyph glyph-name="Theta" unicode="&#x398;" 
 />
    <glyph glyph-name="Iota" unicode="&#x399;" 
 />
    <glyph glyph-name="Kappa" unicode="&#x39a;" 
 />
    <glyph glyph-name="Lambda" unicode="&#x39b;" 
 />
    <glyph glyph-name="Mu" unicode="&#x39c;" 
 />
    <glyph glyph-name="Nu" unicode="&#x39d;" 
 />
    <glyph glyph-name="Xi" unicode="&#x39e;" 
 />
    <glyph glyph-name="Omicron" unicode="&#x39f;" 
 />
    <glyph glyph-name="Pi" unicode="&#x3a0;" 
 />
    <glyph glyph-name="Rho" unicode="&#x3a1;" 
 />
    <glyph glyph-name="Sigma" unicode="&#x3a3;" 
 />
    <glyph glyph-name="Tau" unicode="&#x3a4;" 
 />
    <glyph glyph-name="Upsilon" unicode="&#x3a5;" 
 />
    <glyph glyph-name="Phi" unicode="&#x3a6;" 
 />
    <glyph glyph-name="Chi" unicode="&#x3a7;" 
 />
    <glyph glyph-name="Psi" unicode="&#x3a8;" 
 />
    <glyph glyph-name="uni03A9" unicode="&#x3a9;" 
 />
    <glyph glyph-name="Iotadieresis" unicode="&#x3aa;" 
 />
    <glyph glyph-name="Upsilondieresis" unicode="&#x3ab;" 
 />
    <glyph glyph-name="alphatonos" unicode="&#x3ac;" 
 />
    <glyph glyph-name="epsilontonos" unicode="&#x3ad;" 
 />
    <glyph glyph-name="etatonos" unicode="&#x3ae;" 
 />
    <glyph glyph-name="iotatonos" unicode="&#x3af;" 
 />
    <glyph glyph-name="upsilondieresistonos" unicode="&#x3b0;" 
 />
    <glyph glyph-name="alpha" unicode="&#x3b1;" 
 />
    <glyph glyph-name="beta" unicode="&#x3b2;" 
 />
    <glyph glyph-name="gamma" unicode="&#x3b3;" 
 />
    <glyph glyph-name="delta" unicode="&#x3b4;" 
 />
    <glyph glyph-name="epsilon" unicode="&#x3b5;" 
 />
    <glyph glyph-name="zeta" unicode="&#x3b6;" 
 />
    <glyph glyph-name="eta" unicode="&#x3b7;" 
 />
    <glyph glyph-name="theta" unicode="&#x3b8;" 
 />
    <glyph glyph-name="iota" unicode="&#x3b9;" 
 />
    <glyph glyph-name="kappa" unicode="&#x3ba;" 
 />
    <glyph glyph-name="lambda" unicode="&#x3bb;" 
 />
    <glyph glyph-name="uni03BC" unicode="&#x3bc;" 
 />
    <glyph glyph-name="nu" unicode="&#x3bd;" 
 />
    <glyph glyph-name="xi" unicode="&#x3be;" 
 />
    <glyph glyph-name="omicron" unicode="&#x3bf;" 
 />
    <glyph glyph-name="pi" unicode="&#x3c0;" 
 />
    <glyph glyph-name="rho" unicode="&#x3c1;" 
 />
    <glyph glyph-name="sigma1" unicode="&#x3c2;" 
 />
    <glyph glyph-name="sigma" unicode="&#x3c3;" 
 />
    <glyph glyph-name="tau" unicode="&#x3c4;" 
 />
    <glyph glyph-name="upsilon" unicode="&#x3c5;" 
 />
    <glyph glyph-name="phi" unicode="&#x3c6;" 
 />
    <glyph glyph-name="chi" unicode="&#x3c7;" 
 />
    <glyph glyph-name="psi" unicode="&#x3c8;" 
 />
    <glyph glyph-name="omega" unicode="&#x3c9;" 
 />
    <glyph glyph-name="iotadieresis" unicode="&#x3ca;" 
 />
    <glyph glyph-name="upsilondieresis" unicode="&#x3cb;" 
 />
    <glyph glyph-name="omicrontonos" unicode="&#x3cc;" 
 />
    <glyph glyph-name="upsilontonos" unicode="&#x3cd;" 
 />
    <glyph glyph-name="omegatonos" unicode="&#x3ce;" 
 />
    <glyph glyph-name="afii10023" unicode="&#x401;" 
 />
    <glyph glyph-name="afii10051" unicode="&#x402;" 
 />
    <glyph glyph-name="afii10052" unicode="&#x403;" 
 />
    <glyph glyph-name="afii10053" unicode="&#x404;" 
 />
    <glyph glyph-name="afii10054" unicode="&#x405;" 
 />
    <glyph glyph-name="afii10055" unicode="&#x406;" 
 />
    <glyph glyph-name="afii10056" unicode="&#x407;" 
 />
    <glyph glyph-name="afii10057" unicode="&#x408;" 
 />
    <glyph glyph-name="afii10058" unicode="&#x409;" 
 />
    <glyph glyph-name="afii10059" unicode="&#x40a;" 
 />
    <glyph glyph-name="afii10060" unicode="&#x40b;" 
 />
    <glyph glyph-name="afii10061" unicode="&#x40c;" 
 />
    <glyph glyph-name="afii10062" unicode="&#x40e;" 
 />
    <glyph glyph-name="afii10145" unicode="&#x40f;" 
 />
    <glyph glyph-name="afii10017" unicode="&#x410;" 
 />
    <glyph glyph-name="afii10018" unicode="&#x411;" 
 />
    <glyph glyph-name="afii10019" unicode="&#x412;" 
 />
    <glyph glyph-name="afii10020" unicode="&#x413;" 
 />
    <glyph glyph-name="afii10021" unicode="&#x414;" 
 />
    <glyph glyph-name="afii10022" unicode="&#x415;" 
 />
    <glyph glyph-name="afii10024" unicode="&#x416;" 
 />
    <glyph glyph-name="afii10025" unicode="&#x417;" 
 />
    <glyph glyph-name="afii10026" unicode="&#x418;" 
 />
    <glyph glyph-name="afii10027" unicode="&#x419;" 
 />
    <glyph glyph-name="afii10028" unicode="&#x41a;" 
 />
    <glyph glyph-name="afii10029" unicode="&#x41b;" 
 />
    <glyph glyph-name="afii10030" unicode="&#x41c;" 
 />
    <glyph glyph-name="afii10031" unicode="&#x41d;" 
 />
    <glyph glyph-name="afii10032" unicode="&#x41e;" 
 />
    <glyph glyph-name="afii10033" unicode="&#x41f;" 
 />
    <glyph glyph-name="afii10034" unicode="&#x420;" 
 />
    <glyph glyph-name="afii10035" unicode="&#x421;" 
 />
    <glyph glyph-name="afii10036" unicode="&#x422;" 
 />
    <glyph glyph-name="afii10037" unicode="&#x423;" 
 />
    <glyph glyph-name="afii10038" unicode="&#x424;" 
 />
    <glyph glyph-name="afii10039" unicode="&#x425;" 
 />
    <glyph glyph-name="afii10040" unicode="&#x426;" 
 />
    <glyph glyph-name="afii10041" unicode="&#x427;" 
 />
    <glyph glyph-name="afii10042" unicode="&#x428;" 
 />
    <glyph glyph-name="afii10043" unicode="&#x429;" 
 />
    <glyph glyph-name="afii10044" unicode="&#x42a;" 
 />
    <glyph glyph-name="afii10045" unicode="&#x42b;" 
 />
    <glyph glyph-name="afii10046" unicode="&#x42c;" 
 />
    <glyph glyph-name="afii10047" unicode="&#x42d;" 
 />
    <glyph glyph-name="afii10048" unicode="&#x42e;" 
 />
    <glyph glyph-name="afii10049" unicode="&#x42f;" 
 />
    <glyph glyph-name="afii10065" unicode="&#x430;" 
 />
    <glyph glyph-name="afii10066" unicode="&#x431;" 
 />
    <glyph glyph-name="afii10067" unicode="&#x432;" 
 />
    <glyph glyph-name="afii10068" unicode="&#x433;" 
 />
    <glyph glyph-name="afii10069" unicode="&#x434;" 
 />
    <glyph glyph-name="afii10070" unicode="&#x435;" 
 />
    <glyph glyph-name="afii10072" unicode="&#x436;" 
 />
    <glyph glyph-name="afii10073" unicode="&#x437;" 
 />
    <glyph glyph-name="afii10074" unicode="&#x438;" 
 />
    <glyph glyph-name="afii10075" unicode="&#x439;" 
 />
    <glyph glyph-name="afii10076" unicode="&#x43a;" 
 />
    <glyph glyph-name="afii10077" unicode="&#x43b;" 
 />
    <glyph glyph-name="afii10078" unicode="&#x43c;" 
 />
    <glyph glyph-name="afii10079" unicode="&#x43d;" 
 />
    <glyph glyph-name="afii10080" unicode="&#x43e;" 
 />
    <glyph glyph-name="afii10081" unicode="&#x43f;" 
 />
    <glyph glyph-name="afii10082" unicode="&#x440;" 
 />
    <glyph glyph-name="afii10083" unicode="&#x441;" 
 />
    <glyph glyph-name="afii10084" unicode="&#x442;" 
 />
    <glyph glyph-name="afii10085" unicode="&#x443;" 
 />
    <glyph glyph-name="afii10086" unicode="&#x444;" 
 />
    <glyph glyph-name="afii10087" unicode="&#x445;" 
 />
    <glyph glyph-name="afii10088" unicode="&#x446;" 
 />
    <glyph glyph-name="afii10089" unicode="&#x447;" 
 />
    <glyph glyph-name="afii10090" unicode="&#x448;" 
 />
    <glyph glyph-name="afii10091" unicode="&#x449;" 
 />
    <glyph glyph-name="afii10092" unicode="&#x44a;" 
 />
    <glyph glyph-name="afii10093" unicode="&#x44b;" 
 />
    <glyph glyph-name="afii10094" unicode="&#x44c;" 
 />
    <glyph glyph-name="afii10095" unicode="&#x44d;" 
 />
    <glyph glyph-name="afii10096" unicode="&#x44e;" 
 />
    <glyph glyph-name="afii10097" unicode="&#x44f;" 
 />
    <glyph glyph-name="afii10071" unicode="&#x451;" 
 />
    <glyph glyph-name="afii10099" unicode="&#x452;" 
 />
    <glyph glyph-name="afii10100" unicode="&#x453;" 
 />
    <glyph glyph-name="afii10101" unicode="&#x454;" 
 />
    <glyph glyph-name="afii10102" unicode="&#x455;" 
 />
    <glyph glyph-name="afii10103" unicode="&#x456;" 
 />
    <glyph glyph-name="afii10104" unicode="&#x457;" 
 />
    <glyph glyph-name="afii10105" unicode="&#x458;" 
 />
    <glyph glyph-name="afii10106" unicode="&#x459;" 
 />
    <glyph glyph-name="afii10107" unicode="&#x45a;" 
 />
    <glyph glyph-name="afii10108" unicode="&#x45b;" 
 />
    <glyph glyph-name="afii10109" unicode="&#x45c;" 
 />
    <glyph glyph-name="afii10110" unicode="&#x45e;" 
 />
    <glyph glyph-name="afii10193" unicode="&#x45f;" 
 />
    <glyph glyph-name="afii10050" unicode="&#x490;" 
 />
    <glyph glyph-name="afii10098" unicode="&#x491;" 
 />
    <glyph glyph-name="Wgrave" unicode="&#x1e80;" 
 />
    <glyph glyph-name="wgrave" unicode="&#x1e81;" 
 />
    <glyph glyph-name="Wacute" unicode="&#x1e82;" 
 />
    <glyph glyph-name="wacute" unicode="&#x1e83;" 
 />
    <glyph glyph-name="Wdieresis" unicode="&#x1e84;" 
 />
    <glyph glyph-name="wdieresis" unicode="&#x1e85;" 
 />
    <glyph glyph-name="Ygrave" unicode="&#x1ef2;" 
 />
    <glyph glyph-name="ygrave" unicode="&#x1ef3;" 
 />
    <glyph glyph-name="endash" unicode="&#x2013;" 
 />
    <glyph glyph-name="emdash" unicode="&#x2014;" 
 />
    <glyph glyph-name="afii00208" unicode="&#x2015;" 
 />
    <glyph glyph-name="underscoredbl" unicode="&#x2017;" 
 />
    <glyph glyph-name="quoteleft" unicode="&#x2018;" 
 />
    <glyph glyph-name="quoteright" unicode="&#x2019;" 
 />
    <glyph glyph-name="quotesinglbase" unicode="&#x201a;" 
 />
    <glyph glyph-name="quotereversed" unicode="&#x201b;" 
 />
    <glyph glyph-name="quotedblleft" unicode="&#x201c;" 
 />
    <glyph glyph-name="quotedblright" unicode="&#x201d;" 
 />
    <glyph glyph-name="quotedblbase" unicode="&#x201e;" 
 />
    <glyph glyph-name="dagger" unicode="&#x2020;" 
 />
    <glyph glyph-name="daggerdbl" unicode="&#x2021;" 
 />
    <glyph glyph-name="bullet" unicode="&#x2022;" 
 />
    <glyph glyph-name="ellipsis" unicode="&#x2026;" 
 />
    <glyph glyph-name="perthousand" unicode="&#x2030;" 
 />
    <glyph glyph-name="minute" unicode="&#x2032;" 
 />
    <glyph glyph-name="second" unicode="&#x2033;" 
 />
    <glyph glyph-name="guilsinglleft" unicode="&#x2039;" 
 />
    <glyph glyph-name="guilsinglright" unicode="&#x203a;" 
 />
    <glyph glyph-name="exclamdbl" unicode="&#x203c;" 
 />
    <glyph glyph-name="uni203E" unicode="&#x203e;" 
 />
    <glyph glyph-name="fraction" unicode="&#x2044;" 
 />
    <glyph glyph-name="fraction" unicode="&#x2215;" 
 />
    <glyph glyph-name="uni207F" unicode="&#x207f;" 
 />
    <glyph glyph-name="franc" unicode="&#x20a3;" 
 />
    <glyph glyph-name="lira" unicode="&#x20a4;" 
 />
    <glyph glyph-name="peseta" unicode="&#x20a7;" 
 />
    <glyph glyph-name="Euro" unicode="&#x20ac;" horiz-adv-x="800" 
d="M831 555q7 -26 33 -26l6 6v13l-13 13h-13l-6 -6h-7zM816 1158h6l13 -13l-13 -13l-6 7v19zM65 919l29 18l26 455q29 150 221 150h20l52 -13h175q137 -39 137 -150l13 -97l-7 -39v-52l7 -26l-7 -26l13 -150l-6 -26q-13 0 -20 39q0 28 -169 33l-84 -7l-13 46l13 149
q-15 46 -26 46h-20q-26 -10 -26 -46v-253q0 -45 82 -51h49l90 5q59 -11 59 -26v-19l-26 -26h-72l-13 -13l33 -7h52l32 -32v-13q-3 -13 -32 -26l-114 5l-5 -1h-28q-81 -33 -81 -134q-26 0 -26 -39v-7l7 -52l-13 -149q0 -72 39 -104q27 0 45 84l-6 65v65q0 114 26 137l78 -7
h104q29 0 58 39h7v-19l6 -150q-11 -44 -26 -370q-58 -124 -136 -124l-202 13h-84q-127 0 -169 111l-20 117l13 65l-6 32v59l19 84q-19 60 -19 111v58q0 46 -65 46l-7 6v7l13 45l-3 13h-7q-62 0 -62 28l-8 11q13 20 42 20l36 -2h1l14 21q-4 5 -7 11q-84 3 -84 11l-7 20v7
q11 24 34 24h61zM216 -20h8q32 -41 32 -56q9 -9 60 -12l28 28l36 -32l24 -4h8l40 4l8 -12v-12q-4 -12 -24 -12l-92 8q-18 0 -36 -16h-8q-17 20 -44 20h-8l-60 -28q-35 32 -64 32q-48 6 -48 20v20l8 8l32 -12h12q8 0 16 32l4 4h16q9 0 16 -36l4 -4h16q9 0 16 60zM961 490h-19
v19h19v-19z" />
    <glyph glyph-name="afii61248" unicode="&#x2105;" 
 />
    <glyph glyph-name="afii61289" unicode="&#x2113;" 
 />
    <glyph glyph-name="afii61352" unicode="&#x2116;" 
 />
    <glyph glyph-name="trademark" unicode="&#x2122;" 
 />
    <glyph glyph-name="Omega" unicode="&#x2126;" 
 />
    <glyph glyph-name="estimated" unicode="&#x212e;" 
 />
    <glyph glyph-name="oneeighth" unicode="&#x215b;" 
 />
    <glyph glyph-name="threeeighths" unicode="&#x215c;" 
 />
    <glyph glyph-name="fiveeighths" unicode="&#x215d;" 
 />
    <glyph glyph-name="seveneighths" unicode="&#x215e;" 
 />
    <glyph glyph-name="arrowleft" unicode="&#x2190;" 
 />
    <glyph glyph-name="arrowup" unicode="&#x2191;" 
 />
    <glyph glyph-name="arrowright" unicode="&#x2192;" 
 />
    <glyph glyph-name="arrowdown" unicode="&#x2193;" 
 />
    <glyph glyph-name="arrowboth" unicode="&#x2194;" 
 />
    <glyph glyph-name="arrowupdn" unicode="&#x2195;" 
 />
    <glyph glyph-name="arrowupdnbse" unicode="&#x21a8;" 
 />
    <glyph glyph-name="partialdiff" unicode="&#x2202;" 
 />
    <glyph glyph-name="Delta" unicode="&#x2206;" 
 />
    <glyph glyph-name="product" unicode="&#x220f;" 
 />
    <glyph glyph-name="summation" unicode="&#x2211;" 
 />
    <glyph glyph-name="minus" unicode="&#x2212;" 
 />
    <glyph glyph-name="radical" unicode="&#x221a;" 
 />
    <glyph glyph-name="infinity" unicode="&#x221e;" 
 />
    <glyph glyph-name="orthogonal" unicode="&#x221f;" 
 />
    <glyph glyph-name="intersection" unicode="&#x2229;" 
 />
    <glyph glyph-name="integral" unicode="&#x222b;" 
 />
    <glyph glyph-name="approxequal" unicode="&#x2248;" 
 />
    <glyph glyph-name="notequal" unicode="&#x2260;" 
 />
    <glyph glyph-name="equivalence" unicode="&#x2261;" 
 />
    <glyph glyph-name="lessequal" unicode="&#x2264;" 
 />
    <glyph glyph-name="greaterequal" unicode="&#x2265;" 
 />
    <glyph glyph-name="house" unicode="&#x2302;" 
 />
    <glyph glyph-name="revlogicalnot" unicode="&#x2310;" 
 />
    <glyph glyph-name="integraltp" unicode="&#x2320;" 
 />
    <glyph glyph-name="integralbt" unicode="&#x2321;" 
 />
    <glyph glyph-name="SF100000" unicode="&#x2500;" 
 />
    <glyph glyph-name="SF110000" unicode="&#x2502;" 
 />
    <glyph glyph-name="SF010000" unicode="&#x250c;" 
 />
    <glyph glyph-name="SF030000" unicode="&#x2510;" 
 />
    <glyph glyph-name="SF020000" unicode="&#x2514;" 
 />
    <glyph glyph-name="SF040000" unicode="&#x2518;" 
 />
    <glyph glyph-name="SF080000" unicode="&#x251c;" 
 />
    <glyph glyph-name="SF090000" unicode="&#x2524;" 
 />
    <glyph glyph-name="SF060000" unicode="&#x252c;" 
 />
    <glyph glyph-name="SF070000" unicode="&#x2534;" 
 />
    <glyph glyph-name="SF050000" unicode="&#x253c;" 
 />
    <glyph glyph-name="SF430000" unicode="&#x2550;" 
 />
    <glyph glyph-name="SF240000" unicode="&#x2551;" 
 />
    <glyph glyph-name="SF510000" unicode="&#x2552;" 
 />
    <glyph glyph-name="SF520000" unicode="&#x2553;" 
 />
    <glyph glyph-name="SF390000" unicode="&#x2554;" 
 />
    <glyph glyph-name="SF220000" unicode="&#x2555;" 
 />
    <glyph glyph-name="SF210000" unicode="&#x2556;" 
 />
    <glyph glyph-name="SF250000" unicode="&#x2557;" 
 />
    <glyph glyph-name="SF500000" unicode="&#x2558;" 
 />
    <glyph glyph-name="SF490000" unicode="&#x2559;" 
 />
    <glyph glyph-name="SF380000" unicode="&#x255a;" 
 />
    <glyph glyph-name="SF280000" unicode="&#x255b;" 
 />
    <glyph glyph-name="SF270000" unicode="&#x255c;" 
 />
    <glyph glyph-name="SF260000" unicode="&#x255d;" 
 />
    <glyph glyph-name="SF360000" unicode="&#x255e;" 
 />
    <glyph glyph-name="SF370000" unicode="&#x255f;" 
 />
    <glyph glyph-name="SF420000" unicode="&#x2560;" 
 />
    <glyph glyph-name="SF190000" unicode="&#x2561;" 
 />
    <glyph glyph-name="SF200000" unicode="&#x2562;" 
 />
    <glyph glyph-name="SF230000" unicode="&#x2563;" 
 />
    <glyph glyph-name="SF470000" unicode="&#x2564;" 
 />
    <glyph glyph-name="SF480000" unicode="&#x2565;" 
 />
    <glyph glyph-name="SF410000" unicode="&#x2566;" 
 />
    <glyph glyph-name="SF450000" unicode="&#x2567;" 
 />
    <glyph glyph-name="SF460000" unicode="&#x2568;" 
 />
    <glyph glyph-name="SF400000" unicode="&#x2569;" 
 />
    <glyph glyph-name="SF540000" unicode="&#x256a;" 
 />
    <glyph glyph-name="SF530000" unicode="&#x256b;" 
 />
    <glyph glyph-name="SF440000" unicode="&#x256c;" 
 />
    <glyph glyph-name="upblock" unicode="&#x2580;" 
 />
    <glyph glyph-name="dnblock" unicode="&#x2584;" 
 />
    <glyph glyph-name="block" unicode="&#x2588;" 
 />
    <glyph glyph-name="lfblock" unicode="&#x258c;" 
 />
    <glyph glyph-name="rtblock" unicode="&#x2590;" 
 />
    <glyph glyph-name="ltshade" unicode="&#x2591;" 
 />
    <glyph glyph-name="shade" unicode="&#x2592;" 
 />
    <glyph glyph-name="dkshade" unicode="&#x2593;" 
 />
    <glyph glyph-name="filledbox" unicode="&#x25a0;" 
 />
    <glyph glyph-name="H22073" unicode="&#x25a1;" 
 />
    <glyph glyph-name="H18543" unicode="&#x25aa;" 
 />
    <glyph glyph-name="H18551" unicode="&#x25ab;" 
 />
    <glyph glyph-name="filledrect" unicode="&#x25ac;" 
 />
    <glyph glyph-name="triagup" unicode="&#x25b2;" 
 />
    <glyph glyph-name="triagrt" unicode="&#x25ba;" 
 />
    <glyph glyph-name="triagdn" unicode="&#x25bc;" 
 />
    <glyph glyph-name="triaglf" unicode="&#x25c4;" 
 />
    <glyph glyph-name="lozenge" unicode="&#x25ca;" 
 />
    <glyph glyph-name="circle" unicode="&#x25cb;" 
 />
    <glyph glyph-name="H18533" unicode="&#x25cf;" 
 />
    <glyph glyph-name="invbullet" unicode="&#x25d8;" 
 />
    <glyph glyph-name="invcircle" unicode="&#x25d9;" 
 />
    <glyph glyph-name="openbullet" unicode="&#x25e6;" 
 />
    <glyph glyph-name="smileface" unicode="&#x263a;" 
 />
    <glyph glyph-name="invsmileface" unicode="&#x263b;" 
 />
    <glyph glyph-name="sun" unicode="&#x263c;" 
 />
    <glyph glyph-name="female" unicode="&#x2640;" 
 />
    <glyph glyph-name="male" unicode="&#x2642;" 
 />
    <glyph glyph-name="spade" unicode="&#x2660;" 
 />
    <glyph glyph-name="club" unicode="&#x2663;" 
 />
    <glyph glyph-name="heart" unicode="&#x2665;" 
 />
    <glyph glyph-name="diamond" unicode="&#x2666;" 
 />
    <glyph glyph-name="musicalnote" unicode="&#x266a;" 
 />
    <glyph glyph-name="musicalnotedbl" unicode="&#x266b;" 
 />
    <glyph glyph-name="uniF001" unicode="&#xf001;" 
 />
    <glyph glyph-name="uniF001" unicode="&#xfb01;" 
 />
    <glyph glyph-name="uniF002" unicode="&#xf002;" 
 />
    <glyph glyph-name="uniF002" unicode="&#xfb02;" 
 />
    <glyph glyph-name="uniF004" unicode="&#xf004;" horiz-adv-x="15" 
 />
    <glyph glyph-name="uniF005" unicode="&#xf005;" horiz-adv-x="30" 
 />
    <glyph glyph-name="glyph155" 
 />
  </font>
</defs>
</svg>
